<ttFont>
    <TTGlyph name=".notdef" xMin="170" yMin="-170" xMax="1700" yMax="1870">
      <contour>
        <pt x="170" y="1870" on="1"/>
        <pt x="1700" y="1870" on="1"/>
        <pt x="1700" y="-170" on="1"/>
        <pt x="170" y="-170" on="1"/>
      </contour>
      <contour>
        <pt x="480" y="557" on="1"/>
        <pt x="616" y="421" on="1"/>
        <pt x="944" y="748" on="1"/>
        <pt x="1272" y="421" on="1"/>
        <pt x="1408" y="557" on="1"/>
        <pt x="1080" y="884" on="1"/>
        <pt x="1408" y="1212" on="1"/>
        <pt x="1271" y="1348" on="1"/>
        <pt x="943" y="1020" on="1"/>
        <pt x="616" y="1348" on="1"/>
        <pt x="480" y="1212" on="1"/>
        <pt x="807" y="884" on="1"/>
      </contour>
    </TTGlyph>
    <TTGlyph name="A" xMin="121" yMin="0" xMax="1412" yMax="1361">
      <contour>
        <pt x="859" y="1361" on="1"/>
        <pt x="949" y="1361" on="1"/>
        <pt x="1317" y="1361" on="0"/>
        <pt x="1388" y="1112" on="1"/>
        <pt x="1412" y="1030" on="0"/>
        <pt x="1412" y="924" on="1"/>
        <pt x="1412" y="0" on="1"/>
        <pt x="859" y="0" on="1"/>
      </contour>
      <contour>
        <pt x="121" y="924" on="1"/>
        <pt x="121" y="1145" on="0"/>
        <pt x="222" y="1248" on="1"/>
        <pt x="333" y="1361" on="0"/>
        <pt x="584" y="1361" on="1"/>
        <pt x="674" y="1361" on="1"/>
        <pt x="674" y="0" on="1"/>
        <pt x="121" y="0" on="1"/>
      </contour>
    </TTGlyph>
    <TTGlyph name="AE" xMin="121" yMin="0" xMax="2125" yMax="1361">
      <contour>
        <pt x="1570" y="1361" on="1"/>
        <pt x="2125" y="1361" on="1"/>
        <pt x="2125" y="983" on="1"/>
        <pt x="2021" y="983" on="1"/>
        <pt x="1678" y="983" on="0"/>
        <pt x="1601" y="1138" on="1"/>
        <pt x="1570" y="1200" on="0"/>
        <pt x="1570" y="1304" on="1"/>
      </contour>
      <contour>
        <pt x="859" y="1361" on="1"/>
        <pt x="1397" y="1361" on="1"/>
        <pt x="1397" y="813" on="1"/>
        <pt x="1798" y="813" on="1"/>
        <pt x="1798" y="552" on="1"/>
        <pt x="1397" y="552" on="1"/>
        <pt x="1397" y="2" on="1"/>
        <pt x="859" y="2" on="1"/>
      </contour>
      <contour>
        <pt x="121" y="924" on="1"/>
        <pt x="121" y="1145" on="0"/>
        <pt x="222" y="1248" on="1"/>
        <pt x="333" y="1361" on="0"/>
        <pt x="584" y="1361" on="1"/>
        <pt x="674" y="1361" on="1"/>
        <pt x="674" y="0" on="1"/>
        <pt x="121" y="0" on="1"/>
      </contour>
      <contour>
        <pt x="1569" y="97" on="1"/>
        <pt x="1569" y="304" on="0"/>
        <pt x="1808" y="378" on="1"/>
        <pt x="1901" y="406" on="0"/>
        <pt x="2046" y="406" on="1"/>
        <pt x="2125" y="406" on="1"/>
        <pt x="2125" y="0" on="1"/>
        <pt x="1569" y="0" on="1"/>
      </contour>
    </TTGlyph>
    <TTGlyph name="AEacute" xMin="121" yMin="0" xMax="2125" yMax="2000">
      <component glyphName="AE" x="0" y="0" flags="0x1204"/>
      <component glyphName="acute.cap" x="786" y="0" flags="0x1004"/>
    </TTGlyph>
    <TTGlyph name="Aacute" xMin="121" yMin="0" xMax="1412" yMax="2000">
      <component glyphName="A" x="0" y="0" flags="0x1204"/>
      <component glyphName="acute.cap" x="431" y="0" flags="0x1004"/>
    </TTGlyph>
    <TTGlyph name="Abreve" xMin="121" yMin="0" xMax="1412" yMax="2000">
      <component glyphName="A" x="0" y="0" flags="0x1204"/>
      <component glyphName="breve.cap" x="261" y="0" flags="0x1004"/>
    </TTGlyph>
    <TTGlyph name="Acircumflex" xMin="121" yMin="0" xMax="1412" yMax="2000">
      <component glyphName="A" x="0" y="0" flags="0x1204"/>
      <component glyphName="circumflex.cap" x="261" y="0" flags="0x1004"/>
    </TTGlyph>
    <TTGlyph name="Adieresis" xMin="121" yMin="0" xMax="1412" yMax="2000">
      <component glyphName="A" x="0" y="0" flags="0x1204"/>
      <component glyphName="dieresis.cap" x="261" y="0" flags="0x1004"/>
    </TTGlyph>
    <TTGlyph name="Agrave" xMin="121" yMin="0" xMax="1412" yMax="2000">
      <component glyphName="A" x="0" y="0" flags="0x1204"/>
      <component glyphName="grave.cap" x="91" y="0" flags="0x1004"/>
    </TTGlyph>
    <TTGlyph name="Amacron" xMin="121" yMin="0" xMax="1412" yMax="1870">
      <component glyphName="A" x="0" y="0" flags="0x1204"/>
      <component glyphName="macron.cap" x="261" y="0" flags="0x1004"/>
    </TTGlyph>
    <TTGlyph name="Aogonek" xMin="121" yMin="-560" xMax="1412" yMax="1361">
      <contour>
        <pt x="852" y="-263" on="1"/>
        <pt x="852" y="-93" on="0"/>
        <pt x="967" y="0" on="1"/>
        <pt x="859" y="0" on="1"/>
        <pt x="859" y="1361" on="1"/>
        <pt x="949" y="1361" on="1"/>
        <pt x="1317" y="1361" on="0"/>
        <pt x="1388" y="1112" on="1"/>
        <pt x="1412" y="1030" on="0"/>
        <pt x="1412" y="924" on="1"/>
        <pt x="1412" y="0" on="1"/>
        <pt x="1157" y="0" on="1"/>
        <pt x="1157" y="-28" on="1"/>
        <pt x="1157" y="-140" on="0"/>
        <pt x="1201" y="-208" on="0"/>
        <pt x="1250" y="-230" on="0"/>
        <pt x="1286" y="-230" on="1"/>
        <pt x="1412" y="-230" on="1"/>
        <pt x="1412" y="-560" on="1"/>
        <pt x="1196" y="-560" on="1"/>
        <pt x="1055" y="-560" on="0"/>
        <pt x="958" y="-483" on="1"/>
        <pt x="852" y="-399" on="0"/>
      </contour>
      <contour>
        <pt x="121" y="924" on="1"/>
        <pt x="121" y="1145" on="0"/>
        <pt x="222" y="1248" on="1"/>
        <pt x="333" y="1361" on="0"/>
        <pt x="584" y="1361" on="1"/>
        <pt x="674" y="1361" on="1"/>
        <pt x="674" y="0" on="1"/>
        <pt x="121" y="0" on="1"/>
      </contour>
    </TTGlyph>
    <TTGlyph name="Aring" xMin="121" yMin="0" xMax="1412" yMax="2000">
      <component glyphName="A" x="0" y="0" flags="0x1204"/>
      <component glyphName="ring.cap" x="261" y="0" flags="0x1004"/>
    </TTGlyph>
    <TTGlyph name="Atilde" xMin="121" yMin="0" xMax="1412" yMax="2000">
      <component glyphName="A" x="0" y="0" flags="0x1204"/>
      <component glyphName="tilde.cap" x="261" y="0" flags="0x1004"/>
    </TTGlyph>
    <TTGlyph name="B" xMin="109" yMin="0" xMax="1425" yMax="1361">
      <contour>
        <pt x="1234" y="689" on="1"/>
        <pt x="1425" y="610" on="0"/>
        <pt x="1425" y="406" on="1"/>
        <pt x="1425" y="219" on="0"/>
        <pt x="1294" y="112" on="1"/>
        <pt x="1157" y="0" on="0"/>
        <pt x="905" y="0" on="1"/>
        <pt x="813" y="0" on="1"/>
        <pt x="813" y="1361" on="1"/>
        <pt x="890" y="1361" on="1"/>
        <pt x="1136" y="1361" on="0"/>
        <pt x="1266" y="1238" on="1"/>
        <pt x="1385" y="1126" on="0"/>
        <pt x="1385" y="769" on="0"/>
        <pt x="1237" y="689" on="1"/>
      </contour>
      <contour>
        <pt x="109" y="1361" on="1"/>
        <pt x="647" y="1361" on="1"/>
        <pt x="647" y="2" on="1"/>
        <pt x="109" y="2" on="1"/>
      </contour>
    </TTGlyph>
    <TTGlyph name="C" xMin="131" yMin="0" xMax="1403" yMax="1361">
      <contour>
        <pt x="851" y="1361" on="1"/>
        <pt x="1403" y="1361" on="1"/>
        <pt x="1403" y="661" on="1"/>
        <pt x="1332" y="661" on="1"/>
        <pt x="1074" y="661" on="0"/>
        <pt x="962" y="750" on="1"/>
        <pt x="851" y="839" on="0"/>
        <pt x="851" y="1053" on="1"/>
      </contour>
      <contour>
        <pt x="651" y="0" on="1"/>
        <pt x="489" y="0" on="0"/>
        <pt x="363" y="120" on="1"/>
        <pt x="252" y="226" on="0"/>
        <pt x="189" y="402" on="1"/>
        <pt x="131" y="564" on="0"/>
        <pt x="131" y="723" on="1"/>
        <pt x="131" y="962" on="0"/>
        <pt x="249" y="1148" on="1"/>
        <pt x="333" y="1280" on="0"/>
        <pt x="470" y="1334" on="1"/>
        <pt x="540" y="1361" on="0"/>
        <pt x="626" y="1361" on="1"/>
        <pt x="703" y="1361" on="1"/>
        <pt x="703" y="0" on="1"/>
      </contour>
      <contour>
        <pt x="851" y="261" on="1"/>
        <pt x="1351" y="261" on="1"/>
        <pt x="1351" y="233" on="1"/>
        <pt x="1351" y="140" on="0"/>
        <pt x="1284" y="76" on="1"/>
        <pt x="1202" y="0" on="0"/>
        <pt x="1051" y="0" on="1"/>
        <pt x="851" y="0" on="1"/>
      </contour>
    </TTGlyph>
    <TTGlyph name="Cacute" xMin="131" yMin="0" xMax="1403" yMax="2000">
      <component glyphName="C" x="0" y="0" flags="0x1204"/>
      <component glyphName="acute.cap" x="427" y="0" flags="0x1004"/>
    </TTGlyph>
    <TTGlyph name="Ccaron" xMin="131" yMin="0" xMax="1403" yMax="2000">
      <component glyphName="C" x="0" y="0" flags="0x1204"/>
      <component glyphName="caron.cap" x="257" y="0" flags="0x1004"/>
    </TTGlyph>
    <TTGlyph name="Ccedilla" xMin="131" yMin="-556" xMax="1403" yMax="1361">
      <component glyphName="C" x="0" y="0" flags="0x1204"/>
      <component glyphName="cedilla" x="96" y="0" flags="0x1004"/>
    </TTGlyph>
    <TTGlyph name="Ccircumflex" xMin="131" yMin="0" xMax="1403" yMax="2000">
      <component glyphName="C" x="0" y="0" flags="0x1204"/>
      <component glyphName="circumflex.cap" x="257" y="0" flags="0x1004"/>
    </TTGlyph>
    <TTGlyph name="Cdotaccent" xMin="131" yMin="0" xMax="1403" yMax="2000">
      <component glyphName="C" x="0" y="0" flags="0x1204"/>
      <component glyphName="dotaccent.cap" x="257" y="0" flags="0x1004"/>
    </TTGlyph>
    <TTGlyph name="D" xMin="108" yMin="0" xMax="1425" yMax="1361">
      <contour>
        <pt x="812" y="1361" on="1"/>
        <pt x="896" y="1361" on="1"/>
        <pt x="1320" y="1361" on="0"/>
        <pt x="1400" y="988" on="1"/>
        <pt x="1425" y="875" on="0"/>
        <pt x="1425" y="573" on="0"/>
        <pt x="1362" y="299" on="0"/>
        <pt x="1297" y="202" on="1"/>
        <pt x="1162" y="0" on="0"/>
        <pt x="896" y="0" on="1"/>
        <pt x="812" y="0" on="1"/>
      </contour>
      <contour>
        <pt x="108" y="1361" on="1"/>
        <pt x="646" y="1361" on="1"/>
        <pt x="646" y="2" on="1"/>
        <pt x="108" y="2" on="1"/>
      </contour>
    </TTGlyph>
    <TTGlyph name="Dcaron" xMin="108" yMin="0" xMax="1425" yMax="2000">
      <component glyphName="D" x="0" y="0" flags="0x1204"/>
      <component glyphName="caron.cap" x="256" y="0" flags="0x1004"/>
    </TTGlyph>
    <TTGlyph name="Dcroat" xMin="126" yMin="0" xMax="1620" yMax="1361">
      <contour>
        <pt x="1007" y="1361" on="1"/>
        <pt x="1091" y="1361" on="1"/>
        <pt x="1515" y="1361" on="0"/>
        <pt x="1596" y="988" on="1"/>
        <pt x="1620" y="875" on="0"/>
        <pt x="1620" y="573" on="0"/>
        <pt x="1557" y="299" on="0"/>
        <pt x="1492" y="202" on="1"/>
        <pt x="1357" y="0" on="0"/>
        <pt x="1091" y="0" on="1"/>
        <pt x="1007" y="0" on="1"/>
      </contour>
      <contour>
        <pt x="303" y="644" on="1"/>
        <pt x="126" y="644" on="1"/>
        <pt x="126" y="811" on="1"/>
        <pt x="303" y="811" on="1"/>
        <pt x="303" y="1361" on="1"/>
        <pt x="841" y="1361" on="1"/>
        <pt x="841" y="2" on="1"/>
        <pt x="303" y="2" on="1"/>
      </contour>
    </TTGlyph>
    <TTGlyph name="Delta" xMin="99" yMin="0" xMax="1599" yMax="1530">
      <contour>
        <pt x="99" y="0" on="1"/>
        <pt x="856" y="1529" on="1"/>
        <pt x="857" y="1530" on="1"/>
        <pt x="1599" y="0" on="1"/>
      </contour>
      <contour>
        <pt x="1327" y="162" on="1"/>
        <pt x="856" y="1120" on="1"/>
        <pt x="386" y="162" on="1"/>
      </contour>
    </TTGlyph>
    <TTGlyph name="E" xMin="134" yMin="0" xMax="1400" yMax="1361">
      <contour>
        <pt x="845" y="1361" on="1"/>
        <pt x="1400" y="1361" on="1"/>
        <pt x="1400" y="983" on="1"/>
        <pt x="1296" y="983" on="1"/>
        <pt x="1025" y="983" on="0"/>
        <pt x="926" y="1068" on="1"/>
        <pt x="845" y="1138" on="0"/>
        <pt x="845" y="1294" on="1"/>
      </contour>
      <contour>
        <pt x="134" y="1361" on="1"/>
        <pt x="672" y="1361" on="1"/>
        <pt x="672" y="813" on="1"/>
        <pt x="1073" y="813" on="1"/>
        <pt x="1073" y="552" on="1"/>
        <pt x="672" y="552" on="1"/>
        <pt x="672" y="2" on="1"/>
        <pt x="134" y="2" on="1"/>
      </contour>
      <contour>
        <pt x="844" y="97" on="1"/>
        <pt x="844" y="304" on="0"/>
        <pt x="1084" y="378" on="1"/>
        <pt x="1176" y="406" on="0"/>
        <pt x="1321" y="406" on="1"/>
        <pt x="1400" y="406" on="1"/>
        <pt x="1400" y="0" on="1"/>
        <pt x="844" y="0" on="1"/>
      </contour>
    </TTGlyph>
    <TTGlyph name="Eacute" xMin="134" yMin="0" xMax="1400" yMax="2000">
      <component glyphName="E" x="0" y="0" flags="0x1204"/>
      <component glyphName="acute.cap" x="417" y="0" flags="0x1004"/>
    </TTGlyph>
    <TTGlyph name="Ebreve" xMin="134" yMin="0" xMax="1400" yMax="2000">
      <component glyphName="E" x="0" y="0" flags="0x1204"/>
      <component glyphName="breve.cap" x="247" y="0" flags="0x1004"/>
    </TTGlyph>
    <TTGlyph name="Ecaron" xMin="134" yMin="0" xMax="1400" yMax="2000">
      <component glyphName="E" x="0" y="0" flags="0x1204"/>
      <component glyphName="caron.cap" x="247" y="0" flags="0x1004"/>
    </TTGlyph>
    <TTGlyph name="Ecircumflex" xMin="134" yMin="0" xMax="1400" yMax="2000">
      <component glyphName="E" x="0" y="0" flags="0x1204"/>
      <component glyphName="circumflex.cap" x="247" y="0" flags="0x1004"/>
    </TTGlyph>
    <TTGlyph name="Edieresis" xMin="134" yMin="0" xMax="1400" yMax="2000">
      <component glyphName="E" x="0" y="0" flags="0x1204"/>
      <component glyphName="dieresis.cap" x="247" y="0" flags="0x1004"/>
    </TTGlyph>
    <TTGlyph name="Edotaccent" xMin="134" yMin="0" xMax="1400" yMax="2000">
      <component glyphName="E" x="0" y="0" flags="0x1204"/>
      <component glyphName="dotaccent.cap" x="247" y="0" flags="0x1004"/>
    </TTGlyph>
    <TTGlyph name="Egrave" xMin="134" yMin="0" xMax="1400" yMax="2000">
      <component glyphName="E" x="0" y="0" flags="0x1204"/>
      <component glyphName="grave.cap" x="77" y="0" flags="0x1004"/>
    </TTGlyph>
    <TTGlyph name="Emacron" xMin="134" yMin="0" xMax="1400" yMax="1870">
      <component glyphName="E" x="0" y="0" flags="0x1204"/>
      <component glyphName="macron.cap" x="247" y="0" flags="0x1004"/>
    </TTGlyph>
    <TTGlyph name="Eng" xMin="133" yMin="-538" xMax="1412" yMax="1361">
      <contour>
        <pt x="859" y="1361" on="1"/>
        <pt x="949" y="1361" on="1"/>
        <pt x="1317" y="1361" on="0"/>
        <pt x="1388" y="1112" on="1"/>
        <pt x="1412" y="1030" on="0"/>
        <pt x="1412" y="924" on="1"/>
        <pt x="1412" y="-101" on="1"/>
        <pt x="1412" y="-322" on="0"/>
        <pt x="1311" y="-426" on="1"/>
        <pt x="1202" y="-538" on="0"/>
        <pt x="951" y="-538" on="1"/>
        <pt x="861" y="-538" on="1"/>
        <pt x="859" y="0" on="1"/>
      </contour>
      <contour>
        <pt x="133" y="1361" on="1"/>
        <pt x="671" y="1361" on="1"/>
        <pt x="671" y="0" on="1"/>
        <pt x="133" y="0" on="1"/>
      </contour>
    </TTGlyph>
    <TTGlyph name="Eogonek" xMin="134" yMin="-560" xMax="1400" yMax="1361">
      <contour>
        <pt x="845" y="1361" on="1"/>
        <pt x="1400" y="1361" on="1"/>
        <pt x="1400" y="983" on="1"/>
        <pt x="1296" y="983" on="1"/>
        <pt x="1025" y="983" on="0"/>
        <pt x="926" y="1068" on="1"/>
        <pt x="845" y="1138" on="0"/>
        <pt x="845" y="1294" on="1"/>
      </contour>
      <contour>
        <pt x="134" y="1361" on="1"/>
        <pt x="672" y="1361" on="1"/>
        <pt x="672" y="813" on="1"/>
        <pt x="1073" y="813" on="1"/>
        <pt x="1073" y="552" on="1"/>
        <pt x="672" y="552" on="1"/>
        <pt x="672" y="2" on="1"/>
        <pt x="134" y="2" on="1"/>
      </contour>
      <contour>
        <pt x="840" y="-263" on="1"/>
        <pt x="840" y="-93" on="0"/>
        <pt x="955" y="0" on="1"/>
        <pt x="844" y="0" on="1"/>
        <pt x="844" y="97" on="1"/>
        <pt x="844" y="304" on="0"/>
        <pt x="1084" y="378" on="1"/>
        <pt x="1176" y="406" on="0"/>
        <pt x="1321" y="406" on="1"/>
        <pt x="1400" y="406" on="1"/>
        <pt x="1400" y="0" on="1"/>
        <pt x="1145" y="0" on="1"/>
        <pt x="1145" y="-28" on="1"/>
        <pt x="1145" y="-140" on="0"/>
        <pt x="1189" y="-208" on="0"/>
        <pt x="1238" y="-230" on="0"/>
        <pt x="1274" y="-230" on="1"/>
        <pt x="1400" y="-230" on="1"/>
        <pt x="1400" y="-560" on="1"/>
        <pt x="1184" y="-560" on="1"/>
        <pt x="1043" y="-560" on="0"/>
        <pt x="946" y="-483" on="1"/>
        <pt x="840" y="-399" on="0"/>
      </contour>
    </TTGlyph>
    <TTGlyph name="Eth" xMin="-44" yMin="0" xMax="1450" yMax="1361">
      <contour>
        <pt x="837" y="1361" on="1"/>
        <pt x="921" y="1361" on="1"/>
        <pt x="1345" y="1361" on="0"/>
        <pt x="1426" y="988" on="1"/>
        <pt x="1450" y="875" on="0"/>
        <pt x="1450" y="573" on="0"/>
        <pt x="1387" y="299" on="0"/>
        <pt x="1322" y="202" on="1"/>
        <pt x="1187" y="0" on="0"/>
        <pt x="921" y="0" on="1"/>
        <pt x="837" y="0" on="1"/>
      </contour>
      <contour>
        <pt x="133" y="644" on="1"/>
        <pt x="-44" y="644" on="1"/>
        <pt x="-44" y="811" on="1"/>
        <pt x="133" y="811" on="1"/>
        <pt x="133" y="1361" on="1"/>
        <pt x="671" y="1361" on="1"/>
        <pt x="671" y="2" on="1"/>
        <pt x="133" y="2" on="1"/>
      </contour>
    </TTGlyph>
    <TTGlyph name="Euro" xMin="148" yMin="0" xMax="1726" yMax="1371">
      <contour>
        <pt x="1120" y="1371" on="1"/>
        <pt x="1726" y="1371" on="1"/>
        <pt x="1726" y="1020" on="1"/>
        <pt x="1661" y="1020" on="1"/>
        <pt x="1367" y="1020" on="0"/>
        <pt x="1246" y="1064" on="1"/>
        <pt x="1120" y="1110" on="0"/>
        <pt x="1120" y="1226" on="1"/>
      </contour>
      <contour>
        <pt x="318" y="495" on="1"/>
        <pt x="304" y="572" on="0"/>
        <pt x="299" y="685" on="1"/>
        <pt x="177" y="685" on="1"/>
        <pt x="177" y="841" on="1"/>
        <pt x="307" y="841" on="1"/>
        <pt x="340" y="1067" on="0"/>
        <pt x="488" y="1214" on="1"/>
        <pt x="647" y="1371" on="0"/>
        <pt x="878" y="1371" on="1"/>
        <pt x="951" y="1371" on="1"/>
        <pt x="951" y="841" on="1"/>
        <pt x="1518" y="841" on="1"/>
        <pt x="1518" y="685" on="1"/>
        <pt x="951" y="685" on="1"/>
        <pt x="951" y="495" on="1"/>
        <pt x="1500" y="495" on="1"/>
        <pt x="1500" y="341" on="1"/>
        <pt x="951" y="341" on="1"/>
        <pt x="951" y="0" on="1"/>
        <pt x="878" y="0" on="1"/>
        <pt x="587" y="0" on="0"/>
        <pt x="438" y="202" on="1"/>
        <pt x="391" y="264" on="0"/>
        <pt x="361" y="341" on="1"/>
        <pt x="148" y="341" on="1"/>
        <pt x="148" y="495" on="1"/>
      </contour>
      <contour>
        <pt x="1120" y="201" on="1"/>
        <pt x="1698" y="201" on="1"/>
        <pt x="1698" y="173" on="1"/>
        <pt x="1698" y="93" on="0"/>
        <pt x="1592" y="46" on="1"/>
        <pt x="1487" y="0" on="0"/>
        <pt x="1308" y="0" on="1"/>
        <pt x="1120" y="0" on="1"/>
      </contour>
    </TTGlyph>
    <TTGlyph name="F" xMin="134" yMin="2" xMax="1400" yMax="1361">
      <contour>
        <pt x="845" y="1361" on="1"/>
        <pt x="1400" y="1361" on="1"/>
        <pt x="1400" y="983" on="1"/>
        <pt x="1296" y="983" on="1"/>
        <pt x="1025" y="983" on="0"/>
        <pt x="926" y="1068" on="1"/>
        <pt x="845" y="1138" on="0"/>
        <pt x="845" y="1294" on="1"/>
      </contour>
      <contour>
        <pt x="134" y="1361" on="1"/>
        <pt x="672" y="1361" on="1"/>
        <pt x="672" y="813" on="1"/>
        <pt x="1073" y="813" on="1"/>
        <pt x="1073" y="552" on="1"/>
        <pt x="672" y="552" on="1"/>
        <pt x="672" y="2" on="1"/>
        <pt x="134" y="2" on="1"/>
      </contour>
    </TTGlyph>
    <TTGlyph name="G" xMin="131" yMin="0" xMax="1403" yMax="1361">
      <contour>
        <pt x="903" y="1361" on="1"/>
        <pt x="1403" y="1361" on="1"/>
        <pt x="1403" y="907" on="1"/>
        <pt x="1203" y="907" on="1"/>
        <pt x="1052" y="907" on="0"/>
        <pt x="970" y="984" on="1"/>
        <pt x="903" y="1047" on="0"/>
        <pt x="903" y="1140" on="1"/>
      </contour>
      <contour>
        <pt x="651" y="0" on="1"/>
        <pt x="489" y="0" on="0"/>
        <pt x="363" y="120" on="1"/>
        <pt x="252" y="226" on="0"/>
        <pt x="189" y="402" on="1"/>
        <pt x="131" y="564" on="0"/>
        <pt x="131" y="723" on="1"/>
        <pt x="131" y="962" on="0"/>
        <pt x="249" y="1148" on="1"/>
        <pt x="333" y="1280" on="0"/>
        <pt x="470" y="1334" on="1"/>
        <pt x="540" y="1361" on="0"/>
        <pt x="626" y="1361" on="1"/>
        <pt x="703" y="1361" on="1"/>
        <pt x="703" y="0" on="1"/>
      </contour>
      <contour>
        <pt x="851" y="636" on="1"/>
        <pt x="1403" y="636" on="1"/>
        <pt x="1403" y="392" on="1"/>
        <pt x="1403" y="178" on="0"/>
        <pt x="1292" y="90" on="1"/>
        <pt x="1180" y="0" on="0"/>
        <pt x="922" y="0" on="1"/>
        <pt x="851" y="0" on="1"/>
      </contour>
    </TTGlyph>
    <TTGlyph name="Gbreve" xMin="131" yMin="0" xMax="1403" yMax="2000">
      <component glyphName="G" x="0" y="0" flags="0x1204"/>
      <component glyphName="breve.cap" x="257" y="0" flags="0x1004"/>
    </TTGlyph>
    <TTGlyph name="Gcircumflex" xMin="131" yMin="0" xMax="1403" yMax="2000">
      <component glyphName="G" x="0" y="0" flags="0x1204"/>
      <component glyphName="circumflex.cap" x="257" y="0" flags="0x1004"/>
    </TTGlyph>
    <TTGlyph name="Gcommaaccent" xMin="131" yMin="-560" xMax="1403" yMax="1361">
      <component glyphName="G" x="0" y="0" flags="0x1204"/>
      <component glyphName="commaaccent" x="258" y="0" flags="0x1004"/>
    </TTGlyph>
    <TTGlyph name="Gdotaccent" xMin="131" yMin="0" xMax="1403" yMax="2000">
      <component glyphName="G" x="0" y="0" flags="0x1204"/>
      <component glyphName="dotaccent.cap" x="257" y="0" flags="0x1004"/>
    </TTGlyph>
    <TTGlyph name="H" xMin="131" yMin="2" xMax="1402" yMax="1361">
      <contour>
        <pt x="131" y="1361" on="1"/>
        <pt x="669" y="1361" on="1"/>
        <pt x="669" y="680" on="1"/>
        <pt x="864" y="680" on="1"/>
        <pt x="864" y="1361" on="1"/>
        <pt x="1402" y="1361" on="1"/>
        <pt x="1402" y="2" on="1"/>
        <pt x="864" y="2" on="1"/>
        <pt x="864" y="529" on="1"/>
        <pt x="669" y="529" on="1"/>
        <pt x="669" y="2" on="1"/>
        <pt x="131" y="2" on="1"/>
      </contour>
    </TTGlyph>
    <TTGlyph name="Hbar" xMin="145" yMin="2" xMax="1725" yMax="1361">
      <contour>
        <pt x="303" y="850" on="1"/>
        <pt x="145" y="850" on="1"/>
        <pt x="145" y="1020" on="1"/>
        <pt x="303" y="1020" on="1"/>
        <pt x="303" y="1361" on="1"/>
        <pt x="841" y="1361" on="1"/>
        <pt x="841" y="1020" on="1"/>
        <pt x="1036" y="1020" on="1"/>
        <pt x="1036" y="1361" on="1"/>
        <pt x="1574" y="1361" on="1"/>
        <pt x="1574" y="1020" on="1"/>
        <pt x="1725" y="1020" on="1"/>
        <pt x="1725" y="850" on="1"/>
        <pt x="1574" y="850" on="1"/>
        <pt x="1574" y="2" on="1"/>
        <pt x="1036" y="2" on="1"/>
        <pt x="1036" y="529" on="1"/>
        <pt x="841" y="529" on="1"/>
        <pt x="841" y="2" on="1"/>
        <pt x="303" y="2" on="1"/>
      </contour>
      <contour>
        <pt x="1036" y="680" on="1"/>
        <pt x="1036" y="850" on="1"/>
        <pt x="841" y="850" on="1"/>
        <pt x="841" y="680" on="1"/>
      </contour>
    </TTGlyph>
    <TTGlyph name="Hcircumflex" xMin="131" yMin="2" xMax="1402" yMax="2000">
      <component glyphName="H" x="0" y="0" flags="0x1204"/>
      <component glyphName="circumflex.cap" x="256" y="0" flags="0x1004"/>
    </TTGlyph>
    <TTGlyph name="I" xMin="159" yMin="0" xMax="697" yMax="1361">
      <contour>
        <pt x="159" y="1361" on="1"/>
        <pt x="697" y="1361" on="1"/>
        <pt x="697" y="0" on="1"/>
        <pt x="159" y="0" on="1"/>
      </contour>
    </TTGlyph>
    <TTGlyph name="IJ" xMin="159" yMin="0" xMax="2285" yMax="1361">
      <component glyphName="I" x="0" y="0" flags="0x1004"/>
      <component glyphName="J" x="856" y="0" flags="0x1004"/>
    </TTGlyph>
    <TTGlyph name="Iacute" xMin="159" yMin="0" xMax="959" yMax="2000">
      <component glyphName="I" x="0" y="0" flags="0x1204"/>
      <component glyphName="acute.cap" x="91" y="0" flags="0x1004"/>
    </TTGlyph>
    <TTGlyph name="Ibreve" xMin="-100" yMin="0" xMax="970" yMax="2000">
      <component glyphName="I" x="0" y="0" flags="0x1204"/>
      <component glyphName="breve.cap" x="-78" y="0" flags="0x1004"/>
    </TTGlyph>
    <TTGlyph name="Icircumflex" xMin="-97" yMin="0" xMax="958" yMax="2000">
      <component glyphName="I" x="0" y="0" flags="0x1204"/>
      <component glyphName="circumflex.cap" x="-78" y="0" flags="0x1004"/>
    </TTGlyph>
    <TTGlyph name="Idieresis" xMin="-103" yMin="0" xMax="973" yMax="2000">
      <component glyphName="I" x="0" y="0" flags="0x1204"/>
      <component glyphName="dieresis.cap" x="-78" y="0" flags="0x1004"/>
    </TTGlyph>
    <TTGlyph name="Idotaccent" xMin="110" yMin="0" xMax="746" yMax="2000">
      <component glyphName="I" x="0" y="0" flags="0x1204"/>
      <component glyphName="dotaccent.cap" x="-78" y="0" flags="0x1004"/>
    </TTGlyph>
    <TTGlyph name="Igrave" xMin="-96" yMin="0" xMax="697" yMax="2000">
      <component glyphName="I" x="0" y="0" flags="0x1204"/>
      <component glyphName="grave.cap" x="-248" y="0" flags="0x1004"/>
    </TTGlyph>
    <TTGlyph name="Imacron" xMin="67" yMin="0" xMax="797" yMax="1870">
      <component glyphName="I" x="0" y="0" flags="0x1204"/>
      <component glyphName="macron.cap" x="-78" y="0" flags="0x1004"/>
    </TTGlyph>
    <TTGlyph name="Iogonek" xMin="137" yMin="-560" xMax="697" yMax="1361">
      <contour>
        <pt x="137" y="-263" on="1"/>
        <pt x="137" y="-93" on="0"/>
        <pt x="252" y="0" on="1"/>
        <pt x="159" y="0" on="1"/>
        <pt x="159" y="1361" on="1"/>
        <pt x="697" y="1361" on="1"/>
        <pt x="697" y="0" on="1"/>
        <pt x="442" y="0" on="1"/>
        <pt x="442" y="-28" on="1"/>
        <pt x="442" y="-140" on="0"/>
        <pt x="486" y="-208" on="0"/>
        <pt x="535" y="-230" on="0"/>
        <pt x="571" y="-230" on="1"/>
        <pt x="697" y="-230" on="1"/>
        <pt x="697" y="-560" on="1"/>
        <pt x="481" y="-560" on="1"/>
        <pt x="340" y="-560" on="0"/>
        <pt x="243" y="-483" on="1"/>
        <pt x="137" y="-399" on="0"/>
      </contour>
    </TTGlyph>
    <TTGlyph name="Itilde" xMin="-134" yMin="0" xMax="1001" yMax="2000">
      <component glyphName="I" x="0" y="0" flags="0x1204"/>
      <component glyphName="tilde.cap" x="-78" y="0" flags="0x1004"/>
    </TTGlyph>
    <TTGlyph name="J" xMin="105" yMin="0" xMax="1429" yMax="1361">
      <contour>
        <pt x="876" y="1361" on="1"/>
        <pt x="1429" y="1361" on="1"/>
        <pt x="1429" y="437" on="1"/>
        <pt x="1429" y="216" on="0"/>
        <pt x="1328" y="112" on="1"/>
        <pt x="1217" y="0" on="0"/>
        <pt x="966" y="0" on="1"/>
        <pt x="876" y="0" on="1"/>
      </contour>
      <contour>
        <pt x="105" y="467" on="1"/>
        <pt x="710" y="467" on="1"/>
        <pt x="710" y="0" on="1"/>
        <pt x="645" y="0" on="1"/>
        <pt x="358" y="0" on="0"/>
        <pt x="232" y="92" on="1"/>
        <pt x="105" y="183" on="0"/>
        <pt x="105" y="395" on="1"/>
      </contour>
    </TTGlyph>
    <TTGlyph name="Jcircumflex" xMin="105" yMin="0" xMax="1683" yMax="2000">
      <component glyphName="J" x="0" y="0" flags="0x1204"/>
      <component glyphName="circumflex.cap" x="647" y="0" flags="0x1004"/>
    </TTGlyph>
    <TTGlyph name="K" xMin="109" yMin="0" xMax="1425" yMax="1361">
      <contour>
        <pt x="109" y="1361" on="1"/>
        <pt x="647" y="1361" on="1"/>
        <pt x="647" y="2" on="1"/>
        <pt x="109" y="2" on="1"/>
      </contour>
      <contour>
        <pt x="813" y="991" on="1"/>
        <pt x="813" y="1212" on="0"/>
        <pt x="925" y="1288" on="1"/>
        <pt x="1031" y="1359" on="0"/>
        <pt x="1324" y="1359" on="1"/>
        <pt x="1425" y="1359" on="1"/>
        <pt x="1425" y="1170" on="1"/>
        <pt x="1425" y="944" on="0"/>
        <pt x="1310" y="848" on="1"/>
        <pt x="1193" y="752" on="0"/>
        <pt x="907" y="752" on="1"/>
        <pt x="813" y="752" on="1"/>
      </contour>
      <contour>
        <pt x="813" y="648" on="1"/>
        <pt x="907" y="648" on="1"/>
        <pt x="1189" y="648" on="0"/>
        <pt x="1310" y="536" on="1"/>
        <pt x="1425" y="429" on="0"/>
        <pt x="1425" y="198" on="1"/>
        <pt x="1425" y="0" on="1"/>
        <pt x="1324" y="0" on="1"/>
        <pt x="1037" y="0" on="0"/>
        <pt x="925" y="86" on="1"/>
        <pt x="813" y="173" on="0"/>
        <pt x="813" y="398" on="1"/>
      </contour>
    </TTGlyph>
    <TTGlyph name="Kcommaaccent" xMin="109" yMin="-560" xMax="1425" yMax="1361">
      <component glyphName="K" x="0" y="0" flags="0x1204"/>
      <component glyphName="commaaccent" x="258" y="0" flags="0x1004"/>
    </TTGlyph>
    <TTGlyph name="L" xMin="134" yMin="0" xMax="1400" yMax="1361">
      <contour>
        <pt x="134" y="1361" on="1"/>
        <pt x="672" y="1361" on="1"/>
        <pt x="672" y="2" on="1"/>
        <pt x="134" y="2" on="1"/>
      </contour>
      <contour>
        <pt x="844" y="97" on="1"/>
        <pt x="844" y="304" on="0"/>
        <pt x="1084" y="378" on="1"/>
        <pt x="1176" y="406" on="0"/>
        <pt x="1321" y="406" on="1"/>
        <pt x="1400" y="406" on="1"/>
        <pt x="1400" y="0" on="1"/>
        <pt x="844" y="0" on="1"/>
      </contour>
    </TTGlyph>
    <TTGlyph name="Lacute" xMin="134" yMin="0" xMax="1400" yMax="2000">
      <contour>
        <pt x="577" y="1521" on="0"/>
        <pt x="420" y="1446" on="0"/>
        <pt x="360" y="1446" on="1"/>
        <pt x="251" y="1446" on="0"/>
        <pt x="199" y="1498" on="1"/>
        <pt x="154" y="1543" on="1"/>
        <pt x="683" y="2000" on="1"/>
        <pt x="869" y="1813" on="1"/>
        <pt x="649" y="1593" on="1"/>
      </contour>
      <contour>
        <pt x="134" y="1361" on="1"/>
        <pt x="672" y="1361" on="1"/>
        <pt x="672" y="2" on="1"/>
        <pt x="134" y="2" on="1"/>
      </contour>
      <contour>
        <pt x="844" y="97" on="1"/>
        <pt x="844" y="304" on="0"/>
        <pt x="1084" y="378" on="1"/>
        <pt x="1176" y="406" on="0"/>
        <pt x="1321" y="406" on="1"/>
        <pt x="1400" y="406" on="1"/>
        <pt x="1400" y="0" on="1"/>
        <pt x="844" y="0" on="1"/>
      </contour>
    </TTGlyph>
    <TTGlyph name="Lcaron" xMin="303" yMin="0" xMax="1569" yMax="1586">
      <contour>
        <pt x="993" y="1586" on="1"/>
        <pt x="1385" y="1586" on="1"/>
        <pt x="1385" y="1329" on="1"/>
        <pt x="1385" y="1216" on="0"/>
        <pt x="1364" y="1066" on="0"/>
        <pt x="1295" y="975" on="0"/>
        <pt x="1165" y="937" on="0"/>
        <pt x="1056" y="937" on="1"/>
        <pt x="993" y="937" on="1"/>
      </contour>
      <contour>
        <pt x="303" y="1361" on="1"/>
        <pt x="841" y="1361" on="1"/>
        <pt x="841" y="2" on="1"/>
        <pt x="303" y="2" on="1"/>
      </contour>
      <contour>
        <pt x="1013" y="97" on="1"/>
        <pt x="1013" y="304" on="0"/>
        <pt x="1252" y="378" on="1"/>
        <pt x="1345" y="406" on="0"/>
        <pt x="1490" y="406" on="1"/>
        <pt x="1569" y="406" on="1"/>
        <pt x="1569" y="0" on="1"/>
        <pt x="1013" y="0" on="1"/>
      </contour>
    </TTGlyph>
    <TTGlyph name="Lcommaaccent" xMin="134" yMin="-560" xMax="1400" yMax="1361">
      <component glyphName="L" x="0" y="0" flags="0x1204"/>
      <component glyphName="commaaccent" x="258" y="0" flags="0x1004"/>
    </TTGlyph>
    <TTGlyph name="Ldot" xMin="134" yMin="0" xMax="1400" yMax="1361">
      <contour>
        <pt x="1085" y="646" on="1"/>
        <pt x="754" y="646" on="0"/>
        <pt x="754" y="853" on="1"/>
        <pt x="754" y="959" on="0"/>
        <pt x="912" y="1052" on="0"/>
        <pt x="1236" y="1052" on="0"/>
        <pt x="1390" y="959" on="0"/>
        <pt x="1390" y="746" on="0"/>
        <pt x="1247" y="646" on="0"/>
      </contour>
      <contour>
        <pt x="134" y="1361" on="1"/>
        <pt x="672" y="1361" on="1"/>
        <pt x="672" y="2" on="1"/>
        <pt x="134" y="2" on="1"/>
      </contour>
      <contour>
        <pt x="844" y="97" on="1"/>
        <pt x="844" y="304" on="0"/>
        <pt x="1084" y="378" on="1"/>
        <pt x="1176" y="406" on="0"/>
        <pt x="1321" y="406" on="1"/>
        <pt x="1400" y="406" on="1"/>
        <pt x="1400" y="0" on="1"/>
        <pt x="844" y="0" on="1"/>
      </contour>
    </TTGlyph>
    <TTGlyph name="Lslash" xMin="-25" yMin="0" xMax="1400" yMax="1361">
      <contour>
        <pt x="134" y="468" on="1"/>
        <pt x="-25" y="407" on="1"/>
        <pt x="-25" y="612" on="1"/>
        <pt x="150" y="679" on="1"/>
        <pt x="134" y="679" on="1"/>
        <pt x="134" y="1361" on="1"/>
        <pt x="672" y="1361" on="1"/>
        <pt x="672" y="882" on="1"/>
        <pt x="672" y="882" on="0"/>
        <pt x="1135" y="1061" on="1"/>
        <pt x="1135" y="856" on="1"/>
        <pt x="656" y="670" on="1"/>
        <pt x="672" y="670" on="1"/>
        <pt x="672" y="2" on="1"/>
        <pt x="134" y="2" on="1"/>
      </contour>
      <contour>
        <pt x="844" y="97" on="1"/>
        <pt x="844" y="304" on="0"/>
        <pt x="1084" y="378" on="1"/>
        <pt x="1176" y="406" on="0"/>
        <pt x="1321" y="406" on="1"/>
        <pt x="1400" y="406" on="1"/>
        <pt x="1400" y="0" on="1"/>
        <pt x="844" y="0" on="1"/>
      </contour>
    </TTGlyph>
    <TTGlyph name="M" xMin="170" yMin="0" xMax="2209" yMax="1362">
      <contour>
        <pt x="1656" y="1362" on="1"/>
        <pt x="1746" y="1362" on="1"/>
        <pt x="2114" y="1362" on="0"/>
        <pt x="2186" y="1112" on="1"/>
        <pt x="2209" y="1031" on="0"/>
        <pt x="2209" y="925" on="1"/>
        <pt x="2209" y="0" on="1"/>
        <pt x="1656" y="0" on="1"/>
      </contour>
      <contour>
        <pt x="914" y="1362" on="1"/>
        <pt x="1470" y="1362" on="1"/>
        <pt x="1470" y="0" on="1"/>
        <pt x="914" y="0" on="1"/>
      </contour>
      <contour>
        <pt x="170" y="1362" on="1"/>
        <pt x="726" y="1362" on="1"/>
        <pt x="726" y="0" on="1"/>
        <pt x="170" y="0" on="1"/>
      </contour>
    </TTGlyph>
    <TTGlyph name="N" xMin="127" yMin="0" xMax="1406" yMax="1361">
      <contour>
        <pt x="853" y="1361" on="1"/>
        <pt x="943" y="1361" on="1"/>
        <pt x="1311" y="1361" on="0"/>
        <pt x="1382" y="1112" on="1"/>
        <pt x="1406" y="1030" on="0"/>
        <pt x="1406" y="924" on="1"/>
        <pt x="1406" y="0" on="1"/>
        <pt x="853" y="0" on="1"/>
      </contour>
      <contour>
        <pt x="127" y="1361" on="1"/>
        <pt x="665" y="1361" on="1"/>
        <pt x="665" y="0" on="1"/>
        <pt x="127" y="0" on="1"/>
      </contour>
    </TTGlyph>
    <TTGlyph name="Nacute" xMin="127" yMin="0" xMax="1406" yMax="2000">
      <component glyphName="N" x="0" y="0" flags="0x1204"/>
      <component glyphName="acute.cap" x="421" y="0" flags="0x1004"/>
    </TTGlyph>
    <TTGlyph name="Ncaron" xMin="127" yMin="0" xMax="1406" yMax="2000">
      <component glyphName="N" x="0" y="0" flags="0x1204"/>
      <component glyphName="caron.cap" x="251" y="0" flags="0x1004"/>
    </TTGlyph>
    <TTGlyph name="Ncommaaccent" xMin="127" yMin="-560" xMax="1406" yMax="1361">
      <component glyphName="N" x="0" y="0" flags="0x1204"/>
      <component glyphName="commaaccent" x="258" y="0" flags="0x1004"/>
    </TTGlyph>
    <TTGlyph name="Ntilde" xMin="127" yMin="0" xMax="1406" yMax="2000">
      <component glyphName="N" x="0" y="0" flags="0x1204"/>
      <component glyphName="tilde.cap" x="251" y="0" flags="0x1004"/>
    </TTGlyph>
    <TTGlyph name="O" xMin="69" yMin="0" xMax="1464" yMax="1361">
      <contour>
        <pt x="848" y="1361" on="1"/>
        <pt x="926" y="1361" on="1"/>
        <pt x="1297" y="1361" on="0"/>
        <pt x="1416" y="1030" on="1"/>
        <pt x="1464" y="894" on="0"/>
        <pt x="1464" y="717" on="1"/>
        <pt x="1464" y="419" on="0"/>
        <pt x="1349" y="226" on="1"/>
        <pt x="1213" y="0" on="0"/>
        <pt x="926" y="0" on="1"/>
        <pt x="848" y="0" on="1"/>
      </contour>
      <contour>
        <pt x="607" y="0" on="1"/>
        <pt x="238" y="0" on="0"/>
        <pt x="118" y="374" on="1"/>
        <pt x="69" y="526" on="0"/>
        <pt x="69" y="717" on="1"/>
        <pt x="69" y="1106" on="0"/>
        <pt x="285" y="1266" on="1"/>
        <pt x="412" y="1361" on="0"/>
        <pt x="607" y="1361" on="1"/>
        <pt x="685" y="1361" on="1"/>
        <pt x="685" y="0" on="1"/>
      </contour>
    </TTGlyph>
    <TTGlyph name="OE" xMin="70" yMin="0" xMax="2116" yMax="1361">
      <contour>
        <pt x="1561" y="1361" on="1"/>
        <pt x="2116" y="1361" on="1"/>
        <pt x="2116" y="983" on="1"/>
        <pt x="2012" y="983" on="1"/>
        <pt x="1741" y="983" on="0"/>
        <pt x="1642" y="1068" on="1"/>
        <pt x="1561" y="1138" on="0"/>
        <pt x="1561" y="1294" on="1"/>
      </contour>
      <contour>
        <pt x="850" y="1361" on="1"/>
        <pt x="1388" y="1361" on="1"/>
        <pt x="1388" y="813" on="1"/>
        <pt x="1789" y="813" on="1"/>
        <pt x="1789" y="552" on="1"/>
        <pt x="1388" y="552" on="1"/>
        <pt x="1388" y="2" on="1"/>
        <pt x="850" y="2" on="1"/>
      </contour>
      <contour>
        <pt x="608" y="0" on="1"/>
        <pt x="239" y="0" on="0"/>
        <pt x="118" y="374" on="1"/>
        <pt x="70" y="526" on="0"/>
        <pt x="70" y="717" on="1"/>
        <pt x="70" y="1106" on="0"/>
        <pt x="286" y="1266" on="1"/>
        <pt x="413" y="1361" on="0"/>
        <pt x="608" y="1361" on="1"/>
        <pt x="686" y="1361" on="1"/>
        <pt x="686" y="0" on="1"/>
      </contour>
      <contour>
        <pt x="1560" y="97" on="1"/>
        <pt x="1560" y="304" on="0"/>
        <pt x="1800" y="378" on="1"/>
        <pt x="1892" y="406" on="0"/>
        <pt x="2037" y="406" on="1"/>
        <pt x="2116" y="406" on="1"/>
        <pt x="2116" y="0" on="1"/>
        <pt x="1560" y="0" on="1"/>
      </contour>
    </TTGlyph>
    <TTGlyph name="Oacute" xMin="69" yMin="0" xMax="1464" yMax="2000">
      <component glyphName="O" x="0" y="0" flags="0x1204"/>
      <component glyphName="acute.cap" x="431" y="0" flags="0x1004"/>
    </TTGlyph>
    <TTGlyph name="Obreve" xMin="69" yMin="0" xMax="1464" yMax="2000">
      <component glyphName="O" x="0" y="0" flags="0x1204"/>
      <component glyphName="breve.cap" x="261" y="0" flags="0x1004"/>
    </TTGlyph>
    <TTGlyph name="Ocircumflex" xMin="69" yMin="0" xMax="1464" yMax="2000">
      <component glyphName="O" x="0" y="0" flags="0x1204"/>
      <component glyphName="circumflex.cap" x="261" y="0" flags="0x1004"/>
    </TTGlyph>
    <TTGlyph name="Odieresis" xMin="69" yMin="0" xMax="1464" yMax="2000">
      <component glyphName="O" x="0" y="0" flags="0x1204"/>
      <component glyphName="dieresis.cap" x="261" y="0" flags="0x1004"/>
    </TTGlyph>
    <TTGlyph name="Ograve" xMin="69" yMin="0" xMax="1464" yMax="2000">
      <component glyphName="O" x="0" y="0" flags="0x1204"/>
      <component glyphName="grave.cap" x="91" y="0" flags="0x1004"/>
    </TTGlyph>
    <TTGlyph name="Ohungarumlaut" xMin="69" yMin="0" xMax="1639" yMax="2000">
      <component glyphName="O" x="0" y="0" flags="0x1204"/>
      <component glyphName="hungarumlaut.cap" x="261" y="0" flags="0x1004"/>
    </TTGlyph>
    <TTGlyph name="Omacron" xMin="69" yMin="0" xMax="1464" yMax="1870">
      <component glyphName="O" x="0" y="0" flags="0x1204"/>
      <component glyphName="macron.cap" x="261" y="0" flags="0x1004"/>
    </TTGlyph>
    <TTGlyph name="Omega" xMin="225" yMin="0" xMax="1987" yMax="1361">
      <contour>
        <pt x="1666" y="305" on="1"/>
        <pt x="1800" y="339" on="0"/>
        <pt x="1872" y="339" on="1"/>
        <pt x="1987" y="339" on="1"/>
        <pt x="1987" y="0" on="1"/>
        <pt x="1187" y="0" on="1"/>
        <pt x="1187" y="1361" on="1"/>
        <pt x="1265" y="1361" on="1"/>
        <pt x="1565" y="1361" on="0"/>
        <pt x="1733" y="1208" on="1"/>
        <pt x="1895" y="1060" on="0"/>
        <pt x="1895" y="800" on="1"/>
        <pt x="1895" y="525" on="0"/>
        <pt x="1756" y="388" on="1"/>
        <pt x="1714" y="346" on="0"/>
      </contour>
      <contour>
        <pt x="225" y="339" on="1"/>
        <pt x="340" y="339" on="1"/>
        <pt x="422" y="339" on="0"/>
        <pt x="542" y="306" on="1"/>
        <pt x="428" y="401" on="0"/>
        <pt x="389" y="470" on="1"/>
        <pt x="315" y="601" on="0"/>
        <pt x="315" y="800" on="1"/>
        <pt x="315" y="1061" on="0"/>
        <pt x="478" y="1208" on="1"/>
        <pt x="646" y="1361" on="0"/>
        <pt x="946" y="1361" on="1"/>
        <pt x="1024" y="1361" on="1"/>
        <pt x="1024" y="0" on="1"/>
        <pt x="225" y="0" on="1"/>
      </contour>
    </TTGlyph>
    <TTGlyph name="Oslash" xMin="16" yMin="-190" xMax="1516" yMax="1550">
      <contour>
        <pt x="1331" y="1187" on="1"/>
        <pt x="1464" y="1013" on="0"/>
        <pt x="1464" y="717" on="1"/>
        <pt x="1464" y="419" on="0"/>
        <pt x="1349" y="226" on="1"/>
        <pt x="1213" y="0" on="0"/>
        <pt x="926" y="0" on="1"/>
        <pt x="848" y="0" on="1"/>
        <pt x="848" y="1361" on="1"/>
        <pt x="926" y="1361" on="1"/>
        <pt x="1061" y="1361" on="0"/>
        <pt x="1160" y="1318" on="1"/>
        <pt x="1358" y="1550" on="1"/>
        <pt x="1516" y="1393" on="1"/>
        <pt x="1330" y="1187" on="1"/>
      </contour>
      <contour>
        <pt x="607" y="0" on="1"/>
        <pt x="475" y="0" on="0"/>
        <pt x="381" y="45" on="1"/>
        <pt x="172" y="-190" on="1"/>
        <pt x="16" y="-34" on="1"/>
        <pt x="214" y="182" on="1"/>
        <pt x="212" y="182" on="1"/>
        <pt x="69" y="376" on="0"/>
        <pt x="69" y="717" on="1"/>
        <pt x="69" y="1106" on="0"/>
        <pt x="285" y="1266" on="1"/>
        <pt x="412" y="1361" on="0"/>
        <pt x="607" y="1361" on="1"/>
        <pt x="685" y="1361" on="1"/>
        <pt x="685" y="0" on="1"/>
      </contour>
    </TTGlyph>
    <TTGlyph name="Otilde" xMin="69" yMin="0" xMax="1464" yMax="2000">
      <component glyphName="O" x="0" y="0" flags="0x1204"/>
      <component glyphName="tilde.cap" x="261" y="0" flags="0x1004"/>
    </TTGlyph>
    <TTGlyph name="P" xMin="81" yMin="2" xMax="1452" yMax="1361">
      <contour>
        <pt x="799" y="1361" on="1"/>
        <pt x="873" y="1361" on="1"/>
        <pt x="1170" y="1361" on="0"/>
        <pt x="1317" y="1218" on="1"/>
        <pt x="1452" y="1087" on="0"/>
        <pt x="1452" y="847" on="1"/>
        <pt x="1452" y="634" on="0"/>
        <pt x="1312" y="504" on="1"/>
        <pt x="1163" y="366" on="0"/>
        <pt x="901" y="366" on="1"/>
        <pt x="799" y="366" on="1"/>
      </contour>
      <contour>
        <pt x="81" y="1361" on="1"/>
        <pt x="619" y="1361" on="1"/>
        <pt x="619" y="2" on="1"/>
        <pt x="81" y="2" on="1"/>
      </contour>
    </TTGlyph>
    <TTGlyph name="Q" xMin="69" yMin="-510" xMax="1464" yMax="1361">
      <contour>
        <pt x="848" y="1361" on="1"/>
        <pt x="926" y="1361" on="1"/>
        <pt x="1297" y="1361" on="0"/>
        <pt x="1416" y="1030" on="1"/>
        <pt x="1464" y="894" on="0"/>
        <pt x="1464" y="717" on="1"/>
        <pt x="1464" y="419" on="0"/>
        <pt x="1349" y="226" on="1"/>
        <pt x="1213" y="0" on="0"/>
        <pt x="926" y="0" on="1"/>
        <pt x="848" y="0" on="1"/>
      </contour>
      <contour>
        <pt x="607" y="0" on="1"/>
        <pt x="238" y="0" on="0"/>
        <pt x="118" y="374" on="1"/>
        <pt x="69" y="526" on="0"/>
        <pt x="69" y="717" on="1"/>
        <pt x="69" y="1106" on="0"/>
        <pt x="285" y="1266" on="1"/>
        <pt x="412" y="1361" on="0"/>
        <pt x="607" y="1361" on="1"/>
        <pt x="685" y="1361" on="1"/>
        <pt x="685" y="0" on="1"/>
      </contour>
      <contour>
        <pt x="1284" y="-170" on="1"/>
        <pt x="1284" y="-510" on="1"/>
        <pt x="1096" y="-510" on="1"/>
        <pt x="793" y="-510" on="0"/>
        <pt x="706" y="-350" on="1"/>
        <pt x="679" y="-300" on="0"/>
        <pt x="679" y="-236" on="1"/>
        <pt x="679" y="-170" on="1"/>
      </contour>
    </TTGlyph>
    <TTGlyph name="R" xMin="117" yMin="0" xMax="1417" yMax="1363">
      <contour>
        <pt x="1393" y="938" on="1"/>
        <pt x="1393" y="636" on="0"/>
        <pt x="1129" y="541" on="1"/>
        <pt x="1277" y="486" on="0"/>
        <pt x="1352" y="362" on="1"/>
        <pt x="1417" y="252" on="0"/>
        <pt x="1417" y="106" on="1"/>
        <pt x="1417" y="0" on="1"/>
        <pt x="821" y="0" on="1"/>
        <pt x="821" y="1363" on="1"/>
        <pt x="873" y="1363" on="1"/>
        <pt x="1137" y="1363" on="0"/>
        <pt x="1262" y="1263" on="1"/>
        <pt x="1393" y="1158" on="0"/>
      </contour>
      <contour>
        <pt x="117" y="1361" on="1"/>
        <pt x="655" y="1361" on="1"/>
        <pt x="655" y="0" on="1"/>
        <pt x="117" y="0" on="1"/>
      </contour>
    </TTGlyph>
    <TTGlyph name="Racute" xMin="117" yMin="0" xMax="1417" yMax="2000">
      <component glyphName="R" x="0" y="0" flags="0x1204"/>
      <component glyphName="acute.cap" x="400" y="0" flags="0x1004"/>
    </TTGlyph>
    <TTGlyph name="Rcaron" xMin="117" yMin="0" xMax="1417" yMax="2000">
      <component glyphName="R" x="0" y="0" flags="0x1204"/>
      <component glyphName="caron.cap" x="230" y="0" flags="0x1004"/>
    </TTGlyph>
    <TTGlyph name="Rcommaaccent" xMin="117" yMin="-560" xMax="1417" yMax="1363">
      <component glyphName="R" x="0" y="0" flags="0x1204"/>
      <component glyphName="commaaccent" x="230" y="0" flags="0x1004"/>
    </TTGlyph>
    <TTGlyph name="S" xMin="129" yMin="0" xMax="1405" yMax="1361">
      <contour>
        <pt x="788" y="1361" on="1"/>
        <pt x="1405" y="1361" on="1"/>
        <pt x="1405" y="676" on="1"/>
      </contour>
      <contour>
        <pt x="135" y="959" on="1"/>
        <pt x="129" y="959" on="1"/>
        <pt x="129" y="1165" on="0"/>
        <pt x="353" y="1361" on="0"/>
        <pt x="586" y="1361" on="1"/>
        <pt x="1405" y="367" on="1"/>
        <pt x="1405" y="169" on="0"/>
        <pt x="1298" y="84" on="1"/>
        <pt x="1194" y="1" on="0"/>
        <pt x="958" y="1" on="1"/>
      </contour>
      <contour>
        <pt x="132" y="689" on="1"/>
        <pt x="726" y="0" on="1"/>
        <pt x="132" y="0" on="1"/>
      </contour>
    </TTGlyph>
    <TTGlyph name="Sacute" xMin="129" yMin="0" xMax="1405" yMax="2000">
      <component glyphName="S" x="0" y="0" flags="0x1204"/>
      <component glyphName="acute.cap" x="427" y="0" flags="0x1004"/>
    </TTGlyph>
    <TTGlyph name="Scaron" xMin="129" yMin="0" xMax="1405" yMax="2000">
      <component glyphName="S" x="0" y="0" flags="0x1204"/>
      <component glyphName="caron.cap" x="257" y="0" flags="0x1004"/>
    </TTGlyph>
    <TTGlyph name="Scedilla" xMin="129" yMin="-556" xMax="1405" yMax="1361">
      <component glyphName="S" x="0" y="0" flags="0x1204"/>
      <component glyphName="cedilla" x="89" y="0" flags="0x1004"/>
    </TTGlyph>
    <TTGlyph name="Scircumflex" xMin="129" yMin="0" xMax="1405" yMax="2000">
      <component glyphName="S" x="0" y="0" flags="0x1204"/>
      <component glyphName="circumflex.cap" x="257" y="0" flags="0x1004"/>
    </TTGlyph>
    <TTGlyph name="Scommaaccent" xMin="129" yMin="-560" xMax="1405" yMax="1361">
      <component glyphName="S" x="0" y="0" flags="0x1204"/>
      <component glyphName="commaaccent" x="258" y="0" flags="0x1004"/>
    </TTGlyph>
    <TTGlyph name="T" xMin="109" yMin="0" xMax="1764" yMax="1361">
      <contour>
        <pt x="1316" y="1361" on="1"/>
        <pt x="1764" y="1361" on="1"/>
        <pt x="1764" y="796" on="1"/>
        <pt x="1652" y="796" on="1"/>
        <pt x="1542" y="796" on="0"/>
        <pt x="1438" y="843" on="0"/>
        <pt x="1379" y="902" on="0"/>
        <pt x="1358" y="950" on="1"/>
        <pt x="1316" y="1048" on="0"/>
        <pt x="1316" y="1222" on="1"/>
      </contour>
      <contour>
        <pt x="669" y="1361" on="1"/>
        <pt x="1207" y="1361" on="1"/>
        <pt x="1207" y="0" on="1"/>
        <pt x="669" y="0" on="1"/>
      </contour>
      <contour>
        <pt x="109" y="1361" on="1"/>
        <pt x="557" y="1361" on="1"/>
        <pt x="557" y="1222" on="1"/>
        <pt x="557" y="965" on="0"/>
        <pt x="464" y="872" on="1"/>
        <pt x="388" y="796" on="0"/>
        <pt x="221" y="796" on="1"/>
        <pt x="109" y="796" on="1"/>
      </contour>
    </TTGlyph>
    <TTGlyph name="Tbar" xMin="109" yMin="0" xMax="1764" yMax="1361">
      <contour>
        <pt x="1316" y="1361" on="1"/>
        <pt x="1764" y="1361" on="1"/>
        <pt x="1764" y="796" on="1"/>
        <pt x="1652" y="796" on="1"/>
        <pt x="1542" y="796" on="0"/>
        <pt x="1438" y="843" on="0"/>
        <pt x="1379" y="902" on="0"/>
        <pt x="1358" y="950" on="1"/>
        <pt x="1316" y="1048" on="0"/>
        <pt x="1316" y="1222" on="1"/>
      </contour>
      <contour>
        <pt x="313" y="678" on="1"/>
        <pt x="669" y="678" on="1"/>
        <pt x="669" y="1361" on="1"/>
        <pt x="1207" y="1361" on="1"/>
        <pt x="1207" y="678" on="1"/>
        <pt x="1553" y="678" on="1"/>
        <pt x="1553" y="508" on="1"/>
        <pt x="1207" y="508" on="1"/>
        <pt x="1207" y="0" on="1"/>
        <pt x="669" y="0" on="1"/>
        <pt x="669" y="508" on="1"/>
        <pt x="313" y="508" on="1"/>
      </contour>
      <contour>
        <pt x="109" y="1361" on="1"/>
        <pt x="557" y="1361" on="1"/>
        <pt x="557" y="1222" on="1"/>
        <pt x="557" y="965" on="0"/>
        <pt x="464" y="872" on="1"/>
        <pt x="388" y="796" on="0"/>
        <pt x="221" y="796" on="1"/>
        <pt x="109" y="796" on="1"/>
      </contour>
    </TTGlyph>
    <TTGlyph name="Tcaron" xMin="109" yMin="0" xMax="1764" yMax="2000">
      <component glyphName="T" x="0" y="0" flags="0x1204"/>
      <component glyphName="caron.cap" x="426" y="0" flags="0x1004"/>
    </TTGlyph>
    <TTGlyph name="Tcommaaccent" xMin="109" yMin="-560" xMax="1764" yMax="1361">
      <component glyphName="T" x="0" y="0" flags="0x1204"/>
      <component glyphName="commaaccent" x="428" y="0" flags="0x1004"/>
    </TTGlyph>
    <TTGlyph name="Thorn" xMin="133" yMin="2" xMax="1504" yMax="1361">
      <contour>
        <pt x="133" y="1361" on="1"/>
        <pt x="671" y="1361" on="1"/>
        <pt x="671" y="2" on="1"/>
        <pt x="133" y="2" on="1"/>
      </contour>
      <contour>
        <pt x="851" y="1104" on="1"/>
        <pt x="925" y="1104" on="1"/>
        <pt x="1372" y="1104" on="0"/>
        <pt x="1472" y="857" on="1"/>
        <pt x="1504" y="776" on="0"/>
        <pt x="1504" y="670" on="1"/>
        <pt x="1504" y="464" on="0"/>
        <pt x="1227" y="249" on="0"/>
        <pt x="953" y="249" on="1"/>
        <pt x="851" y="249" on="1"/>
      </contour>
    </TTGlyph>
    <TTGlyph name="U" xMin="130" yMin="0" xMax="1404" yMax="1362">
      <contour>
        <pt x="848" y="1362" on="1"/>
        <pt x="1404" y="1362" on="1"/>
        <pt x="1404" y="0" on="1"/>
        <pt x="848" y="0" on="1"/>
      </contour>
      <contour>
        <pt x="130" y="1362" on="1"/>
        <pt x="683" y="1362" on="1"/>
        <pt x="683" y="0" on="1"/>
        <pt x="593" y="0" on="1"/>
        <pt x="225" y="0" on="0"/>
        <pt x="154" y="250" on="1"/>
        <pt x="130" y="331" on="0"/>
        <pt x="130" y="437" on="1"/>
      </contour>
    </TTGlyph>
    <TTGlyph name="Uacute" xMin="130" yMin="0" xMax="1404" yMax="2000">
      <component glyphName="U" x="0" y="0" flags="0x1204"/>
      <component glyphName="acute.cap" x="430" y="0" flags="0x1004"/>
    </TTGlyph>
    <TTGlyph name="Ubreve" xMin="130" yMin="0" xMax="1404" yMax="2000">
      <component glyphName="U" x="0" y="0" flags="0x1204"/>
      <component glyphName="breve.cap" x="260" y="0" flags="0x1004"/>
    </TTGlyph>
    <TTGlyph name="Ucircumflex" xMin="130" yMin="0" xMax="1404" yMax="2000">
      <component glyphName="U" x="0" y="0" flags="0x1204"/>
      <component glyphName="circumflex.cap" x="260" y="0" flags="0x1004"/>
    </TTGlyph>
    <TTGlyph name="Udieresis" xMin="130" yMin="0" xMax="1404" yMax="2000">
      <component glyphName="U" x="0" y="0" flags="0x1204"/>
      <component glyphName="dieresis.cap" x="260" y="0" flags="0x1004"/>
    </TTGlyph>
    <TTGlyph name="Ugrave" xMin="130" yMin="0" xMax="1404" yMax="2000">
      <component glyphName="U" x="0" y="0" flags="0x1204"/>
      <component glyphName="grave.cap" x="90" y="0" flags="0x1004"/>
    </TTGlyph>
    <TTGlyph name="Uhungarumlaut" xMin="130" yMin="0" xMax="1638" yMax="2000">
      <component glyphName="U" x="0" y="0" flags="0x1204"/>
      <component glyphName="hungarumlaut.cap" x="260" y="0" flags="0x1004"/>
    </TTGlyph>
    <TTGlyph name="Umacron" xMin="130" yMin="0" xMax="1404" yMax="1870">
      <component glyphName="U" x="0" y="0" flags="0x1204"/>
      <component glyphName="macron.cap" x="260" y="0" flags="0x1004"/>
    </TTGlyph>
    <TTGlyph name="Uogonek" xMin="130" yMin="-560" xMax="1404" yMax="1362">
      <contour>
        <pt x="844" y="-263" on="1"/>
        <pt x="844" y="-93" on="0"/>
        <pt x="959" y="0" on="1"/>
        <pt x="848" y="0" on="1"/>
        <pt x="848" y="1362" on="1"/>
        <pt x="1404" y="1362" on="1"/>
        <pt x="1404" y="0" on="1"/>
        <pt x="1149" y="0" on="1"/>
        <pt x="1149" y="-28" on="1"/>
        <pt x="1149" y="-140" on="0"/>
        <pt x="1193" y="-208" on="0"/>
        <pt x="1242" y="-230" on="0"/>
        <pt x="1278" y="-230" on="1"/>
        <pt x="1404" y="-230" on="1"/>
        <pt x="1404" y="-560" on="1"/>
        <pt x="1188" y="-560" on="1"/>
        <pt x="1047" y="-560" on="0"/>
        <pt x="950" y="-483" on="1"/>
        <pt x="844" y="-399" on="0"/>
      </contour>
      <contour>
        <pt x="130" y="1362" on="1"/>
        <pt x="683" y="1362" on="1"/>
        <pt x="683" y="0" on="1"/>
        <pt x="593" y="0" on="1"/>
        <pt x="225" y="0" on="0"/>
        <pt x="154" y="250" on="1"/>
        <pt x="130" y="331" on="0"/>
        <pt x="130" y="437" on="1"/>
      </contour>
    </TTGlyph>
    <TTGlyph name="Uring" xMin="130" yMin="0" xMax="1404" yMax="2000">
      <component glyphName="U" x="0" y="0" flags="0x1204"/>
      <component glyphName="ring.cap" x="260" y="0" flags="0x1004"/>
    </TTGlyph>
    <TTGlyph name="Utilde" xMin="130" yMin="0" xMax="1404" yMax="2000">
      <component glyphName="U" x="0" y="0" flags="0x1204"/>
      <component glyphName="tilde.cap" x="260" y="0" flags="0x1004"/>
    </TTGlyph>
    <TTGlyph name="V" xMin="130" yMin="0" xMax="1404" yMax="1361">
      <contour>
        <pt x="854" y="937" on="1"/>
        <pt x="854" y="1161" on="0"/>
        <pt x="968" y="1260" on="1"/>
        <pt x="1085" y="1361" on="0"/>
        <pt x="1343" y="1361" on="1"/>
        <pt x="1404" y="1361" on="1"/>
        <pt x="1404" y="642" on="1"/>
        <pt x="1404" y="177" on="0"/>
        <pt x="1138" y="46" on="1"/>
        <pt x="1045" y="0" on="0"/>
        <pt x="915" y="0" on="1"/>
        <pt x="854" y="0" on="1"/>
      </contour>
      <contour>
        <pt x="618" y="0" on="1"/>
        <pt x="367" y="0" on="0"/>
        <pt x="244" y="175" on="1"/>
        <pt x="130" y="337" on="0"/>
        <pt x="130" y="642" on="1"/>
        <pt x="130" y="1361" on="1"/>
        <pt x="191" y="1361" on="1"/>
        <pt x="449" y="1361" on="0"/>
        <pt x="566" y="1260" on="1"/>
        <pt x="680" y="1161" on="0"/>
        <pt x="680" y="937" on="1"/>
        <pt x="680" y="0" on="1"/>
      </contour>
    </TTGlyph>
    <TTGlyph name="W" xMin="176" yMin="-1" xMax="2213" yMax="1363">
      <contour>
        <pt x="1660" y="1363" on="1"/>
        <pt x="2213" y="1363" on="1"/>
        <pt x="2213" y="437" on="1"/>
        <pt x="2213" y="216" on="0"/>
        <pt x="2112" y="112" on="1"/>
        <pt x="2001" y="0" on="0"/>
        <pt x="1749" y="0" on="1"/>
        <pt x="1660" y="0" on="1"/>
      </contour>
      <contour>
        <pt x="176" y="1363" on="1"/>
        <pt x="729" y="1363" on="1"/>
        <pt x="729" y="0" on="1"/>
        <pt x="640" y="0" on="1"/>
        <pt x="271" y="0" on="0"/>
        <pt x="200" y="250" on="1"/>
        <pt x="176" y="331" on="0"/>
        <pt x="176" y="437" on="1"/>
      </contour>
      <contour>
        <pt x="917" y="1362" on="1"/>
        <pt x="1473" y="1362" on="1"/>
        <pt x="1473" y="-1" on="1"/>
        <pt x="917" y="-1" on="1"/>
      </contour>
    </TTGlyph>
    <TTGlyph name="Wacute" xMin="176" yMin="-1" xMax="2213" yMax="2000">
      <component glyphName="W" x="0" y="0" flags="0x1204"/>
      <component glyphName="acute.cap" x="854" y="0" flags="0x1004"/>
    </TTGlyph>
    <TTGlyph name="Wcircumflex" xMin="176" yMin="-1" xMax="2213" yMax="2000">
      <component glyphName="W" x="0" y="0" flags="0x1204"/>
      <component glyphName="circumflex.cap" x="684" y="0" flags="0x1004"/>
    </TTGlyph>
    <TTGlyph name="Wdieresis" xMin="176" yMin="-1" xMax="2213" yMax="2000">
      <component glyphName="W" x="0" y="0" flags="0x1204"/>
      <component glyphName="dieresis.cap" x="684" y="0" flags="0x1004"/>
    </TTGlyph>
    <TTGlyph name="Wgrave" xMin="176" yMin="-1" xMax="2213" yMax="2000">
      <component glyphName="W" x="0" y="0" flags="0x1204"/>
      <component glyphName="grave.cap" x="514" y="0" flags="0x1004"/>
    </TTGlyph>
    <TTGlyph name="X" xMin="129" yMin="0" xMax="1404" yMax="1361">
      <contour>
        <pt x="211" y="877" on="1"/>
        <pt x="129" y="996" on="0"/>
        <pt x="129" y="1216" on="1"/>
        <pt x="129" y="1361" on="1"/>
        <pt x="523" y="1361" on="1"/>
        <pt x="1267" y="546" on="1"/>
        <pt x="1330" y="476" on="0"/>
        <pt x="1372" y="380" on="0"/>
        <pt x="1382" y="340" on="1"/>
        <pt x="1404" y="260" on="0"/>
        <pt x="1404" y="143" on="1"/>
        <pt x="1404" y="0" on="1"/>
        <pt x="1021" y="0" on="1"/>
        <pt x="214" y="877" on="1"/>
      </contour>
      <contour>
        <pt x="971" y="934" on="1"/>
        <pt x="971" y="1209" on="0"/>
        <pt x="1056" y="1292" on="1"/>
        <pt x="1101" y="1336" on="0"/>
        <pt x="1246" y="1361" on="0"/>
        <pt x="1350" y="1361" on="1"/>
        <pt x="1404" y="1361" on="1"/>
        <pt x="1404" y="1203" on="1"/>
        <pt x="1404" y="990" on="0"/>
        <pt x="1292" y="918" on="1"/>
        <pt x="1212" y="866" on="0"/>
        <pt x="1023" y="866" on="1"/>
        <pt x="971" y="866" on="1"/>
      </contour>
      <contour>
        <pt x="129" y="156" on="1"/>
        <pt x="129" y="369" on="0"/>
        <pt x="241" y="442" on="1"/>
        <pt x="321" y="493" on="0"/>
        <pt x="510" y="493" on="1"/>
        <pt x="562" y="493" on="1"/>
        <pt x="562" y="425" on="1"/>
        <pt x="562" y="147" on="0"/>
        <pt x="477" y="68" on="1"/>
        <pt x="419" y="14" on="0"/>
        <pt x="308" y="4" on="1"/>
        <pt x="252" y="0" on="0"/>
        <pt x="183" y="0" on="1"/>
        <pt x="129" y="0" on="1"/>
      </contour>
    </TTGlyph>
    <TTGlyph name="Y" xMin="130" yMin="-510" xMax="1404" yMax="1361">
      <contour>
        <pt x="1404" y="-37" on="1"/>
        <pt x="1404" y="-510" on="0"/>
        <pt x="929" y="-510" on="1"/>
        <pt x="867" y="-510" on="1"/>
        <pt x="867" y="1361" on="1"/>
        <pt x="1404" y="1361" on="1"/>
      </contour>
      <contour>
        <pt x="130" y="1361" on="1"/>
        <pt x="683" y="1361" on="1"/>
        <pt x="683" y="0" on="1"/>
        <pt x="593" y="0" on="1"/>
        <pt x="225" y="0" on="0"/>
        <pt x="154" y="250" on="1"/>
        <pt x="130" y="331" on="0"/>
        <pt x="130" y="437" on="1"/>
      </contour>
    </TTGlyph>
    <TTGlyph name="Yacute" xMin="130" yMin="-510" xMax="1404" yMax="2000">
      <component glyphName="Y" x="0" y="0" flags="0x1204"/>
      <component glyphName="acute.cap" x="441" y="0" flags="0x1004"/>
    </TTGlyph>
    <TTGlyph name="Ycircumflex" xMin="130" yMin="-510" xMax="1404" yMax="2000">
      <component glyphName="Y" x="0" y="0" flags="0x1204"/>
      <component glyphName="circumflex.cap" x="271" y="0" flags="0x1004"/>
    </TTGlyph>
    <TTGlyph name="Ydieresis" xMin="130" yMin="-510" xMax="1404" yMax="2000">
      <component glyphName="Y" x="0" y="0" flags="0x1204"/>
      <component glyphName="dieresis.cap" x="271" y="0" flags="0x1004"/>
    </TTGlyph>
    <TTGlyph name="Ygrave" xMin="130" yMin="-510" xMax="1404" yMax="2000">
      <component glyphName="Y" x="0" y="0" flags="0x1204"/>
      <component glyphName="grave.cap" x="101" y="0" flags="0x1004"/>
    </TTGlyph>
    <TTGlyph name="Z" xMin="102" yMin="0" xMax="1432" yMax="1361">
      <contour>
        <pt x="102" y="263" on="1"/>
        <pt x="102" y="354" on="0"/>
        <pt x="178" y="457" on="1"/>
        <pt x="219" y="511" on="1"/>
        <pt x="941" y="1361" on="1"/>
        <pt x="1431" y="1361" on="1"/>
        <pt x="1431" y="1073" on="1"/>
        <pt x="1431" y="964" on="0"/>
        <pt x="1310" y="814" on="1"/>
        <pt x="574" y="0" on="1"/>
        <pt x="102" y="0" on="1"/>
      </contour>
      <contour>
        <pt x="102" y="1185" on="1"/>
        <pt x="102" y="1314" on="0"/>
        <pt x="134" y="1361" on="1"/>
        <pt x="746" y="1361" on="1"/>
        <pt x="232" y="814" on="1"/>
        <pt x="202" y="814" on="1"/>
        <pt x="102" y="872" on="0"/>
      </contour>
      <contour>
        <pt x="1431" y="177" on="1"/>
        <pt x="1431" y="46" on="0"/>
        <pt x="1401" y="0" on="1"/>
        <pt x="798" y="0" on="1"/>
        <pt x="1332" y="578" on="1"/>
        <pt x="1415" y="531" on="0"/>
        <pt x="1428" y="354" on="1"/>
        <pt x="1432" y="299" on="0"/>
        <pt x="1432" y="238" on="1"/>
      </contour>
    </TTGlyph>
    <TTGlyph name="Zacute" xMin="102" yMin="0" xMax="1432" yMax="2000">
      <component glyphName="Z" x="0" y="0" flags="0x1204"/>
      <component glyphName="acute.cap" x="427" y="0" flags="0x1004"/>
    </TTGlyph>
    <TTGlyph name="Zcaron" xMin="102" yMin="0" xMax="1432" yMax="2000">
      <component glyphName="Z" x="0" y="0" flags="0x1204"/>
      <component glyphName="caron.cap" x="257" y="0" flags="0x1004"/>
    </TTGlyph>
    <TTGlyph name="Zdotaccent" xMin="102" yMin="0" xMax="1432" yMax="2000">
      <component glyphName="Z" x="0" y="0" flags="0x1204"/>
      <component glyphName="dotaccent.cap" x="257" y="0" flags="0x1004"/>
    </TTGlyph>
    <TTGlyph name="a" xMin="130" yMin="0" xMax="1404" yMax="1020">
      <contour>
        <pt x="852" y="1020" on="1"/>
        <pt x="1404" y="1020" on="1"/>
        <pt x="1404" y="0" on="1"/>
        <pt x="1341" y="0" on="1"/>
        <pt x="1081" y="0" on="0"/>
        <pt x="967" y="91" on="1"/>
        <pt x="852" y="183" on="0"/>
        <pt x="852" y="395" on="1"/>
      </contour>
      <contour>
        <pt x="130" y="498" on="1"/>
        <pt x="130" y="608" on="0"/>
        <pt x="188" y="797" on="0"/>
        <pt x="249" y="868" on="1"/>
        <pt x="381" y="1020" on="0"/>
        <pt x="627" y="1020" on="1"/>
        <pt x="704" y="1020" on="1"/>
        <pt x="704" y="0" on="1"/>
        <pt x="652" y="0" on="1"/>
        <pt x="400" y="0" on="0"/>
        <pt x="262" y="138" on="1"/>
        <pt x="130" y="270" on="0"/>
      </contour>
    </TTGlyph>
    <TTGlyph name="aacute" xMin="130" yMin="0" xMax="1404" yMax="1886">
      <component glyphName="a" x="0" y="0" flags="0x1204"/>
      <component glyphName="acute" x="435" y="0" flags="0x1004"/>
    </TTGlyph>
    <TTGlyph name="abreve" xMin="130" yMin="0" xMax="1404" yMax="1699">
      <component glyphName="a" x="0" y="0" flags="0x1204"/>
      <component glyphName="breve" x="95" y="0" flags="0x1004"/>
    </TTGlyph>
    <TTGlyph name="acircumflex" xMin="130" yMin="0" xMax="1404" yMax="1884">
      <component glyphName="a" x="0" y="0" flags="0x1204"/>
      <component glyphName="circumflex" x="95" y="0" flags="0x1004"/>
    </TTGlyph>
    <TTGlyph name="acute" xMin="153" yMin="1332" xMax="868" yMax="1886">
      <contour>
        <pt x="576" y="1407" on="0"/>
        <pt x="419" y="1332" on="0"/>
        <pt x="360" y="1332" on="1"/>
        <pt x="252" y="1332" on="0"/>
        <pt x="198" y="1384" on="1"/>
        <pt x="153" y="1429" on="1"/>
        <pt x="682" y="1886" on="1"/>
        <pt x="868" y="1699" on="1"/>
        <pt x="648" y="1479" on="1"/>
      </contour>
    </TTGlyph>
    <TTGlyph name="acute.cap" xMin="153" yMin="1446" xMax="868" yMax="2000">
      <contour>
        <pt x="576" y="1521" on="0"/>
        <pt x="419" y="1446" on="0"/>
        <pt x="360" y="1446" on="1"/>
        <pt x="250" y="1446" on="0"/>
        <pt x="198" y="1498" on="1"/>
        <pt x="153" y="1543" on="1"/>
        <pt x="682" y="2000" on="1"/>
        <pt x="868" y="1813" on="1"/>
        <pt x="648" y="1593" on="1"/>
      </contour>
    </TTGlyph>
    <TTGlyph name="adieresis" xMin="130" yMin="0" xMax="1404" yMax="1706">
      <component glyphName="a" x="0" y="0" flags="0x1204"/>
      <component glyphName="dieresis" x="95" y="0" flags="0x1004"/>
    </TTGlyph>
    <TTGlyph name="ae" xMin="130" yMin="0" xMax="2107" yMax="1020">
      <contour>
        <pt x="1553" y="1020" on="1"/>
        <pt x="1619" y="1020" on="1"/>
        <pt x="1997" y="1020" on="0"/>
        <pt x="2080" y="764" on="1"/>
        <pt x="2107" y="679" on="0"/>
        <pt x="2107" y="567" on="1"/>
        <pt x="2107" y="457" on="1"/>
        <pt x="1553" y="457" on="1"/>
      </contour>
      <contour>
        <pt x="852" y="1020" on="1"/>
        <pt x="1404" y="1020" on="1"/>
        <pt x="1404" y="0" on="1"/>
        <pt x="1341" y="0" on="1"/>
        <pt x="1081" y="0" on="0"/>
        <pt x="967" y="91" on="1"/>
        <pt x="852" y="183" on="0"/>
        <pt x="852" y="395" on="1"/>
      </contour>
      <contour>
        <pt x="130" y="498" on="1"/>
        <pt x="130" y="608" on="0"/>
        <pt x="188" y="797" on="0"/>
        <pt x="249" y="868" on="1"/>
        <pt x="381" y="1020" on="0"/>
        <pt x="627" y="1020" on="1"/>
        <pt x="704" y="1020" on="1"/>
        <pt x="704" y="0" on="1"/>
        <pt x="652" y="0" on="1"/>
        <pt x="400" y="0" on="0"/>
        <pt x="262" y="138" on="1"/>
        <pt x="130" y="270" on="0"/>
      </contour>
      <contour>
        <pt x="1553" y="261" on="1"/>
        <pt x="2053" y="261" on="1"/>
        <pt x="2053" y="233" on="1"/>
        <pt x="2053" y="140" on="0"/>
        <pt x="1986" y="76" on="1"/>
        <pt x="1904" y="0" on="0"/>
        <pt x="1753" y="0" on="1"/>
        <pt x="1553" y="0" on="1"/>
      </contour>
    </TTGlyph>
    <TTGlyph name="aeacute" xMin="130" yMin="0" xMax="2107" yMax="1717">
      <component glyphName="ae" x="0" y="0" flags="0x1204"/>
      <component glyphName="acute" x="766" y="-169" flags="0x1004"/>
    </TTGlyph>
    <TTGlyph name="agrave" xMin="130" yMin="0" xMax="1404" yMax="1886">
      <component glyphName="a" x="0" y="0" flags="0x1204"/>
      <component glyphName="grave" x="95" y="0" flags="0x1004"/>
    </TTGlyph>
    <TTGlyph name="amacron" xMin="130" yMin="0" xMax="1404" yMax="1587">
      <component glyphName="a" x="0" y="0" flags="0x1204"/>
      <component glyphName="macron" x="265" y="170" flags="0x1004"/>
    </TTGlyph>
    <TTGlyph name="ampersand" xMin="78" yMin="0" xMax="1435" yMax="1361">
      <contour>
        <pt x="822" y="680" on="1"/>
        <pt x="822" y="1361" on="1"/>
        <pt x="899" y="1361" on="1"/>
        <pt x="1120" y="1361" on="0"/>
        <pt x="1257" y="1255" on="1"/>
        <pt x="1385" y="1156" on="0"/>
        <pt x="1385" y="1020" on="1"/>
        <pt x="1385" y="884" on="0"/>
        <pt x="1254" y="787" on="1"/>
        <pt x="1109" y="680" on="0"/>
        <pt x="874" y="680" on="1"/>
        <pt x="917" y="680" on="1"/>
        <pt x="1061" y="680" on="0"/>
        <pt x="1259" y="658" on="0"/>
        <pt x="1381" y="587" on="0"/>
        <pt x="1435" y="452" on="0"/>
        <pt x="1435" y="340" on="1"/>
        <pt x="1435" y="0" on="1"/>
        <pt x="1334" y="0" on="1"/>
        <pt x="1047" y="0" on="0"/>
        <pt x="935" y="86" on="1"/>
        <pt x="823" y="173" on="0"/>
        <pt x="823" y="398" on="1"/>
      </contour>
      <contour>
        <pt x="295" y="767" on="1"/>
        <pt x="120" y="854" on="0"/>
        <pt x="120" y="1019" on="1"/>
        <pt x="120" y="1164" on="0"/>
        <pt x="228" y="1255" on="1"/>
        <pt x="352" y="1361" on="0"/>
        <pt x="595" y="1361" on="1"/>
        <pt x="672" y="1361" on="1"/>
        <pt x="672" y="0" on="1"/>
        <pt x="595" y="0" on="1"/>
        <pt x="342" y="0" on="0"/>
        <pt x="208" y="117" on="1"/>
        <pt x="78" y="229" on="0"/>
        <pt x="78" y="427" on="1"/>
        <pt x="78" y="667" on="0"/>
      </contour>
    </TTGlyph>
    <TTGlyph name="aogonek" xMin="130" yMin="-560" xMax="1404" yMax="1020">
      <contour>
        <pt x="1341" y="0" on="1"/>
        <pt x="1226" y="0" on="0"/>
        <pt x="1149" y="15" on="1"/>
        <pt x="1149" y="-28" on="1"/>
        <pt x="1149" y="-140" on="0"/>
        <pt x="1193" y="-208" on="0"/>
        <pt x="1242" y="-230" on="0"/>
        <pt x="1278" y="-230" on="1"/>
        <pt x="1404" y="-230" on="1"/>
        <pt x="1404" y="-560" on="1"/>
        <pt x="1188" y="-560" on="1"/>
        <pt x="1047" y="-560" on="0"/>
        <pt x="950" y="-483" on="1"/>
        <pt x="844" y="-399" on="0"/>
        <pt x="844" y="-263" on="1"/>
        <pt x="844" y="-82" on="0"/>
        <pt x="969" y="5" on="1"/>
        <pt x="1008" y="32" on="0"/>
        <pt x="1056" y="44" on="1"/>
        <pt x="1052" y="44" on="1"/>
        <pt x="948" y="90" on="0"/>
        <pt x="852" y="260" on="0"/>
        <pt x="852" y="395" on="1"/>
        <pt x="852" y="1020" on="1"/>
        <pt x="1404" y="1020" on="1"/>
        <pt x="1404" y="0" on="1"/>
      </contour>
      <contour>
        <pt x="130" y="498" on="1"/>
        <pt x="130" y="608" on="0"/>
        <pt x="188" y="797" on="0"/>
        <pt x="249" y="868" on="1"/>
        <pt x="381" y="1020" on="0"/>
        <pt x="627" y="1020" on="1"/>
        <pt x="704" y="1020" on="1"/>
        <pt x="704" y="0" on="1"/>
        <pt x="652" y="0" on="1"/>
        <pt x="400" y="0" on="0"/>
        <pt x="262" y="138" on="1"/>
        <pt x="130" y="270" on="0"/>
      </contour>
    </TTGlyph>
    <TTGlyph name="approxequal" xMin="137" yMin="52" xMax="1357" yMax="1190">
      <contour>
        <pt x="137" y="869" on="1"/>
        <pt x="137" y="1004" on="0"/>
        <pt x="219" y="1094" on="1"/>
        <pt x="306" y="1190" on="0"/>
        <pt x="452" y="1190" on="1"/>
        <pt x="603" y="1190" on="1"/>
        <pt x="723" y="1190" on="0"/>
        <pt x="817" y="1112" on="1"/>
        <pt x="907" y="1038" on="0"/>
        <pt x="932" y="931" on="1"/>
        <pt x="957" y="1038" on="0"/>
        <pt x="1047" y="1112" on="1"/>
        <pt x="1141" y="1190" on="0"/>
        <pt x="1261" y="1190" on="1"/>
        <pt x="1322" y="1190" on="1"/>
        <pt x="1322" y="1053" on="1"/>
        <pt x="1322" y="918" on="0"/>
        <pt x="1240" y="828" on="1"/>
        <pt x="1153" y="732" on="0"/>
        <pt x="1007" y="732" on="1"/>
        <pt x="857" y="732" on="1"/>
        <pt x="735" y="732" on="0"/>
        <pt x="642" y="810" on="1"/>
        <pt x="553" y="885" on="0"/>
        <pt x="528" y="992" on="1"/>
        <pt x="503" y="884" on="0"/>
        <pt x="414" y="810" on="1"/>
        <pt x="319" y="732" on="0"/>
        <pt x="198" y="732" on="1"/>
        <pt x="137" y="732" on="1"/>
      </contour>
      <contour>
        <pt x="172" y="189" on="1"/>
        <pt x="172" y="324" on="0"/>
        <pt x="254" y="414" on="1"/>
        <pt x="341" y="510" on="0"/>
        <pt x="487" y="510" on="1"/>
        <pt x="638" y="510" on="1"/>
        <pt x="758" y="510" on="0"/>
        <pt x="852" y="432" on="1"/>
        <pt x="942" y="358" on="0"/>
        <pt x="967" y="251" on="1"/>
        <pt x="992" y="358" on="0"/>
        <pt x="1082" y="432" on="1"/>
        <pt x="1176" y="510" on="0"/>
        <pt x="1296" y="510" on="1"/>
        <pt x="1357" y="510" on="1"/>
        <pt x="1357" y="373" on="1"/>
        <pt x="1357" y="238" on="0"/>
        <pt x="1275" y="148" on="1"/>
        <pt x="1188" y="52" on="0"/>
        <pt x="1042" y="52" on="1"/>
        <pt x="892" y="52" on="1"/>
        <pt x="770" y="52" on="0"/>
        <pt x="677" y="130" on="1"/>
        <pt x="588" y="205" on="0"/>
        <pt x="563" y="312" on="1"/>
        <pt x="538" y="204" on="0"/>
        <pt x="448" y="130" on="1"/>
        <pt x="354" y="52" on="0"/>
        <pt x="233" y="52" on="1"/>
        <pt x="172" y="52" on="1"/>
      </contour>
    </TTGlyph>
    <TTGlyph name="aring" xMin="130" yMin="0" xMax="1404" yMax="1870">
      <component glyphName="a" x="0" y="0" flags="0x1204"/>
      <component glyphName="ring" x="265" y="0" flags="0x1004"/>
    </TTGlyph>
    <TTGlyph name="asciicircum" xMin="200" yMin="512" xMax="1333" yMax="1571">
      <contour>
        <pt x="200" y="607" on="1"/>
        <pt x="759" y="1571" on="1"/>
        <pt x="1333" y="607" on="1"/>
        <pt x="1170" y="512" on="1"/>
        <pt x="758" y="1226" on="1"/>
        <pt x="364" y="512" on="1"/>
      </contour>
    </TTGlyph>
    <TTGlyph name="asciitilde" xMin="112" yMin="392" xMax="1347" yMax="850">
      <contour>
        <pt x="112" y="529" on="1"/>
        <pt x="112" y="664" on="0"/>
        <pt x="200" y="754" on="1"/>
        <pt x="295" y="850" on="0"/>
        <pt x="452" y="850" on="1"/>
        <pt x="603" y="850" on="1"/>
        <pt x="771" y="850" on="0"/>
        <pt x="878" y="732" on="1"/>
        <pt x="911" y="697" on="0"/>
        <pt x="932" y="656" on="1"/>
        <pt x="1001" y="790" on="0"/>
        <pt x="1153" y="835" on="1"/>
        <pt x="1204" y="850" on="0"/>
        <pt x="1261" y="850" on="1"/>
        <pt x="1347" y="850" on="1"/>
        <pt x="1347" y="713" on="1"/>
        <pt x="1347" y="578" on="0"/>
        <pt x="1258" y="488" on="1"/>
        <pt x="1164" y="392" on="0"/>
        <pt x="1007" y="392" on="1"/>
        <pt x="857" y="392" on="1"/>
        <pt x="690" y="392" on="0"/>
        <pt x="582" y="509" on="1"/>
        <pt x="549" y="544" on="0"/>
        <pt x="528" y="585" on="1"/>
        <pt x="460" y="453" on="0"/>
        <pt x="305" y="407" on="1"/>
        <pt x="254" y="392" on="0"/>
        <pt x="198" y="392" on="1"/>
        <pt x="112" y="392" on="1"/>
      </contour>
    </TTGlyph>
    <TTGlyph name="asterisk" xMin="94" yMin="615" xMax="1272" yMax="1734">
      <contour>
        <pt x="224" y="799" on="1"/>
        <pt x="297" y="900" on="1"/>
        <pt x="333" y="948" on="0"/>
        <pt x="387" y="989" on="1"/>
        <pt x="465" y="1047" on="1"/>
        <pt x="521" y="1087" on="0"/>
        <pt x="585" y="1128" on="1"/>
        <pt x="317" y="1121" on="0"/>
        <pt x="215" y="1153" on="1"/>
        <pt x="94" y="1191" on="1"/>
        <pt x="190" y="1491" on="1"/>
        <pt x="313" y="1453" on="1"/>
        <pt x="364" y="1437" on="0"/>
        <pt x="423" y="1395" on="1"/>
        <pt x="506" y="1335" on="1"/>
        <pt x="563" y="1293" on="0"/>
        <pt x="623" y="1243" on="1"/>
        <pt x="524" y="1501" on="0"/>
        <pt x="524" y="1609" on="1"/>
        <pt x="524" y="1734" on="1"/>
        <pt x="840" y="1734" on="1"/>
        <pt x="840" y="1609" on="1"/>
        <pt x="840" y="1552" on="0"/>
        <pt x="820" y="1483" on="1"/>
        <pt x="791" y="1385" on="1"/>
        <pt x="770" y="1316" on="0"/>
        <pt x="743" y="1243" on="1"/>
        <pt x="802" y="1293" on="0"/>
        <pt x="842" y="1323" on="1"/>
        <pt x="910" y="1372" on="1"/>
        <pt x="1005" y="1438" on="0"/>
        <pt x="1054" y="1453" on="1"/>
        <pt x="1174" y="1491" on="1"/>
        <pt x="1272" y="1191" on="1"/>
        <pt x="1152" y="1151" on="1"/>
        <pt x="1052" y="1121" on="0"/>
        <pt x="782" y="1128" on="1"/>
        <pt x="1001" y="990" on="0"/>
        <pt x="1069" y="899" on="1"/>
        <pt x="1143" y="800" on="1"/>
        <pt x="890" y="615" on="1"/>
        <pt x="815" y="719" on="1"/>
        <pt x="684" y="1057" on="1"/>
        <pt x="607" y="789" on="0"/>
        <pt x="552" y="716" on="1"/>
        <pt x="478" y="615" on="1"/>
      </contour>
    </TTGlyph>
    <TTGlyph name="at" xMin="-103" yMin="-506" xMax="1978" yMax="1370">
      <contour>
        <pt x="51" y="-158" on="0"/>
        <pt x="-103" y="209" on="0"/>
        <pt x="-103" y="684" on="0"/>
        <pt x="65" y="1022" on="0"/>
        <pt x="215" y="1136" on="1"/>
        <pt x="521" y="1370" on="0"/>
        <pt x="1024" y="1370" on="1"/>
        <pt x="1515" y="1370" on="0"/>
        <pt x="1758" y="1168" on="1"/>
        <pt x="1978" y="986" on="0"/>
        <pt x="1978" y="655" on="1"/>
        <pt x="1978" y="424" on="0"/>
        <pt x="1876" y="263" on="1"/>
        <pt x="1791" y="130" on="0"/>
        <pt x="1644" y="59" on="1"/>
        <pt x="1451" y="-33" on="0"/>
        <pt x="1212" y="16" on="1"/>
        <pt x="1059" y="47" on="0"/>
        <pt x="1013" y="158" on="1"/>
        <pt x="990" y="214" on="0"/>
        <pt x="990" y="294" on="1"/>
        <pt x="990" y="827" on="1"/>
        <pt x="1453" y="827" on="1"/>
        <pt x="1453" y="188" on="1"/>
        <pt x="1637" y="213" on="0"/>
        <pt x="1710" y="444" on="1"/>
        <pt x="1738" y="530" on="0"/>
        <pt x="1738" y="772" on="0"/>
        <pt x="1660" y="968" on="0"/>
        <pt x="1574" y="1040" on="1"/>
        <pt x="1393" y="1191" on="0"/>
        <pt x="1024" y="1191" on="1"/>
        <pt x="625" y="1191" on="0"/>
        <pt x="388" y="1006" on="1"/>
        <pt x="141" y="812" on="0"/>
        <pt x="141" y="465" on="1"/>
        <pt x="141" y="-148" on="0"/>
        <pt x="634" y="-286" on="1"/>
        <pt x="792" y="-330" on="0"/>
        <pt x="1096" y="-330" on="0"/>
        <pt x="1279" y="-315" on="0"/>
        <pt x="1356" y="-302" on="1"/>
        <pt x="1640" y="-254" on="0"/>
        <pt x="1788" y="-147" on="1"/>
        <pt x="1788" y="-374" on="1"/>
        <pt x="1650" y="-428" on="0"/>
        <pt x="1537" y="-453" on="1"/>
        <pt x="1287" y="-506" on="0"/>
        <pt x="739" y="-506" on="0"/>
        <pt x="336" y="-394" on="0"/>
      </contour>
      <contour>
        <pt x="378" y="430" on="1"/>
        <pt x="378" y="519" on="0"/>
        <pt x="426" y="660" on="0"/>
        <pt x="476" y="712" on="1"/>
        <pt x="587" y="827" on="0"/>
        <pt x="793" y="827" on="1"/>
        <pt x="876" y="827" on="1"/>
        <pt x="876" y="0" on="1"/>
        <pt x="814" y="0" on="1"/>
        <pt x="604" y="0" on="0"/>
        <pt x="488" y="122" on="1"/>
        <pt x="378" y="238" on="0"/>
      </contour>
    </TTGlyph>
    <TTGlyph name="atilde" xMin="130" yMin="0" xMax="1404" yMax="1870">
      <component glyphName="a" x="0" y="0" flags="0x1204"/>
      <component glyphName="tilde" x="95" y="340" flags="0x1004"/>
    </TTGlyph>
    <TTGlyph name="b" xMin="129" yMin="0" xMax="1405" yMax="1530">
      <contour>
        <pt x="129" y="1530" on="1"/>
        <pt x="667" y="1530" on="1"/>
        <pt x="667" y="2" on="1"/>
        <pt x="129" y="2" on="1"/>
      </contour>
      <contour>
        <pt x="833" y="1020" on="1"/>
        <pt x="910" y="1020" on="1"/>
        <pt x="1156" y="1020" on="0"/>
        <pt x="1286" y="868" on="1"/>
        <pt x="1405" y="729" on="0"/>
        <pt x="1405" y="502" on="1"/>
        <pt x="1405" y="271" on="0"/>
        <pt x="1274" y="138" on="1"/>
        <pt x="1138" y="0" on="0"/>
        <pt x="885" y="0" on="1"/>
        <pt x="833" y="0" on="1"/>
      </contour>
    </TTGlyph>
    <TTGlyph name="backslash" xMin="193" yMin="-166" xMax="824" yMax="1521">
      <contour>
        <pt x="193" y="1521" on="1"/>
        <pt x="411" y="1521" on="1"/>
        <pt x="824" y="-166" on="1"/>
        <pt x="606" y="-166" on="1"/>
      </contour>
    </TTGlyph>
    <TTGlyph name="bar" xMin="397" yMin="-170" xMax="625" yMax="1700">
      <contour>
        <pt x="397" y="1700" on="1"/>
        <pt x="625" y="1700" on="1"/>
        <pt x="625" y="-170" on="1"/>
        <pt x="397" y="-170" on="1"/>
      </contour>
    </TTGlyph>
    <TTGlyph name="braceleft" xMin="171" yMin="-349" xMax="1023" yMax="1599">
      <contour>
        <pt x="852" y="-171" on="1"/>
        <pt x="915" y="-171" on="0"/>
        <pt x="1023" y="-154" on="1"/>
        <pt x="1023" y="-343" on="1"/>
        <pt x="1003" y="-344" on="0"/>
        <pt x="957" y="-346" on="0"/>
        <pt x="934" y="-347" on="1"/>
        <pt x="888" y="-349" on="0"/>
        <pt x="737" y="-349" on="0"/>
        <pt x="562" y="-318" on="0"/>
        <pt x="502" y="-282" on="1"/>
        <pt x="382" y="-209" on="0"/>
        <pt x="382" y="-47" on="1"/>
        <pt x="382" y="100" on="0"/>
        <pt x="398" y="179" on="1"/>
        <pt x="419" y="277" on="0"/>
        <pt x="419" y="379" on="1"/>
        <pt x="419" y="397" on="1"/>
        <pt x="419" y="489" on="0"/>
        <pt x="330" y="524" on="1"/>
        <pt x="301" y="535" on="0"/>
        <pt x="266" y="535" on="1"/>
        <pt x="171" y="535" on="1"/>
        <pt x="171" y="712" on="1"/>
        <pt x="266" y="714" on="1"/>
        <pt x="335" y="714" on="0"/>
        <pt x="378" y="755" on="1"/>
        <pt x="419" y="794" on="0"/>
        <pt x="419" y="852" on="1"/>
        <pt x="419" y="870" on="1"/>
        <pt x="419" y="972" on="0"/>
        <pt x="397" y="1076" on="0"/>
        <pt x="389" y="1139" on="0"/>
        <pt x="386" y="1169" on="1"/>
        <pt x="382" y="1223" on="0"/>
        <pt x="382" y="1276" on="1"/>
        <pt x="382" y="1599" on="0"/>
        <pt x="854" y="1599" on="1"/>
        <pt x="892" y="1599" on="0"/>
        <pt x="925" y="1598" on="1"/>
        <pt x="982" y="1595" on="1"/>
        <pt x="1004" y="1594" on="0"/>
        <pt x="1023" y="1593" on="1"/>
        <pt x="1023" y="1403" on="1"/>
        <pt x="908" y="1421" on="0"/>
        <pt x="788" y="1421" on="0"/>
        <pt x="693" y="1404" on="0"/>
        <pt x="656" y="1386" on="1"/>
        <pt x="573" y="1347" on="0"/>
        <pt x="573" y="1282" on="1"/>
        <pt x="573" y="1240" on="1"/>
        <pt x="573" y="1128" on="0"/>
        <pt x="590" y="1042" on="0"/>
        <pt x="597" y="995" on="0"/>
        <pt x="600" y="972" on="1"/>
        <pt x="604" y="932" on="0"/>
        <pt x="604" y="870" on="1"/>
        <pt x="604" y="651" on="0"/>
        <pt x="446" y="632" on="1"/>
        <pt x="446" y="618" on="1"/>
        <pt x="604" y="595" on="0"/>
        <pt x="604" y="379" on="1"/>
        <pt x="604" y="286" on="0"/>
        <pt x="580" y="156" on="0"/>
        <pt x="576" y="90" on="0"/>
        <pt x="573" y="22" on="0"/>
        <pt x="573" y="-8" on="1"/>
        <pt x="573" y="-53" on="1"/>
        <pt x="573" y="-171" on="0"/>
      </contour>
    </TTGlyph>
    <TTGlyph name="braceright" xMin="171" yMin="-349" xMax="1023" yMax="1599">
      <contour>
        <pt x="171" y="-154" on="1"/>
        <pt x="279" y="-171" on="0"/>
        <pt x="405" y="-171" on="0"/>
        <pt x="500" y="-160" on="0"/>
        <pt x="538" y="-146" on="1"/>
        <pt x="621" y="-116" on="0"/>
        <pt x="621" y="-53" on="1"/>
        <pt x="621" y="-8" on="1"/>
        <pt x="621" y="108" on="0"/>
        <pt x="612" y="158" on="1"/>
        <pt x="600" y="231" on="1"/>
        <pt x="590" y="288" on="0"/>
        <pt x="590" y="379" on="1"/>
        <pt x="590" y="596" on="0"/>
        <pt x="748" y="618" on="1"/>
        <pt x="748" y="632" on="1"/>
        <pt x="590" y="651" on="0"/>
        <pt x="590" y="870" on="1"/>
        <pt x="590" y="960" on="0"/>
        <pt x="597" y="1001" on="1"/>
        <pt x="609" y="1070" on="1"/>
        <pt x="621" y="1142" on="0"/>
        <pt x="621" y="1204" on="1"/>
        <pt x="621" y="1282" on="1"/>
        <pt x="621" y="1347" on="0"/>
        <pt x="538" y="1386" on="1"/>
        <pt x="465" y="1421" on="0"/>
        <pt x="286" y="1421" on="0"/>
        <pt x="171" y="1403" on="1"/>
        <pt x="171" y="1593" on="1"/>
        <pt x="190" y="1594" on="0"/>
        <pt x="235" y="1596" on="0"/>
        <pt x="258" y="1597" on="1"/>
        <pt x="302" y="1599" on="0"/>
        <pt x="340" y="1599" on="1"/>
        <pt x="812" y="1599" on="0"/>
        <pt x="812" y="1276" on="1"/>
        <pt x="812" y="1146" on="0"/>
        <pt x="796" y="1068" on="1"/>
        <pt x="775" y="972" on="0"/>
        <pt x="775" y="870" on="1"/>
        <pt x="775" y="852" on="1"/>
        <pt x="775" y="760" on="0"/>
        <pt x="864" y="725" on="1"/>
        <pt x="893" y="714" on="0"/>
        <pt x="928" y="714" on="1"/>
        <pt x="1023" y="712" on="1"/>
        <pt x="1023" y="535" on="1"/>
        <pt x="928" y="535" on="1"/>
        <pt x="859" y="535" on="0"/>
        <pt x="816" y="494" on="1"/>
        <pt x="775" y="455" on="0"/>
        <pt x="775" y="397" on="1"/>
        <pt x="775" y="379" on="1"/>
        <pt x="775" y="277" on="0"/>
        <pt x="797" y="172" on="0"/>
        <pt x="805" y="104" on="0"/>
        <pt x="808" y="70" on="1"/>
        <pt x="812" y="9" on="0"/>
        <pt x="812" y="-131" on="0"/>
        <pt x="751" y="-246" on="0"/>
        <pt x="692" y="-282" on="1"/>
        <pt x="581" y="-349" on="0"/>
        <pt x="344" y="-349" on="1"/>
        <pt x="306" y="-349" on="0"/>
        <pt x="272" y="-348" on="1"/>
        <pt x="214" y="-345" on="1"/>
        <pt x="191" y="-344" on="0"/>
        <pt x="171" y="-343" on="1"/>
      </contour>
    </TTGlyph>
    <TTGlyph name="bracketleft" xMin="340" yMin="-340" xMax="938" yMax="1530">
      <contour>
        <pt x="340" y="1530" on="1"/>
        <pt x="938" y="1530" on="1"/>
        <pt x="938" y="1360" on="1"/>
        <pt x="522" y="1360" on="1"/>
        <pt x="522" y="-170" on="1"/>
        <pt x="938" y="-170" on="1"/>
        <pt x="938" y="-340" on="1"/>
        <pt x="340" y="-340" on="1"/>
      </contour>
    </TTGlyph>
    <TTGlyph name="bracketright" xMin="254" yMin="-340" xMax="852" yMax="1530">
      <contour>
        <pt x="670" y="-170" on="1"/>
        <pt x="670" y="1360" on="1"/>
        <pt x="254" y="1360" on="1"/>
        <pt x="254" y="1530" on="1"/>
        <pt x="852" y="1530" on="1"/>
        <pt x="852" y="-340" on="1"/>
        <pt x="254" y="-340" on="1"/>
        <pt x="254" y="-170" on="1"/>
      </contour>
    </TTGlyph>
    <TTGlyph name="breve" xMin="147" yMin="1281" xMax="1217" yMax="1699">
      <contour>
        <pt x="896" y="1300" on="1"/>
        <pt x="798" y="1281" on="0"/>
        <pt x="569" y="1281" on="0"/>
        <pt x="374" y="1319" on="0"/>
        <pt x="302" y="1362" on="1"/>
        <pt x="147" y="1455" on="0"/>
        <pt x="147" y="1647" on="1"/>
        <pt x="147" y="1699" on="1"/>
        <pt x="442" y="1699" on="1"/>
        <pt x="442" y="1600" on="0"/>
        <pt x="514" y="1550" on="1"/>
        <pt x="575" y="1509" on="0"/>
        <pt x="683" y="1509" on="1"/>
        <pt x="841" y="1509" on="0"/>
        <pt x="883" y="1609" on="1"/>
        <pt x="898" y="1645" on="0"/>
        <pt x="898" y="1699" on="1"/>
        <pt x="1217" y="1699" on="1"/>
        <pt x="1217" y="1672" on="1"/>
        <pt x="1217" y="1362" on="0"/>
      </contour>
    </TTGlyph>
    <TTGlyph name="breve.cap" xMin="-22" yMin="1582" xMax="1048" yMax="2000">
      <contour>
        <pt x="728" y="1601" on="1"/>
        <pt x="629" y="1582" on="0"/>
        <pt x="400" y="1582" on="0"/>
        <pt x="205" y="1620" on="0"/>
        <pt x="133" y="1663" on="1"/>
        <pt x="-22" y="1756" on="0"/>
        <pt x="-22" y="1948" on="1"/>
        <pt x="-22" y="2000" on="1"/>
        <pt x="273" y="2000" on="1"/>
        <pt x="273" y="1901" on="0"/>
        <pt x="345" y="1852" on="1"/>
        <pt x="406" y="1810" on="0"/>
        <pt x="514" y="1810" on="1"/>
        <pt x="672" y="1810" on="0"/>
        <pt x="714" y="1910" on="1"/>
        <pt x="729" y="1946" on="0"/>
        <pt x="729" y="2000" on="1"/>
        <pt x="1048" y="2000" on="1"/>
        <pt x="1048" y="1973" on="1"/>
        <pt x="1048" y="1663" on="0"/>
      </contour>
    </TTGlyph>
    <TTGlyph name="brokenbar" xMin="397" yMin="-170" xMax="625" yMax="1700">
      <contour>
        <pt x="397" y="1700" on="1"/>
        <pt x="625" y="1700" on="1"/>
        <pt x="625" y="1022" on="1"/>
        <pt x="397" y="1022" on="1"/>
      </contour>
      <contour>
        <pt x="397" y="508" on="1"/>
        <pt x="625" y="508" on="1"/>
        <pt x="625" y="-170" on="1"/>
        <pt x="397" y="-170" on="1"/>
      </contour>
    </TTGlyph>
    <TTGlyph name="bullet" xMin="123" yMin="347" xMax="895" yMax="966">
      <contour>
        <pt x="494" y="347" on="1"/>
        <pt x="333" y="347" on="0"/>
        <pt x="229" y="430" on="1"/>
        <pt x="123" y="515" on="0"/>
        <pt x="123" y="657" on="1"/>
        <pt x="123" y="798" on="0"/>
        <pt x="240" y="885" on="1"/>
        <pt x="349" y="966" on="0"/>
        <pt x="517" y="966" on="1"/>
        <pt x="684" y="966" on="0"/>
        <pt x="786" y="885" on="1"/>
        <pt x="895" y="799" on="0"/>
        <pt x="895" y="657" on="1"/>
        <pt x="895" y="517" on="0"/>
        <pt x="774" y="430" on="1"/>
        <pt x="659" y="347" on="0"/>
      </contour>
    </TTGlyph>
    <TTGlyph name="c" xMin="131" yMin="0" xMax="1403" yMax="1020">
      <contour>
        <pt x="851" y="1020" on="1"/>
        <pt x="1403" y="1020" on="1"/>
        <pt x="1403" y="449" on="1"/>
        <pt x="1332" y="449" on="1"/>
        <pt x="1074" y="449" on="0"/>
        <pt x="962" y="538" on="1"/>
        <pt x="851" y="627" on="0"/>
        <pt x="851" y="841" on="1"/>
      </contour>
      <contour>
        <pt x="131" y="498" on="1"/>
        <pt x="131" y="608" on="0"/>
        <pt x="189" y="797" on="0"/>
        <pt x="250" y="868" on="1"/>
        <pt x="380" y="1020" on="0"/>
        <pt x="626" y="1020" on="1"/>
        <pt x="703" y="1020" on="1"/>
        <pt x="703" y="0" on="1"/>
        <pt x="651" y="0" on="1"/>
        <pt x="398" y="0" on="0"/>
        <pt x="262" y="138" on="1"/>
        <pt x="131" y="269" on="0"/>
      </contour>
      <contour>
        <pt x="851" y="261" on="1"/>
        <pt x="1351" y="261" on="1"/>
        <pt x="1351" y="233" on="1"/>
        <pt x="1351" y="140" on="0"/>
        <pt x="1284" y="76" on="1"/>
        <pt x="1202" y="0" on="0"/>
        <pt x="1051" y="0" on="1"/>
        <pt x="851" y="0" on="1"/>
      </contour>
    </TTGlyph>
    <TTGlyph name="cacute" xMin="131" yMin="0" xMax="1415" yMax="1717">
      <component glyphName="c" x="0" y="0" flags="0x1204"/>
      <component glyphName="acute" x="547" y="-169" flags="0x1004"/>
    </TTGlyph>
    <TTGlyph name="caron" xMin="153" yMin="1272" xMax="1207" yMax="1824">
      <contour>
        <pt x="153" y="1727" on="1"/>
        <pt x="198" y="1772" on="1"/>
        <pt x="250" y="1824" on="0"/>
        <pt x="328" y="1824" on="1"/>
        <pt x="473" y="1824" on="0"/>
        <pt x="620" y="1677" on="1"/>
        <pt x="680" y="1616" on="1"/>
        <pt x="737" y="1677" on="1"/>
        <pt x="884" y="1824" on="0"/>
        <pt x="1022" y="1824" on="1"/>
        <pt x="1110" y="1824" on="0"/>
        <pt x="1162" y="1772" on="1"/>
        <pt x="1207" y="1727" on="1"/>
        <pt x="680" y="1272" on="1"/>
      </contour>
    </TTGlyph>
    <TTGlyph name="caron.cap" xMin="-17" yMin="1448" xMax="1037" yMax="2000">
      <contour>
        <pt x="-17" y="1903" on="1"/>
        <pt x="28" y="1948" on="1"/>
        <pt x="80" y="2000" on="0"/>
        <pt x="158" y="2000" on="1"/>
        <pt x="305" y="2000" on="0"/>
        <pt x="450" y="1853" on="1"/>
        <pt x="510" y="1792" on="1"/>
        <pt x="567" y="1853" on="1"/>
        <pt x="714" y="2000" on="0"/>
        <pt x="852" y="2000" on="1"/>
        <pt x="938" y="2000" on="0"/>
        <pt x="991" y="1948" on="1"/>
        <pt x="1037" y="1903" on="1"/>
        <pt x="510" y="1448" on="1"/>
      </contour>
    </TTGlyph>
    <TTGlyph name="ccaron" xMin="131" yMin="0" xMax="1414" yMax="1655">
      <component glyphName="c" x="0" y="0" flags="0x1204"/>
      <component glyphName="caron" x="207" y="-169" flags="0x1004"/>
    </TTGlyph>
    <TTGlyph name="ccedilla" xMin="131" yMin="-556" xMax="1403" yMax="1020">
      <component glyphName="c" x="0" y="0" flags="0x1204"/>
      <component glyphName="cedilla" x="99" y="0" flags="0x1004"/>
    </TTGlyph>
    <TTGlyph name="ccircumflex" xMin="131" yMin="0" xMax="1414" yMax="1715">
      <component glyphName="c" x="0" y="0" flags="0x1204"/>
      <component glyphName="circumflex" x="207" y="-169" flags="0x1004"/>
    </TTGlyph>
    <TTGlyph name="cdotaccent" xMin="131" yMin="0" xMax="1403" yMax="1531">
      <component glyphName="c" x="0" y="0" flags="0x1204"/>
      <component glyphName="dotaccent" x="377" y="-169" flags="0x1004"/>
    </TTGlyph>
    <TTGlyph name="cedilla" xMin="371" yMin="-556" xMax="906" yMax="-9">
      <contour>
        <pt x="412" y="-428" on="1"/>
        <pt x="371" y="-376" on="0"/>
        <pt x="376" y="-334" on="1"/>
        <pt x="388" y="-245" on="0"/>
        <pt x="508" y="-158" on="1"/>
        <pt x="712" y="-9" on="1"/>
        <pt x="906" y="-259" on="1"/>
        <pt x="510" y="-556" on="1"/>
      </contour>
    </TTGlyph>
    <TTGlyph name="cedilla.cap" xMin="371" yMin="-556" xMax="906" yMax="-9">
      <contour>
        <pt x="412" y="-428" on="1"/>
        <pt x="371" y="-376" on="0"/>
        <pt x="376" y="-334" on="1"/>
        <pt x="388" y="-245" on="0"/>
        <pt x="508" y="-158" on="1"/>
        <pt x="712" y="-9" on="1"/>
        <pt x="906" y="-259" on="1"/>
        <pt x="510" y="-556" on="1"/>
      </contour>
    </TTGlyph>
    <TTGlyph name="cent" xMin="219" yMin="-450" xMax="1655" yMax="1463">
      <contour>
        <pt x="972" y="1463" on="1"/>
        <pt x="1237" y="1463" on="1"/>
        <pt x="1201" y="1156" on="1"/>
        <pt x="938" y="1156" on="1"/>
      </contour>
      <contour>
        <pt x="1038" y="1020" on="1"/>
        <pt x="1655" y="1020" on="1"/>
        <pt x="1655" y="449" on="1"/>
        <pt x="1579" y="449" on="1"/>
        <pt x="1292" y="449" on="0"/>
        <pt x="1166" y="538" on="1"/>
        <pt x="1038" y="629" on="0"/>
        <pt x="1038" y="841" on="1"/>
      </contour>
      <contour>
        <pt x="219" y="498" on="1"/>
        <pt x="219" y="608" on="0"/>
        <pt x="292" y="797" on="0"/>
        <pt x="365" y="868" on="1"/>
        <pt x="523" y="1020" on="0"/>
        <pt x="796" y="1020" on="1"/>
        <pt x="871" y="1020" on="1"/>
        <pt x="871" y="0" on="1"/>
        <pt x="796" y="0" on="1"/>
        <pt x="518" y="0" on="0"/>
        <pt x="365" y="138" on="1"/>
        <pt x="219" y="270" on="0"/>
      </contour>
      <contour>
        <pt x="1038" y="261" on="1"/>
        <pt x="1598" y="261" on="1"/>
        <pt x="1598" y="233" on="1"/>
        <pt x="1598" y="146" on="0"/>
        <pt x="1492" y="76" on="1"/>
        <pt x="1377" y="0" on="0"/>
        <pt x="1208" y="0" on="1"/>
        <pt x="1038" y="0" on="1"/>
      </contour>
      <contour>
        <pt x="1041" y="-167" on="1"/>
        <pt x="1008" y="-450" on="1"/>
        <pt x="744" y="-450" on="1"/>
        <pt x="778" y="-167" on="1"/>
      </contour>
    </TTGlyph>
    <TTGlyph name="circumflex" xMin="152" yMin="1332" xMax="1207" yMax="1884">
      <contour>
        <pt x="351" y="1332" on="1"/>
        <pt x="251" y="1332" on="0"/>
        <pt x="197" y="1384" on="1"/>
        <pt x="152" y="1429" on="1"/>
        <pt x="680" y="1884" on="1"/>
        <pt x="1207" y="1429" on="1"/>
        <pt x="1162" y="1384" on="1"/>
        <pt x="1110" y="1332" on="0"/>
        <pt x="1032" y="1332" on="1"/>
        <pt x="885" y="1332" on="0"/>
        <pt x="740" y="1479" on="1"/>
        <pt x="680" y="1540" on="1"/>
        <pt x="652" y="1509" on="1"/>
        <pt x="566" y="1415" on="0"/>
        <pt x="406" y="1332" on="0"/>
      </contour>
    </TTGlyph>
    <TTGlyph name="circumflex.cap" xMin="-19" yMin="1448" xMax="1036" yMax="2000">
      <contour>
        <pt x="180" y="1448" on="1"/>
        <pt x="80" y="1448" on="0"/>
        <pt x="26" y="1500" on="1"/>
        <pt x="-19" y="1545" on="1"/>
        <pt x="509" y="2000" on="1"/>
        <pt x="1036" y="1545" on="1"/>
        <pt x="991" y="1500" on="1"/>
        <pt x="939" y="1448" on="0"/>
        <pt x="862" y="1448" on="1"/>
        <pt x="714" y="1448" on="0"/>
        <pt x="569" y="1595" on="1"/>
        <pt x="509" y="1656" on="1"/>
        <pt x="480" y="1625" on="1"/>
        <pt x="395" y="1531" on="0"/>
        <pt x="235" y="1448" on="0"/>
      </contour>
    </TTGlyph>
    <TTGlyph name="colon" xMin="109" yMin="0" xMax="745" yMax="1094">
      <contour>
        <pt x="440" y="688" on="1"/>
        <pt x="109" y="688" on="0"/>
        <pt x="109" y="895" on="1"/>
        <pt x="109" y="1001" on="0"/>
        <pt x="267" y="1094" on="0"/>
        <pt x="591" y="1094" on="0"/>
        <pt x="745" y="1001" on="0"/>
        <pt x="745" y="788" on="0"/>
        <pt x="602" y="688" on="0"/>
      </contour>
      <contour>
        <pt x="440" y="0" on="1"/>
        <pt x="109" y="0" on="0"/>
        <pt x="109" y="207" on="1"/>
        <pt x="109" y="313" on="0"/>
        <pt x="267" y="406" on="0"/>
        <pt x="591" y="406" on="0"/>
        <pt x="745" y="313" on="0"/>
        <pt x="745" y="100" on="0"/>
        <pt x="602" y="0" on="0"/>
      </contour>
    </TTGlyph>
    <TTGlyph name="comma" xMin="109" yMin="-230" xMax="746" yMax="406">
      <contour>
        <pt x="412" y="0" on="1"/>
        <pt x="109" y="8" on="0"/>
        <pt x="109" y="207" on="1"/>
        <pt x="109" y="313" on="0"/>
        <pt x="267" y="406" on="0"/>
        <pt x="431" y="406" on="1"/>
        <pt x="746" y="406" on="0"/>
        <pt x="746" y="207" on="1"/>
        <pt x="746" y="24" on="1"/>
        <pt x="746" y="-78" on="0"/>
        <pt x="641" y="-156" on="1"/>
        <pt x="540" y="-230" on="0"/>
        <pt x="412" y="-230" on="1"/>
      </contour>
    </TTGlyph>
    <TTGlyph name="commaaccent" xMin="281" yMin="-560" xMax="737" yMax="-149">
      <contour>
        <pt x="737" y="-149" on="1"/>
        <pt x="737" y="-306" on="1"/>
        <pt x="737" y="-471" on="0"/>
        <pt x="552" y="-536" on="1"/>
        <pt x="482" y="-560" on="0"/>
        <pt x="374" y="-560" on="1"/>
        <pt x="281" y="-560" on="1"/>
        <pt x="281" y="-149" on="1"/>
      </contour>
    </TTGlyph>
    <TTGlyph name="commaaccent.cap" xMin="281" yMin="-560" xMax="737" yMax="-149">
      <contour>
        <pt x="737" y="-149" on="1"/>
        <pt x="737" y="-306" on="1"/>
        <pt x="737" y="-471" on="0"/>
        <pt x="552" y="-536" on="1"/>
        <pt x="482" y="-560" on="0"/>
        <pt x="374" y="-560" on="1"/>
        <pt x="281" y="-560" on="1"/>
        <pt x="281" y="-149" on="1"/>
      </contour>
    </TTGlyph>
    <TTGlyph name="copyright" xMin="74" yMin="-339" xMax="2148" yMax="1528">
      <contour>
        <pt x="111" y="314" on="1"/>
        <pt x="74" y="442" on="0"/>
        <pt x="74" y="747" on="0"/>
        <pt x="148" y="1004" on="0"/>
        <pt x="284" y="1211" on="0"/>
        <pt x="473" y="1369" on="0"/>
        <pt x="588" y="1422" on="1"/>
        <pt x="823" y="1528" on="0"/>
        <pt x="1111" y="1528" on="1"/>
        <pt x="1560" y="1528" on="0"/>
        <pt x="1844" y="1290" on="1"/>
        <pt x="2038" y="1128" on="0"/>
        <pt x="2111" y="876" on="1"/>
        <pt x="2148" y="747" on="0"/>
        <pt x="2148" y="595" on="1"/>
        <pt x="2148" y="300" on="0"/>
        <pt x="2006" y="82" on="1"/>
        <pt x="1874" y="-122" on="0"/>
        <pt x="1635" y="-232" on="1"/>
        <pt x="1403" y="-339" on="0"/>
        <pt x="1111" y="-339" on="1"/>
        <pt x="666" y="-339" on="0"/>
        <pt x="378" y="-100" on="1"/>
        <pt x="184" y="61" on="0"/>
      </contour>
      <contour>
        <pt x="280" y="595" on="1"/>
        <pt x="280" y="216" on="0"/>
        <pt x="518" y="0" on="1"/>
        <pt x="743" y="-206" on="0"/>
        <pt x="1111" y="-206" on="1"/>
        <pt x="1480" y="-206" on="0"/>
        <pt x="1706" y="0" on="1"/>
        <pt x="1944" y="217" on="0"/>
        <pt x="1944" y="595" on="1"/>
        <pt x="1944" y="973" on="0"/>
        <pt x="1706" y="1189" on="1"/>
        <pt x="1480" y="1393" on="0"/>
        <pt x="1111" y="1393" on="1"/>
        <pt x="743" y="1393" on="0"/>
        <pt x="518" y="1189" on="1"/>
        <pt x="280" y="974" on="0"/>
      </contour>
      <contour>
        <pt x="1160" y="1020" on="1"/>
        <pt x="1674" y="1020" on="1"/>
        <pt x="1674" y="565" on="1"/>
        <pt x="1608" y="565" on="1"/>
        <pt x="1369" y="565" on="0"/>
        <pt x="1265" y="638" on="1"/>
        <pt x="1160" y="712" on="0"/>
        <pt x="1160" y="885" on="1"/>
      </contour>
      <contour>
        <pt x="489" y="606" on="1"/>
        <pt x="489" y="695" on="0"/>
        <pt x="549" y="846" on="0"/>
        <pt x="609" y="902" on="1"/>
        <pt x="737" y="1020" on="0"/>
        <pt x="966" y="1020" on="1"/>
        <pt x="1032" y="1020" on="1"/>
        <pt x="1032" y="160" on="1"/>
        <pt x="966" y="160" on="1"/>
        <pt x="739" y="160" on="0"/>
        <pt x="609" y="292" on="1"/>
        <pt x="489" y="414" on="0"/>
      </contour>
      <contour>
        <pt x="1160" y="372" on="1"/>
        <pt x="1628" y="372" on="1"/>
        <pt x="1628" y="349" on="1"/>
        <pt x="1628" y="280" on="0"/>
        <pt x="1540" y="222" on="1"/>
        <pt x="1443" y="160" on="0"/>
        <pt x="1303" y="160" on="1"/>
        <pt x="1160" y="160" on="1"/>
      </contour>
    </TTGlyph>
    <TTGlyph name="currency" xMin="224" yMin="57" xMax="1636" yMax="1464">
      <contour>
        <pt x="1321" y="943" on="1"/>
        <pt x="1364" y="853" on="0"/>
        <pt x="1364" y="648" on="0"/>
        <pt x="1327" y="569" on="1"/>
        <pt x="1636" y="261" on="1"/>
        <pt x="1430" y="57" on="1"/>
        <pt x="1115" y="369" on="1"/>
        <pt x="1021" y="329" on="0"/>
        <pt x="815" y="329" on="0"/>
        <pt x="736" y="362" on="1"/>
        <pt x="431" y="57" on="1"/>
        <pt x="224" y="261" on="1"/>
        <pt x="530" y="567" on="1"/>
        <pt x="497" y="645" on="0"/>
        <pt x="497" y="853" on="0"/>
        <pt x="542" y="939" on="1"/>
        <pt x="224" y="1257" on="1"/>
        <pt x="433" y="1464" on="1"/>
        <pt x="768" y="1129" on="1"/>
        <pt x="849" y="1158" on="0"/>
        <pt x="1023" y="1158" on="0"/>
        <pt x="1098" y="1133" on="1"/>
        <pt x="1428" y="1464" on="1"/>
        <pt x="1636" y="1257" on="1"/>
      </contour>
      <contour>
        <pt x="722" y="745" on="1"/>
        <pt x="722" y="663" on="0"/>
        <pt x="781" y="606" on="1"/>
        <pt x="839" y="549" on="0"/>
        <pt x="923" y="549" on="1"/>
        <pt x="1013" y="549" on="0"/>
        <pt x="1076" y="606" on="1"/>
        <pt x="1139" y="663" on="0"/>
        <pt x="1139" y="745" on="1"/>
        <pt x="1139" y="826" on="0"/>
        <pt x="1078" y="884" on="1"/>
        <pt x="1018" y="940" on="0"/>
        <pt x="933" y="940" on="1"/>
        <pt x="846" y="940" on="0"/>
        <pt x="722" y="827" on="0"/>
      </contour>
    </TTGlyph>
    <TTGlyph name="d" xMin="130" yMin="0" xMax="1404" yMax="1531">
      <contour>
        <pt x="871" y="1531" on="1"/>
        <pt x="1404" y="1531" on="1"/>
        <pt x="1404" y="0" on="1"/>
        <pt x="871" y="0" on="1"/>
      </contour>
      <contour>
        <pt x="130" y="498" on="1"/>
        <pt x="130" y="608" on="0"/>
        <pt x="188" y="797" on="0"/>
        <pt x="249" y="868" on="1"/>
        <pt x="381" y="1020" on="0"/>
        <pt x="627" y="1020" on="1"/>
        <pt x="704" y="1020" on="1"/>
        <pt x="704" y="0" on="1"/>
        <pt x="652" y="0" on="1"/>
        <pt x="400" y="0" on="0"/>
        <pt x="262" y="138" on="1"/>
        <pt x="130" y="270" on="0"/>
      </contour>
    </TTGlyph>
    <TTGlyph name="dagger" xMin="89" yMin="-540" xMax="1259" yMax="1700">
      <contour>
        <pt x="412" y="828" on="1"/>
        <pt x="89" y="828" on="1"/>
        <pt x="89" y="1019" on="1"/>
        <pt x="412" y="1019" on="1"/>
        <pt x="412" y="1700" on="1"/>
        <pt x="950" y="1700" on="1"/>
        <pt x="950" y="1019" on="1"/>
        <pt x="1259" y="1019" on="1"/>
        <pt x="1259" y="828" on="1"/>
        <pt x="950" y="828" on="1"/>
        <pt x="950" y="-37" on="1"/>
        <pt x="950" y="-279" on="0"/>
        <pt x="850" y="-401" on="1"/>
        <pt x="736" y="-540" on="0"/>
        <pt x="489" y="-540" on="1"/>
        <pt x="412" y="-540" on="1"/>
      </contour>
    </TTGlyph>
    <TTGlyph name="daggerdbl" xMin="89" yMin="-540" xMax="1259" yMax="1700">
      <contour>
        <pt x="89" y="508" on="1"/>
        <pt x="412" y="508" on="1"/>
        <pt x="412" y="828" on="1"/>
        <pt x="89" y="828" on="1"/>
        <pt x="89" y="1019" on="1"/>
        <pt x="412" y="1019" on="1"/>
        <pt x="412" y="1700" on="1"/>
        <pt x="950" y="1700" on="1"/>
        <pt x="950" y="1019" on="1"/>
        <pt x="1259" y="1019" on="1"/>
        <pt x="1259" y="828" on="1"/>
        <pt x="950" y="828" on="1"/>
        <pt x="950" y="508" on="1"/>
        <pt x="1259" y="508" on="1"/>
        <pt x="1259" y="317" on="1"/>
        <pt x="950" y="317" on="1"/>
        <pt x="950" y="-37" on="1"/>
        <pt x="950" y="-279" on="0"/>
        <pt x="850" y="-401" on="1"/>
        <pt x="736" y="-540" on="0"/>
        <pt x="489" y="-540" on="1"/>
        <pt x="412" y="-540" on="1"/>
        <pt x="412" y="317" on="1"/>
        <pt x="89" y="317" on="1"/>
      </contour>
    </TTGlyph>
    <TTGlyph name="dcaron" xMin="130" yMin="0" xMax="1946" yMax="1586">
      <contour>
        <pt x="1554" y="1586" on="1"/>
        <pt x="1946" y="1586" on="1"/>
        <pt x="1946" y="1329" on="1"/>
        <pt x="1946" y="1216" on="0"/>
        <pt x="1925" y="1066" on="0"/>
        <pt x="1856" y="975" on="0"/>
        <pt x="1726" y="937" on="0"/>
        <pt x="1617" y="937" on="1"/>
        <pt x="1554" y="937" on="1"/>
      </contour>
      <contour>
        <pt x="871" y="1531" on="1"/>
        <pt x="1404" y="1531" on="1"/>
        <pt x="1404" y="0" on="1"/>
        <pt x="871" y="0" on="1"/>
      </contour>
      <contour>
        <pt x="130" y="498" on="1"/>
        <pt x="130" y="608" on="0"/>
        <pt x="188" y="797" on="0"/>
        <pt x="249" y="868" on="1"/>
        <pt x="381" y="1020" on="0"/>
        <pt x="627" y="1020" on="1"/>
        <pt x="704" y="1020" on="1"/>
        <pt x="704" y="0" on="1"/>
        <pt x="652" y="0" on="1"/>
        <pt x="400" y="0" on="0"/>
        <pt x="262" y="138" on="1"/>
        <pt x="130" y="270" on="0"/>
      </contour>
    </TTGlyph>
    <TTGlyph name="dcroat" xMin="130" yMin="0" xMax="1550" yMax="1531">
      <contour>
        <pt x="871" y="1191" on="1"/>
        <pt x="570" y="1191" on="1"/>
        <pt x="570" y="1361" on="1"/>
        <pt x="871" y="1361" on="1"/>
        <pt x="871" y="1531" on="1"/>
        <pt x="1404" y="1531" on="1"/>
        <pt x="1404" y="1361" on="1"/>
        <pt x="1550" y="1361" on="1"/>
        <pt x="1550" y="1191" on="1"/>
        <pt x="1404" y="1191" on="1"/>
        <pt x="1404" y="0" on="1"/>
        <pt x="871" y="0" on="1"/>
      </contour>
      <contour>
        <pt x="130" y="498" on="1"/>
        <pt x="130" y="608" on="0"/>
        <pt x="188" y="797" on="0"/>
        <pt x="249" y="868" on="1"/>
        <pt x="381" y="1020" on="0"/>
        <pt x="627" y="1020" on="1"/>
        <pt x="704" y="1020" on="1"/>
        <pt x="704" y="0" on="1"/>
        <pt x="652" y="0" on="1"/>
        <pt x="400" y="0" on="0"/>
        <pt x="262" y="138" on="1"/>
        <pt x="130" y="270" on="0"/>
      </contour>
    </TTGlyph>
    <TTGlyph name="degree" xMin="164" yMin="1171" xMax="1031" yMax="2000">
      <contour>
        <pt x="580" y="1171" on="1"/>
        <pt x="491" y="1171" on="0"/>
        <pt x="338" y="1228" on="0"/>
        <pt x="282" y="1282" on="1"/>
        <pt x="164" y="1397" on="0"/>
        <pt x="164" y="1587" on="1"/>
        <pt x="164" y="1776" on="0"/>
        <pt x="296" y="1891" on="1"/>
        <pt x="421" y="2000" on="0"/>
        <pt x="607" y="2000" on="1"/>
        <pt x="793" y="2000" on="0"/>
        <pt x="910" y="1891" on="1"/>
        <pt x="1031" y="1778" on="0"/>
        <pt x="1031" y="1587" on="1"/>
        <pt x="1031" y="1399" on="0"/>
        <pt x="896" y="1282" on="1"/>
        <pt x="767" y="1171" on="0"/>
      </contour>
      <contour>
        <pt x="591" y="1391" on="1"/>
        <pt x="634" y="1391" on="0"/>
        <pt x="713" y="1421" on="0"/>
        <pt x="742" y="1448" on="1"/>
        <pt x="806" y="1505" on="0"/>
        <pt x="806" y="1587" on="1"/>
        <pt x="806" y="1668" on="0"/>
        <pt x="745" y="1726" on="1"/>
        <pt x="685" y="1782" on="0"/>
        <pt x="600" y="1782" on="1"/>
        <pt x="513" y="1782" on="0"/>
        <pt x="389" y="1669" on="0"/>
        <pt x="389" y="1587" on="1"/>
        <pt x="389" y="1505" on="0"/>
        <pt x="448" y="1448" on="1"/>
        <pt x="506" y="1391" on="0"/>
      </contour>
    </TTGlyph>
    <TTGlyph name="dieresis" xMin="142" yMin="1358" xMax="1218" yMax="1706">
      <contour>
        <pt x="866" y="1706" on="0"/>
        <pt x="1049" y="1706" on="0"/>
        <pt x="1134" y="1693" on="0"/>
        <pt x="1162" y="1674" on="1"/>
        <pt x="1218" y="1638" on="0"/>
        <pt x="1218" y="1537" on="1"/>
        <pt x="1218" y="1434" on="0"/>
        <pt x="1166" y="1395" on="1"/>
        <pt x="1120" y="1360" on="0"/>
        <pt x="1031" y="1360" on="1"/>
        <pt x="876" y="1360" on="0"/>
        <pt x="760" y="1436" on="0"/>
        <pt x="760" y="1637" on="0"/>
      </contour>
      <contour>
        <pt x="248" y="1704" on="0"/>
        <pt x="431" y="1704" on="0"/>
        <pt x="516" y="1691" on="0"/>
        <pt x="544" y="1672" on="1"/>
        <pt x="600" y="1636" on="0"/>
        <pt x="600" y="1535" on="1"/>
        <pt x="600" y="1432" on="0"/>
        <pt x="548" y="1393" on="1"/>
        <pt x="502" y="1358" on="0"/>
        <pt x="413" y="1358" on="1"/>
        <pt x="258" y="1358" on="0"/>
        <pt x="142" y="1434" on="0"/>
        <pt x="142" y="1635" on="0"/>
      </contour>
    </TTGlyph>
    <TTGlyph name="dieresis.cap" xMin="-25" yMin="1652" xMax="1051" yMax="2000">
      <contour>
        <pt x="699" y="2000" on="0"/>
        <pt x="882" y="2000" on="0"/>
        <pt x="967" y="1987" on="0"/>
        <pt x="995" y="1968" on="1"/>
        <pt x="1051" y="1932" on="0"/>
        <pt x="1051" y="1831" on="1"/>
        <pt x="1051" y="1728" on="0"/>
        <pt x="1000" y="1689" on="1"/>
        <pt x="953" y="1654" on="0"/>
        <pt x="864" y="1654" on="1"/>
        <pt x="709" y="1654" on="0"/>
        <pt x="593" y="1730" on="0"/>
        <pt x="593" y="1931" on="0"/>
      </contour>
      <contour>
        <pt x="81" y="1998" on="0"/>
        <pt x="264" y="1998" on="0"/>
        <pt x="349" y="1985" on="0"/>
        <pt x="377" y="1966" on="1"/>
        <pt x="433" y="1930" on="0"/>
        <pt x="433" y="1829" on="1"/>
        <pt x="433" y="1726" on="0"/>
        <pt x="382" y="1687" on="1"/>
        <pt x="335" y="1652" on="0"/>
        <pt x="246" y="1652" on="1"/>
        <pt x="91" y="1652" on="0"/>
        <pt x="-25" y="1728" on="0"/>
        <pt x="-25" y="1929" on="0"/>
      </contour>
    </TTGlyph>
    <TTGlyph name="divide" xMin="293" yMin="-30" xMax="1245" yMax="1156">
      <contour>
        <pt x="769" y="1156" on="1"/>
        <pt x="934" y="1156" on="0"/>
        <pt x="934" y="827" on="0"/>
        <pt x="769" y="827" on="1"/>
        <pt x="604" y="827" on="0"/>
        <pt x="604" y="1156" on="0"/>
      </contour>
      <contour>
        <pt x="293" y="660" on="1"/>
        <pt x="1245" y="660" on="1"/>
        <pt x="1245" y="469" on="1"/>
        <pt x="293" y="469" on="1"/>
      </contour>
      <contour>
        <pt x="769" y="-30" on="1"/>
        <pt x="604" y="-30" on="0"/>
        <pt x="604" y="301" on="0"/>
        <pt x="769" y="301" on="1"/>
        <pt x="934" y="301" on="0"/>
        <pt x="934" y="-30" on="0"/>
      </contour>
    </TTGlyph>
    <TTGlyph name="dollar" xMin="269" yMin="-450" xMax="1605" yMax="1837">
      <contour>
        <pt x="972" y="1837" on="1"/>
        <pt x="1237" y="1837" on="1"/>
        <pt x="1201" y="1530" on="1"/>
        <pt x="938" y="1530" on="1"/>
      </contour>
      <contour>
        <pt x="1605" y="1361" on="1"/>
        <pt x="1605" y="680" on="1"/>
        <pt x="959" y="1361" on="1"/>
      </contour>
      <contour>
        <pt x="269" y="959" on="1"/>
        <pt x="269" y="1165" on="0"/>
        <pt x="508" y="1361" on="0"/>
        <pt x="756" y="1361" on="1"/>
        <pt x="1605" y="367" on="1"/>
        <pt x="1605" y="169" on="0"/>
        <pt x="1490" y="84" on="1"/>
        <pt x="1380" y="1" on="0"/>
        <pt x="1128" y="1" on="1"/>
        <pt x="275" y="959" on="1"/>
      </contour>
      <contour>
        <pt x="272" y="685" on="1"/>
        <pt x="895" y="0" on="1"/>
        <pt x="272" y="0" on="1"/>
      </contour>
      <contour>
        <pt x="1041" y="-167" on="1"/>
        <pt x="1008" y="-450" on="1"/>
        <pt x="744" y="-450" on="1"/>
        <pt x="778" y="-167" on="1"/>
      </contour>
    </TTGlyph>
    <TTGlyph name="dotaccent" xMin="188" yMin="1294" xMax="824" yMax="1700">
      <contour>
        <pt x="519" y="1294" on="1"/>
        <pt x="188" y="1294" on="0"/>
        <pt x="188" y="1501" on="1"/>
        <pt x="188" y="1607" on="0"/>
        <pt x="346" y="1700" on="0"/>
        <pt x="670" y="1700" on="0"/>
        <pt x="824" y="1607" on="0"/>
        <pt x="824" y="1394" on="0"/>
        <pt x="681" y="1294" on="0"/>
      </contour>
    </TTGlyph>
    <TTGlyph name="dotaccent.cap" xMin="188" yMin="1594" xMax="824" yMax="2000">
      <contour>
        <pt x="519" y="1594" on="1"/>
        <pt x="188" y="1594" on="0"/>
        <pt x="188" y="1801" on="1"/>
        <pt x="188" y="1907" on="0"/>
        <pt x="346" y="2000" on="0"/>
        <pt x="670" y="2000" on="0"/>
        <pt x="824" y="1907" on="0"/>
        <pt x="824" y="1694" on="0"/>
        <pt x="681" y="1594" on="0"/>
      </contour>
    </TTGlyph>
    <TTGlyph name="dotlessi" xMin="159" yMin="0" xMax="697" yMax="1019">
      <contour>
        <pt x="159" y="1019" on="1"/>
        <pt x="697" y="1019" on="1"/>
        <pt x="697" y="0" on="1"/>
        <pt x="159" y="0" on="1"/>
      </contour>
    </TTGlyph>
    <TTGlyph name="dotlessj" xMin="336" yMin="-508" xMax="874" yMax="1020">
      <contour>
        <pt x="336" y="1020" on="1"/>
        <pt x="874" y="1020" on="1"/>
        <pt x="874" y="-5" on="1"/>
        <pt x="874" y="-247" on="0"/>
        <pt x="774" y="-369" on="1"/>
        <pt x="660" y="-508" on="0"/>
        <pt x="413" y="-508" on="1"/>
        <pt x="336" y="-508" on="1"/>
      </contour>
    </TTGlyph>
    <TTGlyph name="e" xMin="129" yMin="0" xMax="1405" yMax="1020">
      <contour>
        <pt x="851" y="1020" on="1"/>
        <pt x="917" y="1020" on="1"/>
        <pt x="1295" y="1020" on="0"/>
        <pt x="1378" y="764" on="1"/>
        <pt x="1405" y="679" on="0"/>
        <pt x="1405" y="567" on="1"/>
        <pt x="1405" y="457" on="1"/>
        <pt x="851" y="457" on="1"/>
      </contour>
      <contour>
        <pt x="129" y="498" on="1"/>
        <pt x="129" y="608" on="0"/>
        <pt x="187" y="797" on="0"/>
        <pt x="248" y="868" on="1"/>
        <pt x="380" y="1020" on="0"/>
        <pt x="626" y="1020" on="1"/>
        <pt x="703" y="1020" on="1"/>
        <pt x="703" y="0" on="1"/>
        <pt x="651" y="0" on="1"/>
        <pt x="399" y="0" on="0"/>
        <pt x="261" y="138" on="1"/>
        <pt x="129" y="270" on="0"/>
      </contour>
      <contour>
        <pt x="851" y="261" on="1"/>
        <pt x="1351" y="261" on="1"/>
        <pt x="1351" y="233" on="1"/>
        <pt x="1351" y="140" on="0"/>
        <pt x="1284" y="76" on="1"/>
        <pt x="1202" y="0" on="0"/>
        <pt x="1051" y="0" on="1"/>
        <pt x="851" y="0" on="1"/>
      </contour>
    </TTGlyph>
    <TTGlyph name="eacute" xMin="129" yMin="0" xMax="1405" yMax="1886">
      <component glyphName="e" x="0" y="0" flags="0x1204"/>
      <component glyphName="acute" x="434" y="0" flags="0x1004"/>
    </TTGlyph>
    <TTGlyph name="ebreve" xMin="129" yMin="0" xMax="1405" yMax="1699">
      <component glyphName="e" x="0" y="0" flags="0x1204"/>
      <component glyphName="breve" x="94" y="0" flags="0x1004"/>
    </TTGlyph>
    <TTGlyph name="ecaron" xMin="129" yMin="0" xMax="1405" yMax="1824">
      <component glyphName="e" x="0" y="0" flags="0x1204"/>
      <component glyphName="caron" x="94" y="0" flags="0x1004"/>
    </TTGlyph>
    <TTGlyph name="ecircumflex" xMin="129" yMin="0" xMax="1405" yMax="1884">
      <component glyphName="e" x="0" y="0" flags="0x1204"/>
      <component glyphName="circumflex" x="94" y="0" flags="0x1004"/>
    </TTGlyph>
    <TTGlyph name="edieresis" xMin="129" yMin="0" xMax="1405" yMax="1706">
      <component glyphName="e" x="0" y="0" flags="0x1204"/>
      <component glyphName="dieresis" x="94" y="0" flags="0x1004"/>
    </TTGlyph>
    <TTGlyph name="edotaccent" xMin="129" yMin="0" xMax="1405" yMax="1700">
      <component glyphName="e" x="0" y="0" flags="0x1204"/>
      <component glyphName="dotaccent" x="264" y="0" flags="0x1004"/>
    </TTGlyph>
    <TTGlyph name="egrave" xMin="129" yMin="0" xMax="1405" yMax="1886">
      <component glyphName="e" x="0" y="0" flags="0x1204"/>
      <component glyphName="grave" x="94" y="0" flags="0x1004"/>
    </TTGlyph>
    <TTGlyph name="eight" xMin="224" yMin="0" xMax="1639" yMax="1361">
      <contour>
        <pt x="1436" y="688" on="1"/>
        <pt x="1639" y="607" on="0"/>
        <pt x="1639" y="406" on="1"/>
        <pt x="1639" y="220" on="0"/>
        <pt x="1498" y="112" on="1"/>
        <pt x="1352" y="0" on="0"/>
        <pt x="1099" y="0" on="1"/>
        <pt x="1007" y="0" on="1"/>
        <pt x="1007" y="1361" on="1"/>
        <pt x="1084" y="1361" on="1"/>
        <pt x="1333" y="1361" on="0"/>
        <pt x="1471" y="1238" on="1"/>
        <pt x="1599" y="1124" on="0"/>
        <pt x="1599" y="773" on="0"/>
        <pt x="1438" y="688" on="1"/>
      </contour>
      <contour>
        <pt x="424" y="688" on="1"/>
        <pt x="264" y="772" on="0"/>
        <pt x="264" y="944" on="1"/>
        <pt x="264" y="1124" on="0"/>
        <pt x="392" y="1238" on="1"/>
        <pt x="530" y="1361" on="0"/>
        <pt x="779" y="1361" on="1"/>
        <pt x="856" y="1361" on="1"/>
        <pt x="856" y="0" on="1"/>
        <pt x="764" y="0" on="1"/>
        <pt x="511" y="0" on="0"/>
        <pt x="365" y="112" on="1"/>
        <pt x="224" y="220" on="0"/>
        <pt x="224" y="607" on="0"/>
        <pt x="426" y="688" on="1"/>
      </contour>
    </TTGlyph>
    <TTGlyph name="ellipsis" xMin="109" yMin="0" xMax="2453" yMax="406">
      <contour>
        <pt x="2148" y="0" on="1"/>
        <pt x="1817" y="0" on="0"/>
        <pt x="1817" y="207" on="1"/>
        <pt x="1817" y="313" on="0"/>
        <pt x="1975" y="406" on="0"/>
        <pt x="2299" y="406" on="0"/>
        <pt x="2453" y="313" on="0"/>
        <pt x="2453" y="100" on="0"/>
        <pt x="2310" y="0" on="0"/>
      </contour>
      <contour>
        <pt x="1294" y="0" on="1"/>
        <pt x="963" y="0" on="0"/>
        <pt x="963" y="207" on="1"/>
        <pt x="963" y="313" on="0"/>
        <pt x="1121" y="406" on="0"/>
        <pt x="1445" y="406" on="0"/>
        <pt x="1599" y="313" on="0"/>
        <pt x="1599" y="100" on="0"/>
        <pt x="1456" y="0" on="0"/>
      </contour>
      <contour>
        <pt x="440" y="0" on="1"/>
        <pt x="109" y="0" on="0"/>
        <pt x="109" y="207" on="1"/>
        <pt x="109" y="313" on="0"/>
        <pt x="267" y="406" on="0"/>
        <pt x="591" y="406" on="0"/>
        <pt x="745" y="313" on="0"/>
        <pt x="745" y="100" on="0"/>
        <pt x="602" y="0" on="0"/>
      </contour>
    </TTGlyph>
    <TTGlyph name="emacron" xMin="129" yMin="0" xMax="1405" yMax="1587">
      <component glyphName="e" x="0" y="0" flags="0x1204"/>
      <component glyphName="macron" x="264" y="170" flags="0x1004"/>
    </TTGlyph>
    <TTGlyph name="emdash" xMin="170" yMin="479" xMax="1870" yMax="650">
      <contour>
        <pt x="170" y="650" on="1"/>
        <pt x="1870" y="650" on="1"/>
        <pt x="1870" y="479" on="1"/>
        <pt x="170" y="479" on="1"/>
      </contour>
    </TTGlyph>
    <TTGlyph name="endash" xMin="173" yMin="479" xMax="1190" yMax="650">
      <contour>
        <pt x="173" y="650" on="1"/>
        <pt x="1190" y="650" on="1"/>
        <pt x="1190" y="479" on="1"/>
        <pt x="173" y="479" on="1"/>
      </contour>
    </TTGlyph>
    <TTGlyph name="eng" xMin="140" yMin="-508" xMax="1414" yMax="1020">
      <contour>
        <pt x="861" y="1020" on="1"/>
        <pt x="951" y="1020" on="1"/>
        <pt x="1319" y="1020" on="0"/>
        <pt x="1390" y="770" on="1"/>
        <pt x="1414" y="689" on="0"/>
        <pt x="1414" y="583" on="1"/>
        <pt x="1414" y="-5" on="1"/>
        <pt x="1414" y="-368" on="0"/>
        <pt x="1158" y="-472" on="1"/>
        <pt x="1068" y="-508" on="0"/>
        <pt x="938" y="-508" on="1"/>
        <pt x="861" y="-508" on="1"/>
      </contour>
      <contour>
        <pt x="140" y="1020" on="1"/>
        <pt x="696" y="1020" on="1"/>
        <pt x="696" y="0" on="1"/>
        <pt x="140" y="0" on="1"/>
      </contour>
    </TTGlyph>
    <TTGlyph name="eogonek" xMin="129" yMin="-560" xMax="1405" yMax="1020">
      <contour>
        <pt x="851" y="1020" on="1"/>
        <pt x="917" y="1020" on="1"/>
        <pt x="1295" y="1020" on="0"/>
        <pt x="1378" y="764" on="1"/>
        <pt x="1405" y="679" on="0"/>
        <pt x="1405" y="567" on="1"/>
        <pt x="1405" y="457" on="1"/>
        <pt x="851" y="457" on="1"/>
      </contour>
      <contour>
        <pt x="129" y="498" on="1"/>
        <pt x="129" y="608" on="0"/>
        <pt x="187" y="797" on="0"/>
        <pt x="248" y="868" on="1"/>
        <pt x="380" y="1020" on="0"/>
        <pt x="626" y="1020" on="1"/>
        <pt x="703" y="1020" on="1"/>
        <pt x="703" y="0" on="1"/>
        <pt x="651" y="0" on="1"/>
        <pt x="399" y="0" on="0"/>
        <pt x="261" y="138" on="1"/>
        <pt x="129" y="270" on="0"/>
      </contour>
      <contour>
        <pt x="826" y="-263" on="1"/>
        <pt x="826" y="-93" on="0"/>
        <pt x="941" y="0" on="1"/>
        <pt x="851" y="0" on="1"/>
        <pt x="851" y="261" on="1"/>
        <pt x="1351" y="261" on="1"/>
        <pt x="1351" y="233" on="1"/>
        <pt x="1351" y="102" on="0"/>
        <pt x="1221" y="36" on="1"/>
        <pt x="1175" y="12" on="0"/>
        <pt x="1109" y="3" on="1"/>
        <pt x="1131" y="3" on="1"/>
        <pt x="1131" y="-28" on="1"/>
        <pt x="1131" y="-140" on="0"/>
        <pt x="1175" y="-208" on="0"/>
        <pt x="1224" y="-230" on="0"/>
        <pt x="1260" y="-230" on="1"/>
        <pt x="1386" y="-230" on="1"/>
        <pt x="1386" y="-560" on="1"/>
        <pt x="1170" y="-560" on="1"/>
        <pt x="1029" y="-560" on="0"/>
        <pt x="932" y="-483" on="1"/>
        <pt x="826" y="-399" on="0"/>
      </contour>
    </TTGlyph>
    <TTGlyph name="equal" xMin="293" yMin="267" xMax="1245" yMax="861">
      <contour>
        <pt x="293" y="861" on="1"/>
        <pt x="1245" y="861" on="1"/>
        <pt x="1245" y="670" on="1"/>
        <pt x="293" y="670" on="1"/>
      </contour>
      <contour>
        <pt x="293" y="461" on="1"/>
        <pt x="1245" y="461" on="1"/>
        <pt x="1245" y="267" on="1"/>
        <pt x="293" y="267" on="1"/>
      </contour>
    </TTGlyph>
    <TTGlyph name="eth" xMin="135" yMin="0" xMax="1642" yMax="1771">
      <contour>
        <pt x="1375" y="1412" on="1"/>
        <pt x="1464" y="1182" on="0"/>
        <pt x="1464" y="917" on="1"/>
        <pt x="1464" y="590" on="0"/>
        <pt x="1349" y="326" on="1"/>
        <pt x="1263" y="128" on="0"/>
        <pt x="1108" y="44" on="1"/>
        <pt x="1029" y="0" on="0"/>
        <pt x="926" y="0" on="1"/>
        <pt x="848" y="0" on="1"/>
        <pt x="848" y="1277" on="1"/>
        <pt x="576" y="1206" on="1"/>
        <pt x="527" y="1395" on="1"/>
        <pt x="867" y="1484" on="1"/>
        <pt x="848" y="1484" on="1"/>
        <pt x="848" y="1771" on="1"/>
        <pt x="926" y="1771" on="1"/>
        <pt x="1146" y="1771" on="0"/>
        <pt x="1276" y="1592" on="1"/>
        <pt x="1515" y="1656" on="1"/>
        <pt x="1555" y="1667" on="0"/>
        <pt x="1591" y="1676" on="1"/>
        <pt x="1642" y="1486" on="1"/>
        <pt x="1358" y="1412" on="1"/>
      </contour>
      <contour>
        <pt x="135" y="498" on="1"/>
        <pt x="135" y="608" on="0"/>
        <pt x="193" y="797" on="0"/>
        <pt x="254" y="868" on="1"/>
        <pt x="386" y="1020" on="0"/>
        <pt x="632" y="1020" on="1"/>
        <pt x="709" y="1020" on="1"/>
        <pt x="709" y="0" on="1"/>
        <pt x="657" y="0" on="1"/>
        <pt x="405" y="0" on="0"/>
        <pt x="267" y="138" on="1"/>
        <pt x="135" y="270" on="0"/>
      </contour>
    </TTGlyph>
    <TTGlyph name="exclam" xMin="279" yMin="0" xMax="915" yMax="1700">
      <contour>
        <pt x="282" y="1700" on="1"/>
        <pt x="912" y="1700" on="1"/>
        <pt x="873" y="679" on="1"/>
        <pt x="322" y="679" on="1"/>
      </contour>
      <contour>
        <pt x="610" y="0" on="1"/>
        <pt x="279" y="0" on="0"/>
        <pt x="279" y="207" on="1"/>
        <pt x="279" y="313" on="0"/>
        <pt x="437" y="406" on="0"/>
        <pt x="761" y="406" on="0"/>
        <pt x="915" y="313" on="0"/>
        <pt x="915" y="100" on="0"/>
        <pt x="772" y="0" on="0"/>
      </contour>
    </TTGlyph>
    <TTGlyph name="exclamdown" xMin="279" yMin="-339" xMax="915" yMax="1361">
      <contour>
        <pt x="279" y="1154" on="1"/>
        <pt x="279" y="1361" on="0"/>
        <pt x="610" y="1361" on="1"/>
        <pt x="772" y="1361" on="0"/>
        <pt x="915" y="1261" on="0"/>
        <pt x="915" y="1048" on="0"/>
        <pt x="761" y="955" on="0"/>
        <pt x="437" y="955" on="0"/>
        <pt x="279" y="1048" on="0"/>
      </contour>
      <contour>
        <pt x="322" y="682" on="1"/>
        <pt x="873" y="682" on="1"/>
        <pt x="912" y="-339" on="1"/>
        <pt x="282" y="-339" on="1"/>
      </contour>
    </TTGlyph>
    <TTGlyph name="f" xMin="183" yMin="0" xMax="1352" yMax="1550">
      <contour>
        <pt x="1236" y="1060" on="1"/>
        <pt x="1085" y="1060" on="0"/>
        <pt x="1014" y="1101" on="1"/>
        <pt x="905" y="1165" on="0"/>
        <pt x="905" y="1368" on="1"/>
        <pt x="905" y="1550" on="1"/>
        <pt x="1352" y="1550" on="1"/>
        <pt x="1352" y="1060" on="1"/>
      </contour>
      <contour>
        <pt x="183" y="1061" on="1"/>
        <pt x="183" y="1411" on="0"/>
        <pt x="434" y="1512" on="1"/>
        <pt x="524" y="1549" on="0"/>
        <pt x="654" y="1549" on="1"/>
        <pt x="721" y="1549" on="1"/>
        <pt x="721" y="0" on="1"/>
        <pt x="183" y="0" on="1"/>
      </contour>
      <contour>
        <pt x="905" y="825" on="1"/>
        <pt x="1216" y="825" on="1"/>
        <pt x="1216" y="510" on="1"/>
        <pt x="905" y="510" on="1"/>
      </contour>
    </TTGlyph>
    <TTGlyph name="ff" xMin="183" yMin="0" xMax="2887" yMax="1550">
      <component glyphName="f" x="0" y="0" flags="0x1004"/>
      <component glyphName="f" x="1535" y="0" flags="0x1004"/>
    </TTGlyph>
    <TTGlyph name="fi" xMin="183" yMin="0" xMax="2281" yMax="1700">
      <component glyphName="f" x="0" y="0" flags="0x1004"/>
      <component glyphName="i" x="1535" y="0" flags="0x1004"/>
    </TTGlyph>
    <TTGlyph name="five" xMin="288" yMin="0" xMax="1674" yMax="1361">
      <contour>
        <pt x="1034" y="1361" on="1"/>
        <pt x="1623" y="1361" on="1"/>
        <pt x="1623" y="1080" on="1"/>
        <pt x="1034" y="1080" on="1"/>
      </contour>
      <contour>
        <pt x="288" y="1361" on="1"/>
        <pt x="893" y="1361" on="1"/>
        <pt x="893" y="680" on="1"/>
        <pt x="288" y="681" on="1"/>
      </contour>
      <contour>
        <pt x="1021" y="869" on="1"/>
        <pt x="1123" y="869" on="1"/>
        <pt x="1395" y="869" on="0"/>
        <pt x="1674" y="643" on="0"/>
        <pt x="1674" y="429" on="1"/>
        <pt x="1674" y="194" on="0"/>
        <pt x="1539" y="96" on="1"/>
        <pt x="1407" y="0" on="0"/>
        <pt x="1095" y="0" on="1"/>
        <pt x="1021" y="0" on="1"/>
      </contour>
      <contour>
        <pt x="288" y="461" on="1"/>
        <pt x="893" y="461" on="1"/>
        <pt x="893" y="0" on="1"/>
        <pt x="768" y="0" on="1"/>
        <pt x="432" y="0" on="0"/>
        <pt x="326" y="214" on="1"/>
        <pt x="288" y="289" on="0"/>
        <pt x="288" y="395" on="1"/>
      </contour>
    </TTGlyph>
    <TTGlyph name="fl" xMin="183" yMin="0" xMax="2228" yMax="1550">
      <component glyphName="f" x="0" y="0" flags="0x1004"/>
      <component glyphName="l" x="1535" y="0" flags="0x1004"/>
    </TTGlyph>
    <TTGlyph name="florin" xMin="146" yMin="-340" xMax="1633" yMax="1550">
      <contour>
        <pt x="1175" y="1256" on="1"/>
        <pt x="1175" y="1320" on="0"/>
        <pt x="1186" y="1388" on="1"/>
        <pt x="1216" y="1550" on="1"/>
        <pt x="1633" y="1550" on="1"/>
        <pt x="1546" y="1080" on="1"/>
        <pt x="1460" y="1080" on="1"/>
        <pt x="1327" y="1080" on="0"/>
        <pt x="1277" y="1104" on="1"/>
        <pt x="1175" y="1151" on="0"/>
      </contour>
      <contour>
        <pt x="404" y="1061" on="1"/>
        <pt x="471" y="1409" on="0"/>
        <pt x="739" y="1512" on="1"/>
        <pt x="835" y="1549" on="0"/>
        <pt x="964" y="1549" on="1"/>
        <pt x="1031" y="1549" on="1"/>
        <pt x="684" y="-340" on="1"/>
        <pt x="146" y="-340" on="1"/>
      </contour>
      <contour>
        <pt x="1083" y="825" on="1"/>
        <pt x="1414" y="825" on="1"/>
        <pt x="1356" y="510" on="1"/>
        <pt x="1025" y="510" on="1"/>
      </contour>
    </TTGlyph>
    <TTGlyph name="four" xMin="284" yMin="0" xMax="1579" yMax="1361">
      <contour>
        <pt x="284" y="853" on="1"/>
        <pt x="284" y="1218" on="0"/>
        <pt x="578" y="1324" on="1"/>
        <pt x="680" y="1361" on="0"/>
        <pt x="824" y="1361" on="1"/>
        <pt x="889" y="1361" on="1"/>
        <pt x="889" y="341" on="1"/>
        <pt x="284" y="341" on="1"/>
      </contour>
      <contour>
        <pt x="1046" y="1020" on="1"/>
        <pt x="1579" y="1020" on="1"/>
        <pt x="1579" y="0" on="1"/>
        <pt x="1046" y="0" on="1"/>
      </contour>
    </TTGlyph>
    <TTGlyph name="fraction" xMin="234" yMin="-340" xMax="1129" yMax="1709">
      <contour>
        <pt x="891" y="1709" on="1"/>
        <pt x="1129" y="1644" on="1"/>
        <pt x="472" y="-340" on="1"/>
        <pt x="234" y="-274" on="1"/>
      </contour>
    </TTGlyph>
    <TTGlyph name="g" xMin="130" yMin="-510" xMax="1404" yMax="1020">
      <contour>
        <pt x="870" y="1020" on="1"/>
        <pt x="1404" y="1020" on="1"/>
        <pt x="1404" y="-37" on="1"/>
        <pt x="1404" y="-144" on="0"/>
        <pt x="1378" y="-318" on="0"/>
        <pt x="1336" y="-380" on="1"/>
        <pt x="1248" y="-510" on="0"/>
        <pt x="1005" y="-510" on="1"/>
        <pt x="870" y="-510" on="1"/>
      </contour>
      <contour>
        <pt x="130" y="498" on="1"/>
        <pt x="130" y="608" on="0"/>
        <pt x="188" y="797" on="0"/>
        <pt x="249" y="868" on="1"/>
        <pt x="381" y="1020" on="0"/>
        <pt x="627" y="1020" on="1"/>
        <pt x="704" y="1020" on="1"/>
        <pt x="704" y="0" on="1"/>
        <pt x="652" y="0" on="1"/>
        <pt x="400" y="0" on="0"/>
        <pt x="262" y="138" on="1"/>
        <pt x="130" y="270" on="0"/>
      </contour>
      <contour>
        <pt x="242" y="-316" on="1"/>
        <pt x="242" y="-272" on="0"/>
        <pt x="284" y="-203" on="0"/>
        <pt x="321" y="-180" on="1"/>
        <pt x="398" y="-132" on="0"/>
        <pt x="519" y="-132" on="1"/>
        <pt x="640" y="-132" on="0"/>
        <pt x="724" y="-180" on="1"/>
        <pt x="812" y="-230" on="0"/>
        <pt x="812" y="-315" on="1"/>
        <pt x="812" y="-401" on="0"/>
        <pt x="733" y="-452" on="1"/>
        <pt x="657" y="-501" on="0"/>
        <pt x="537" y="-501" on="1"/>
        <pt x="413" y="-501" on="0"/>
        <pt x="330" y="-452" on="1"/>
        <pt x="242" y="-400" on="0"/>
      </contour>
    </TTGlyph>
    <TTGlyph name="gbreve" xMin="130" yMin="-510" xMax="1404" yMax="1699">
      <component glyphName="g" x="0" y="0" flags="0x1204"/>
      <component glyphName="breve" x="147" y="0" flags="0x1004"/>
    </TTGlyph>
    <TTGlyph name="gcircumflex" xMin="130" yMin="-510" xMax="1404" yMax="1884">
      <component glyphName="g" x="0" y="0" flags="0x1204"/>
      <component glyphName="circumflex" x="147" y="0" flags="0x1004"/>
    </TTGlyph>
    <TTGlyph name="gcommaaccent" xMin="130" yMin="-560" xMax="1404" yMax="1020">
      <component glyphName="g" x="0" y="0" flags="0x1204"/>
      <component glyphName="commaaccent" x="257" y="0" flags="0x1004"/>
    </TTGlyph>
    <TTGlyph name="gdotaccent" xMin="130" yMin="-510" xMax="1404" yMax="1700">
      <component glyphName="g" x="0" y="0" flags="0x1204"/>
      <component glyphName="dotaccent" x="317" y="0" flags="0x1004"/>
    </TTGlyph>
    <TTGlyph name="germandbls" xMin="126" yMin="0" xMax="1619" yMax="1361">
      <contour>
        <pt x="1007" y="1361" on="1"/>
        <pt x="1084" y="1361" on="1"/>
        <pt x="1380" y="1361" on="0"/>
        <pt x="1484" y="1207" on="1"/>
        <pt x="1519" y="1154" on="0"/>
        <pt x="1519" y="1051" on="0"/>
        <pt x="1491" y="953" on="0"/>
        <pt x="1460" y="909" on="1"/>
        <pt x="1390" y="812" on="0"/>
        <pt x="1254" y="771" on="1"/>
        <pt x="1522" y="732" on="0"/>
        <pt x="1594" y="566" on="1"/>
        <pt x="1619" y="506" on="0"/>
        <pt x="1619" y="324" on="0"/>
        <pt x="1553" y="166" on="0"/>
        <pt x="1488" y="112" on="1"/>
        <pt x="1355" y="0" on="0"/>
        <pt x="1099" y="0" on="1"/>
        <pt x="1007" y="0" on="1"/>
      </contour>
      <contour>
        <pt x="291" y="680" on="1"/>
        <pt x="126" y="680" on="1"/>
        <pt x="126" y="847" on="1"/>
        <pt x="291" y="847" on="1"/>
        <pt x="291" y="924" on="1"/>
        <pt x="291" y="1145" on="0"/>
        <pt x="392" y="1248" on="1"/>
        <pt x="503" y="1361" on="0"/>
        <pt x="754" y="1361" on="1"/>
        <pt x="844" y="1361" on="1"/>
        <pt x="844" y="0" on="1"/>
        <pt x="291" y="0" on="1"/>
      </contour>
    </TTGlyph>
    <TTGlyph name="grave" xMin="152" yMin="1332" xMax="867" yMax="1886">
      <contour>
        <pt x="822" y="1384" on="1"/>
        <pt x="770" y="1332" on="0"/>
        <pt x="660" y="1332" on="1"/>
        <pt x="600" y="1332" on="0"/>
        <pt x="444" y="1407" on="0"/>
        <pt x="372" y="1479" on="1"/>
        <pt x="152" y="1699" on="1"/>
        <pt x="338" y="1886" on="1"/>
        <pt x="867" y="1429" on="1"/>
      </contour>
    </TTGlyph>
    <TTGlyph name="grave.cap" xMin="152" yMin="1446" xMax="867" yMax="2000">
      <contour>
        <pt x="822" y="1498" on="1"/>
        <pt x="770" y="1446" on="0"/>
        <pt x="660" y="1446" on="1"/>
        <pt x="601" y="1446" on="0"/>
        <pt x="444" y="1521" on="0"/>
        <pt x="372" y="1593" on="1"/>
        <pt x="152" y="1813" on="1"/>
        <pt x="338" y="2000" on="1"/>
        <pt x="867" y="1543" on="1"/>
      </contour>
    </TTGlyph>
    <TTGlyph name="greater" xMin="305" yMin="-11" xMax="1053" yMax="1124">
      <contour>
        <pt x="772" y="548" on="1"/>
        <pt x="305" y="978" on="1"/>
        <pt x="429" y="1124" on="1"/>
        <pt x="1053" y="548" on="1"/>
        <pt x="429" y="-11" on="1"/>
        <pt x="305" y="135" on="1"/>
      </contour>
    </TTGlyph>
    <TTGlyph name="greaterequal" xMin="258" yMin="-1" xMax="1279" yMax="1455">
      <contour>
        <pt x="365" y="476" on="1"/>
        <pt x="842" y="889" on="1"/>
        <pt x="365" y="1319" on="1"/>
        <pt x="489" y="1455" on="1"/>
        <pt x="1113" y="889" on="1"/>
        <pt x="489" y="340" on="1"/>
      </contour>
      <contour>
        <pt x="258" y="191" on="1"/>
        <pt x="1279" y="191" on="1"/>
        <pt x="1279" y="-1" on="1"/>
        <pt x="258" y="-1" on="1"/>
      </contour>
    </TTGlyph>
    <TTGlyph name="guillemotleft" xMin="258" yMin="-108" xMax="1939" yMax="1128">
      <contour>
        <pt x="1939" y="1128" on="1"/>
        <pt x="1939" y="878" on="1"/>
        <pt x="1462" y="510" on="1"/>
        <pt x="1939" y="138" on="1"/>
        <pt x="1939" y="-108" on="1"/>
        <pt x="1165" y="510" on="1"/>
      </contour>
      <contour>
        <pt x="1032" y="1128" on="1"/>
        <pt x="1032" y="878" on="1"/>
        <pt x="555" y="510" on="1"/>
        <pt x="1032" y="138" on="1"/>
        <pt x="1032" y="-108" on="1"/>
        <pt x="258" y="510" on="1"/>
      </contour>
    </TTGlyph>
    <TTGlyph name="guillemotright" xMin="285" yMin="-108" xMax="1900" yMax="1128">
      <contour>
        <pt x="1126" y="138" on="1"/>
        <pt x="1603" y="510" on="1"/>
        <pt x="1126" y="878" on="1"/>
        <pt x="1126" y="1128" on="1"/>
        <pt x="1900" y="510" on="1"/>
        <pt x="1126" y="-108" on="1"/>
      </contour>
      <contour>
        <pt x="285" y="138" on="1"/>
        <pt x="762" y="510" on="1"/>
        <pt x="285" y="878" on="1"/>
        <pt x="285" y="1128" on="1"/>
        <pt x="1059" y="510" on="1"/>
        <pt x="285" y="-108" on="1"/>
      </contour>
    </TTGlyph>
    <TTGlyph name="guilsinglleft" xMin="249" yMin="-108" xMax="1023" yMax="1128">
      <contour>
        <pt x="1023" y="1128" on="1"/>
        <pt x="1023" y="878" on="1"/>
        <pt x="546" y="510" on="1"/>
        <pt x="1023" y="138" on="1"/>
        <pt x="1023" y="-108" on="1"/>
        <pt x="249" y="510" on="1"/>
      </contour>
    </TTGlyph>
    <TTGlyph name="guilsinglright" xMin="345" yMin="-108" xMax="1119" yMax="1128">
      <contour>
        <pt x="345" y="138" on="1"/>
        <pt x="822" y="510" on="1"/>
        <pt x="345" y="878" on="1"/>
        <pt x="345" y="1128" on="1"/>
        <pt x="1119" y="510" on="1"/>
        <pt x="345" y="-108" on="1"/>
      </contour>
    </TTGlyph>
    <TTGlyph name="h" xMin="129" yMin="0" xMax="1404" yMax="1531">
      <contour>
        <pt x="129" y="1531" on="1"/>
        <pt x="667" y="1531" on="1"/>
        <pt x="667" y="0" on="1"/>
        <pt x="129" y="0" on="1"/>
      </contour>
      <contour>
        <pt x="851" y="1020" on="1"/>
        <pt x="941" y="1020" on="1"/>
        <pt x="1309" y="1020" on="0"/>
        <pt x="1380" y="770" on="1"/>
        <pt x="1404" y="689" on="0"/>
        <pt x="1404" y="583" on="1"/>
        <pt x="1404" y="0" on="1"/>
        <pt x="851" y="0" on="1"/>
      </contour>
    </TTGlyph>
    <TTGlyph name="hbar" xMin="-25" yMin="0" xMax="1404" yMax="1531">
      <contour>
        <pt x="129" y="1191" on="1"/>
        <pt x="-25" y="1191" on="1"/>
        <pt x="-25" y="1361" on="1"/>
        <pt x="129" y="1361" on="1"/>
        <pt x="129" y="1531" on="1"/>
        <pt x="667" y="1531" on="1"/>
        <pt x="667" y="1361" on="1"/>
        <pt x="955" y="1361" on="1"/>
        <pt x="955" y="1191" on="1"/>
        <pt x="667" y="1191" on="1"/>
        <pt x="667" y="0" on="1"/>
        <pt x="129" y="0" on="1"/>
      </contour>
      <contour>
        <pt x="851" y="1020" on="1"/>
        <pt x="941" y="1020" on="1"/>
        <pt x="1309" y="1020" on="0"/>
        <pt x="1380" y="770" on="1"/>
        <pt x="1404" y="689" on="0"/>
        <pt x="1404" y="583" on="1"/>
        <pt x="1404" y="0" on="1"/>
        <pt x="851" y="0" on="1"/>
      </contour>
    </TTGlyph>
    <TTGlyph name="hcircumflex" xMin="129" yMin="0" xMax="1532" yMax="1844">
      <contour>
        <pt x="129" y="1531" on="1"/>
        <pt x="667" y="1531" on="1"/>
        <pt x="667" y="1517" on="1"/>
        <pt x="626" y="1517" on="1"/>
        <pt x="1005" y="1844" on="1"/>
        <pt x="1532" y="1389" on="1"/>
        <pt x="1487" y="1344" on="1"/>
        <pt x="1435" y="1292" on="0"/>
        <pt x="1358" y="1292" on="1"/>
        <pt x="1210" y="1292" on="0"/>
        <pt x="1065" y="1439" on="1"/>
        <pt x="1005" y="1500" on="1"/>
        <pt x="976" y="1469" on="1"/>
        <pt x="816" y="1292" on="0"/>
        <pt x="662" y="1292" on="1"/>
        <pt x="649" y="1292" on="1"/>
        <pt x="643" y="1292" on="0"/>
        <pt x="638" y="1293" on="1"/>
        <pt x="667" y="1293" on="1"/>
        <pt x="667" y="0" on="1"/>
        <pt x="129" y="0" on="1"/>
      </contour>
      <contour>
        <pt x="851" y="1020" on="1"/>
        <pt x="941" y="1020" on="1"/>
        <pt x="1309" y="1020" on="0"/>
        <pt x="1380" y="770" on="1"/>
        <pt x="1404" y="689" on="0"/>
        <pt x="1404" y="583" on="1"/>
        <pt x="1404" y="0" on="1"/>
        <pt x="851" y="0" on="1"/>
      </contour>
    </TTGlyph>
    <TTGlyph name="hungarumlaut" xMin="13" yMin="1332" xMax="1368" yMax="1886">
      <contour>
        <pt x="653" y="1429" on="1"/>
        <pt x="1182" y="1886" on="1"/>
        <pt x="1368" y="1699" on="1"/>
        <pt x="1148" y="1479" on="1"/>
        <pt x="1001" y="1332" on="0"/>
        <pt x="845" y="1332" on="1"/>
        <pt x="750" y="1332" on="0"/>
        <pt x="698" y="1384" on="1"/>
      </contour>
      <contour>
        <pt x="436" y="1407" on="0"/>
        <pt x="279" y="1332" on="0"/>
        <pt x="220" y="1332" on="1"/>
        <pt x="110" y="1332" on="0"/>
        <pt x="58" y="1384" on="1"/>
        <pt x="13" y="1429" on="1"/>
        <pt x="542" y="1886" on="1"/>
        <pt x="728" y="1699" on="1"/>
        <pt x="508" y="1479" on="1"/>
      </contour>
    </TTGlyph>
    <TTGlyph name="hungarumlaut.cap" xMin="23" yMin="1446" xMax="1378" yMax="2000">
      <contour>
        <pt x="663" y="1543" on="1"/>
        <pt x="1192" y="2000" on="1"/>
        <pt x="1378" y="1813" on="1"/>
        <pt x="1158" y="1593" on="1"/>
        <pt x="1011" y="1446" on="0"/>
        <pt x="855" y="1446" on="1"/>
        <pt x="760" y="1446" on="0"/>
        <pt x="708" y="1498" on="1"/>
      </contour>
      <contour>
        <pt x="446" y="1521" on="0"/>
        <pt x="289" y="1446" on="0"/>
        <pt x="230" y="1446" on="1"/>
        <pt x="120" y="1446" on="0"/>
        <pt x="68" y="1498" on="1"/>
        <pt x="23" y="1543" on="1"/>
        <pt x="552" y="2000" on="1"/>
        <pt x="738" y="1813" on="1"/>
        <pt x="518" y="1593" on="1"/>
      </contour>
    </TTGlyph>
    <TTGlyph name="hyphen" xMin="170" yMin="479" xMax="1360" yMax="650">
      <contour>
        <pt x="170" y="650" on="1"/>
        <pt x="1360" y="650" on="1"/>
        <pt x="1360" y="479" on="1"/>
        <pt x="170" y="479" on="1"/>
      </contour>
    </TTGlyph>
    <TTGlyph name="i" xMin="110" yMin="0" xMax="746" yMax="1700">
      <contour>
        <pt x="441" y="1294" on="1"/>
        <pt x="110" y="1294" on="0"/>
        <pt x="110" y="1501" on="1"/>
        <pt x="110" y="1607" on="0"/>
        <pt x="268" y="1700" on="0"/>
        <pt x="592" y="1700" on="0"/>
        <pt x="746" y="1607" on="0"/>
        <pt x="746" y="1394" on="0"/>
        <pt x="603" y="1294" on="0"/>
      </contour>
      <contour>
        <pt x="166" y="1019" on="1"/>
        <pt x="704" y="1019" on="1"/>
        <pt x="704" y="0" on="1"/>
        <pt x="166" y="0" on="1"/>
      </contour>
    </TTGlyph>
    <TTGlyph name="iacute" xMin="159" yMin="0" xMax="942" yMax="1886">
      <component glyphName="dotlessi" x="0" y="0" flags="0x1204"/>
      <component glyphName="acute" x="74" y="0" flags="0x1004"/>
    </TTGlyph>
    <TTGlyph name="ibreve" xMin="-118" yMin="0" xMax="952" yMax="1699">
      <component glyphName="dotlessi" x="0" y="0" flags="0x1204"/>
      <component glyphName="breve" x="-265" y="0" flags="0x1004"/>
    </TTGlyph>
    <TTGlyph name="icircumflex" xMin="-113" yMin="0" xMax="942" yMax="1884">
      <component glyphName="dotlessi" x="0" y="0" flags="0x1204"/>
      <component glyphName="circumflex" x="-265" y="0" flags="0x1004"/>
    </TTGlyph>
    <TTGlyph name="idieresis" xMin="-123" yMin="0" xMax="953" yMax="1706">
      <component glyphName="dotlessi" x="0" y="0" flags="0x1204"/>
      <component glyphName="dieresis" x="-265" y="0" flags="0x1004"/>
    </TTGlyph>
    <TTGlyph name="igrave" xMin="-113" yMin="0" xMax="697" yMax="1886">
      <component glyphName="dotlessi" x="0" y="0" flags="0x1204"/>
      <component glyphName="grave" x="-265" y="0" flags="0x1004"/>
    </TTGlyph>
    <TTGlyph name="ij" xMin="110" yMin="-540" xMax="1602" yMax="1700">
      <component glyphName="i" x="0" y="0" flags="0x1004"/>
      <component glyphName="j" x="856" y="0" flags="0x1004"/>
    </TTGlyph>
    <TTGlyph name="imacron" xMin="-5" yMin="0" xMax="837" yMax="1587">
      <component glyphName="dotlessi" x="0" y="0" flags="0x1204"/>
      <component glyphName="macron" x="-95" y="170" flags="0x1004"/>
    </TTGlyph>
    <TTGlyph name="infinity" xMin="161" yMin="344" xMax="1545" yMax="1187">
      <contour>
        <pt x="636" y="360" on="1"/>
        <pt x="587" y="344" on="0"/>
        <pt x="435" y="344" on="0"/>
        <pt x="298" y="405" on="0"/>
        <pt x="252" y="462" on="1"/>
        <pt x="161" y="575" on="0"/>
        <pt x="161" y="772" on="1"/>
        <pt x="161" y="943" on="0"/>
        <pt x="247" y="1058" on="1"/>
        <pt x="344" y="1187" on="0"/>
        <pt x="524" y="1187" on="1"/>
        <pt x="686" y="1187" on="0"/>
        <pt x="786" y="1030" on="1"/>
        <pt x="818" y="981" on="0"/>
        <pt x="849" y="923" on="1"/>
        <pt x="914" y="1041" on="0"/>
        <pt x="1034" y="1142" on="0"/>
        <pt x="1145" y="1186" on="0"/>
        <pt x="1300" y="1186" on="0"/>
        <pt x="1423" y="1129" on="0"/>
        <pt x="1464" y="1076" on="1"/>
        <pt x="1545" y="970" on="0"/>
        <pt x="1545" y="772" on="1"/>
        <pt x="1545" y="588" on="0"/>
        <pt x="1464" y="475" on="1"/>
        <pt x="1377" y="352" on="0"/>
        <pt x="1219" y="352" on="1"/>
        <pt x="1028" y="352" on="0"/>
        <pt x="924" y="480" on="1"/>
        <pt x="892" y="520" on="0"/>
        <pt x="863" y="570" on="1"/>
        <pt x="762" y="402" on="0"/>
      </contour>
      <contour>
        <pt x="939" y="709" on="1"/>
        <pt x="1019" y="572" on="0"/>
        <pt x="1120" y="526" on="1"/>
        <pt x="1155" y="510" on="0"/>
        <pt x="1226" y="510" on="0"/>
        <pt x="1288" y="552" on="0"/>
        <pt x="1311" y="588" on="1"/>
        <pt x="1362" y="668" on="0"/>
        <pt x="1362" y="895" on="0"/>
        <pt x="1273" y="1020" on="0"/>
        <pt x="1153" y="1020" on="0"/>
        <pt x="1086" y="976" on="0"/>
        <pt x="1030" y="895" on="0"/>
        <pt x="976" y="780" on="0"/>
      </contour>
      <contour>
        <pt x="776" y="786" on="1"/>
        <pt x="659" y="1020" on="0"/>
        <pt x="526" y="1020" on="1"/>
        <pt x="445" y="1020" on="0"/>
        <pt x="390" y="940" on="1"/>
        <pt x="338" y="865" on="0"/>
        <pt x="338" y="712" on="0"/>
        <pt x="365" y="615" on="0"/>
        <pt x="390" y="581" on="1"/>
        <pt x="441" y="510" on="0"/>
        <pt x="528" y="510" on="1"/>
        <pt x="590" y="510" on="0"/>
        <pt x="647" y="578" on="1"/>
        <pt x="701" y="641" on="0"/>
      </contour>
    </TTGlyph>
    <TTGlyph name="integral" xMin="204" yMin="-341" xMax="2006" yMax="1550">
      <contour>
        <pt x="1559" y="1550" on="1"/>
        <pt x="2006" y="1550" on="1"/>
        <pt x="2006" y="1060" on="1"/>
        <pt x="1890" y="1060" on="1"/>
        <pt x="1739" y="1060" on="0"/>
        <pt x="1668" y="1101" on="1"/>
        <pt x="1559" y="1165" on="0"/>
        <pt x="1559" y="1368" on="1"/>
      </contour>
      <contour>
        <pt x="837" y="150" on="1"/>
        <pt x="837" y="1061" on="1"/>
        <pt x="837" y="1411" on="0"/>
        <pt x="1088" y="1512" on="1"/>
        <pt x="1178" y="1549" on="0"/>
        <pt x="1308" y="1549" on="1"/>
        <pt x="1375" y="1549" on="1"/>
        <pt x="1373" y="148" on="1"/>
        <pt x="1373" y="-202" on="0"/>
        <pt x="1122" y="-304" on="1"/>
        <pt x="1032" y="-340" on="0"/>
        <pt x="902" y="-340" on="1"/>
        <pt x="835" y="-340" on="1"/>
        <pt x="835" y="142" on="1"/>
      </contour>
      <contour>
        <pt x="320" y="149" on="1"/>
        <pt x="471" y="149" on="0"/>
        <pt x="542" y="108" on="1"/>
        <pt x="651" y="44" on="0"/>
        <pt x="651" y="-159" on="1"/>
        <pt x="651" y="-341" on="1"/>
        <pt x="204" y="-341" on="1"/>
        <pt x="204" y="149" on="1"/>
      </contour>
    </TTGlyph>
    <TTGlyph name="iogonek" xMin="110" yMin="-560" xMax="746" yMax="1700">
      <contour>
        <pt x="441" y="1294" on="1"/>
        <pt x="110" y="1294" on="0"/>
        <pt x="110" y="1501" on="1"/>
        <pt x="110" y="1607" on="0"/>
        <pt x="268" y="1700" on="0"/>
        <pt x="592" y="1700" on="0"/>
        <pt x="746" y="1607" on="0"/>
        <pt x="746" y="1394" on="0"/>
        <pt x="603" y="1294" on="0"/>
      </contour>
      <contour>
        <pt x="144" y="-263" on="1"/>
        <pt x="144" y="-93" on="0"/>
        <pt x="259" y="0" on="1"/>
        <pt x="166" y="0" on="1"/>
        <pt x="166" y="1019" on="1"/>
        <pt x="704" y="1019" on="1"/>
        <pt x="704" y="0" on="1"/>
        <pt x="449" y="0" on="1"/>
        <pt x="449" y="-28" on="1"/>
        <pt x="449" y="-140" on="0"/>
        <pt x="493" y="-208" on="0"/>
        <pt x="542" y="-230" on="0"/>
        <pt x="578" y="-230" on="1"/>
        <pt x="704" y="-230" on="1"/>
        <pt x="704" y="-560" on="1"/>
        <pt x="488" y="-560" on="1"/>
        <pt x="347" y="-560" on="0"/>
        <pt x="250" y="-483" on="1"/>
        <pt x="144" y="-399" on="0"/>
      </contour>
    </TTGlyph>
    <TTGlyph name="itilde" xMin="-153" yMin="0" xMax="982" yMax="1870">
      <component glyphName="dotlessi" x="0" y="0" flags="0x1204"/>
      <component glyphName="tilde" x="-265" y="340" flags="0x1004"/>
    </TTGlyph>
    <TTGlyph name="j" xMin="110" yMin="-540" xMax="746" yMax="1700">
      <contour>
        <pt x="441" y="1294" on="1"/>
        <pt x="110" y="1294" on="0"/>
        <pt x="110" y="1501" on="1"/>
        <pt x="110" y="1607" on="0"/>
        <pt x="268" y="1700" on="0"/>
        <pt x="592" y="1700" on="0"/>
        <pt x="746" y="1607" on="0"/>
        <pt x="746" y="1394" on="0"/>
        <pt x="603" y="1294" on="0"/>
      </contour>
      <contour>
        <pt x="166" y="1020" on="1"/>
        <pt x="704" y="1020" on="1"/>
        <pt x="704" y="-37" on="1"/>
        <pt x="704" y="-279" on="0"/>
        <pt x="604" y="-401" on="1"/>
        <pt x="490" y="-540" on="0"/>
        <pt x="243" y="-540" on="1"/>
        <pt x="166" y="-540" on="1"/>
      </contour>
    </TTGlyph>
    <TTGlyph name="jcircumflex" xMin="71" yMin="-508" xMax="1126" yMax="1884">
      <component glyphName="dotlessj" x="0" y="0" flags="0x1204"/>
      <component glyphName="circumflex" x="-81" y="0" flags="0x1004"/>
    </TTGlyph>
    <TTGlyph name="k" xMin="125" yMin="0" xMax="1409" yMax="1531">
      <contour>
        <pt x="125" y="1531" on="1"/>
        <pt x="662" y="1531" on="1"/>
        <pt x="662" y="0" on="1"/>
        <pt x="125" y="0" on="1"/>
      </contour>
      <contour>
        <pt x="808" y="833" on="1"/>
        <pt x="808" y="933" on="0"/>
        <pt x="900" y="986" on="1"/>
        <pt x="982" y="1033" on="0"/>
        <pt x="1111" y="1033" on="1"/>
        <pt x="1312" y="1033" on="0"/>
        <pt x="1384" y="924" on="1"/>
        <pt x="1409" y="886" on="0"/>
        <pt x="1409" y="833" on="1"/>
        <pt x="1409" y="732" on="0"/>
        <pt x="1323" y="678" on="1"/>
        <pt x="1245" y="628" on="0"/>
        <pt x="1118" y="628" on="1"/>
        <pt x="915" y="628" on="0"/>
        <pt x="835" y="742" on="1"/>
        <pt x="808" y="780" on="0"/>
      </contour>
      <contour>
        <pt x="846" y="509" on="1"/>
        <pt x="936" y="509" on="1"/>
        <pt x="1304" y="509" on="0"/>
        <pt x="1376" y="260" on="1"/>
        <pt x="1399" y="178" on="0"/>
        <pt x="1399" y="72" on="1"/>
        <pt x="1399" y="0" on="1"/>
        <pt x="846" y="0" on="1"/>
      </contour>
    </TTGlyph>
    <TTGlyph name="kcommaaccent" xMin="125" yMin="-560" xMax="1409" yMax="1531">
      <component glyphName="k" x="0" y="0" flags="0x1204"/>
      <component glyphName="commaaccent" x="245" y="0" flags="0x1004"/>
    </TTGlyph>
    <TTGlyph name="kgreenlandic" xMin="139" yMin="0" xMax="1423" yMax="1033">
      <contour>
        <pt x="822" y="833" on="1"/>
        <pt x="822" y="933" on="0"/>
        <pt x="914" y="986" on="1"/>
        <pt x="996" y="1033" on="0"/>
        <pt x="1125" y="1033" on="1"/>
        <pt x="1326" y="1033" on="0"/>
        <pt x="1398" y="924" on="1"/>
        <pt x="1423" y="886" on="0"/>
        <pt x="1423" y="833" on="1"/>
        <pt x="1423" y="732" on="0"/>
        <pt x="1337" y="678" on="1"/>
        <pt x="1259" y="628" on="0"/>
        <pt x="1132" y="628" on="1"/>
        <pt x="929" y="628" on="0"/>
        <pt x="849" y="742" on="1"/>
        <pt x="822" y="780" on="0"/>
      </contour>
      <contour>
        <pt x="139" y="1020" on="1"/>
        <pt x="676" y="1020" on="1"/>
        <pt x="676" y="0" on="1"/>
        <pt x="139" y="0" on="1"/>
      </contour>
      <contour>
        <pt x="860" y="509" on="1"/>
        <pt x="950" y="509" on="1"/>
        <pt x="1318" y="509" on="0"/>
        <pt x="1390" y="260" on="1"/>
        <pt x="1413" y="178" on="0"/>
        <pt x="1413" y="72" on="1"/>
        <pt x="1413" y="0" on="1"/>
        <pt x="860" y="0" on="1"/>
      </contour>
    </TTGlyph>
    <TTGlyph name="l" xMin="155" yMin="0" xMax="693" yMax="1531">
      <contour>
        <pt x="155" y="1531" on="1"/>
        <pt x="693" y="1531" on="1"/>
        <pt x="693" y="0" on="1"/>
        <pt x="155" y="0" on="1"/>
      </contour>
    </TTGlyph>
    <TTGlyph name="lacute" xMin="68" yMin="0" xMax="783" yMax="2000">
      <contour>
        <pt x="491" y="1521" on="0"/>
        <pt x="334" y="1446" on="0"/>
        <pt x="274" y="1446" on="1"/>
        <pt x="165" y="1446" on="0"/>
        <pt x="113" y="1498" on="1"/>
        <pt x="68" y="1543" on="1"/>
        <pt x="597" y="2000" on="1"/>
        <pt x="783" y="1813" on="1"/>
        <pt x="563" y="1593" on="1"/>
      </contour>
      <contour>
        <pt x="155" y="1359" on="1"/>
        <pt x="693" y="1359" on="1"/>
        <pt x="693" y="0" on="1"/>
        <pt x="155" y="0" on="1"/>
      </contour>
    </TTGlyph>
    <TTGlyph name="lcaron" xMin="155" yMin="0" xMax="1234" yMax="1586">
      <contour>
        <pt x="842" y="1586" on="1"/>
        <pt x="1234" y="1586" on="1"/>
        <pt x="1234" y="1329" on="1"/>
        <pt x="1234" y="1216" on="0"/>
        <pt x="1213" y="1066" on="0"/>
        <pt x="1144" y="975" on="0"/>
        <pt x="1014" y="937" on="0"/>
        <pt x="905" y="937" on="1"/>
        <pt x="842" y="937" on="1"/>
      </contour>
      <contour>
        <pt x="155" y="1531" on="1"/>
        <pt x="693" y="1531" on="1"/>
        <pt x="693" y="0" on="1"/>
        <pt x="155" y="0" on="1"/>
      </contour>
    </TTGlyph>
    <TTGlyph name="lcommaaccent" xMin="155" yMin="-560" xMax="693" yMax="1531">
      <component glyphName="l" x="0" y="0" flags="0x1204"/>
      <component glyphName="commaaccent" x="-84" y="0" flags="0x1004"/>
    </TTGlyph>
    <TTGlyph name="ldot" xMin="240" yMin="0" xMax="1552" yMax="1531">
      <contour>
        <pt x="240" y="1531" on="1"/>
        <pt x="778" y="1531" on="1"/>
        <pt x="778" y="0" on="1"/>
        <pt x="240" y="0" on="1"/>
      </contour>
      <contour>
        <pt x="1247" y="444" on="1"/>
        <pt x="916" y="444" on="0"/>
        <pt x="916" y="651" on="1"/>
        <pt x="916" y="757" on="0"/>
        <pt x="1074" y="850" on="0"/>
        <pt x="1398" y="850" on="0"/>
        <pt x="1552" y="757" on="0"/>
        <pt x="1552" y="544" on="0"/>
        <pt x="1409" y="444" on="0"/>
      </contour>
    </TTGlyph>
    <TTGlyph name="less" xMin="305" yMin="-1" xMax="1053" yMax="1114">
      <contour>
        <pt x="918" y="1114" on="1"/>
        <pt x="1053" y="978" on="1"/>
        <pt x="587" y="548" on="1"/>
        <pt x="1053" y="135" on="1"/>
        <pt x="918" y="-1" on="1"/>
        <pt x="305" y="548" on="1"/>
      </contour>
    </TTGlyph>
    <TTGlyph name="lessequal" xMin="258" yMin="-1" xMax="1279" yMax="1458">
      <contour>
        <pt x="968" y="1458" on="1"/>
        <pt x="1093" y="1322" on="1"/>
        <pt x="617" y="892" on="1"/>
        <pt x="1093" y="479" on="1"/>
        <pt x="968" y="343" on="1"/>
        <pt x="345" y="892" on="1"/>
      </contour>
      <contour>
        <pt x="258" y="191" on="1"/>
        <pt x="1279" y="191" on="1"/>
        <pt x="1279" y="-1" on="1"/>
        <pt x="258" y="-1" on="1"/>
      </contour>
    </TTGlyph>
    <TTGlyph name="logicalnot" xMin="268" yMin="138" xMax="1438" yMax="827">
      <contour>
        <pt x="268" y="827" on="1"/>
        <pt x="1438" y="825" on="1"/>
        <pt x="1438" y="138" on="1"/>
        <pt x="1265" y="138" on="1"/>
        <pt x="1266" y="655" on="1"/>
        <pt x="268" y="655" on="1"/>
      </contour>
    </TTGlyph>
    <TTGlyph name="lozenge" xMin="135" yMin="-340" xMax="1380" yMax="1530">
      <contour>
        <pt x="756" y="1527" on="1"/>
        <pt x="757" y="1529" on="1"/>
        <pt x="758" y="1530" on="1"/>
        <pt x="759" y="1527" on="1"/>
        <pt x="1380" y="596" on="1"/>
        <pt x="758" y="-337" on="1"/>
        <pt x="758" y="-340" on="1"/>
        <pt x="757" y="-339" on="1"/>
        <pt x="135" y="596" on="1"/>
      </contour>
      <contour>
        <pt x="757" y="6" on="1"/>
        <pt x="1108" y="596" on="1"/>
        <pt x="757" y="1183" on="1"/>
        <pt x="407" y="596" on="1"/>
      </contour>
    </TTGlyph>
    <TTGlyph name="lslash" xMin="-17" yMin="0" xMax="1035" yMax="1531">
      <contour>
        <pt x="240" y="439" on="1"/>
        <pt x="132" y="360" on="1"/>
        <pt x="-17" y="509" on="1"/>
        <pt x="250" y="704" on="1"/>
        <pt x="240" y="704" on="1"/>
        <pt x="240" y="1531" on="1"/>
        <pt x="778" y="1531" on="1"/>
        <pt x="778" y="1092" on="1"/>
        <pt x="778" y="1092" on="0"/>
        <pt x="885" y="1170" on="1"/>
        <pt x="1035" y="1021" on="1"/>
        <pt x="768" y="826" on="1"/>
        <pt x="778" y="826" on="1"/>
        <pt x="778" y="0" on="1"/>
        <pt x="240" y="0" on="1"/>
      </contour>
    </TTGlyph>
    <TTGlyph name="m" xMin="169" yMin="0" xMax="2208" yMax="1020">
      <contour>
        <pt x="1655" y="1020" on="1"/>
        <pt x="1745" y="1020" on="1"/>
        <pt x="2113" y="1020" on="0"/>
        <pt x="2184" y="770" on="1"/>
        <pt x="2208" y="689" on="0"/>
        <pt x="2208" y="583" on="1"/>
        <pt x="2208" y="0" on="1"/>
        <pt x="1655" y="0" on="1"/>
      </contour>
      <contour>
        <pt x="913" y="1020" on="1"/>
        <pt x="1003" y="1020" on="1"/>
        <pt x="1371" y="1020" on="0"/>
        <pt x="1442" y="770" on="1"/>
        <pt x="1466" y="689" on="0"/>
        <pt x="1466" y="583" on="1"/>
        <pt x="1466" y="0" on="1"/>
        <pt x="913" y="0" on="1"/>
      </contour>
      <contour>
        <pt x="169" y="1020" on="1"/>
        <pt x="725" y="1020" on="1"/>
        <pt x="725" y="0" on="1"/>
        <pt x="169" y="0" on="1"/>
      </contour>
    </TTGlyph>
    <TTGlyph name="macron" xMin="90" yMin="1200" xMax="932" yMax="1417">
      <contour>
        <pt x="90" y="1417" on="1"/>
        <pt x="932" y="1417" on="1"/>
        <pt x="932" y="1200" on="1"/>
        <pt x="90" y="1200" on="1"/>
      </contour>
    </TTGlyph>
    <TTGlyph name="macron.cap" xMin="145" yMin="1643" xMax="875" yMax="1870">
      <contour>
        <pt x="145" y="1870" on="1"/>
        <pt x="875" y="1870" on="1"/>
        <pt x="875" y="1643" on="1"/>
        <pt x="145" y="1643" on="1"/>
      </contour>
    </TTGlyph>
    <TTGlyph name="minus" xMin="293" yMin="469" xMax="1245" yMax="660">
      <contour>
        <pt x="293" y="660" on="1"/>
        <pt x="1245" y="660" on="1"/>
        <pt x="1245" y="469" on="1"/>
        <pt x="293" y="469" on="1"/>
      </contour>
    </TTGlyph>
    <TTGlyph name="mu" xMin="295" yMin="-510" xMax="1569" yMax="1020">
      <contour>
        <pt x="1013" y="1020" on="1"/>
        <pt x="1569" y="1020" on="1"/>
        <pt x="1569" y="0" on="1"/>
        <pt x="1013" y="0" on="1"/>
      </contour>
      <contour>
        <pt x="295" y="1020" on="1"/>
        <pt x="848" y="1020" on="1"/>
        <pt x="848" y="-510" on="1"/>
        <pt x="295" y="-510" on="1"/>
      </contour>
    </TTGlyph>
    <TTGlyph name="multiply" xMin="305" yMin="93" xMax="1233" yMax="1020">
      <contour>
        <pt x="632" y="556" on="1"/>
        <pt x="305" y="884" on="1"/>
        <pt x="441" y="1020" on="1"/>
        <pt x="768" y="692" on="1"/>
        <pt x="1096" y="1020" on="1"/>
        <pt x="1233" y="884" on="1"/>
        <pt x="905" y="556" on="1"/>
        <pt x="1233" y="229" on="1"/>
        <pt x="1097" y="93" on="1"/>
        <pt x="769" y="420" on="1"/>
        <pt x="441" y="93" on="1"/>
        <pt x="305" y="229" on="1"/>
      </contour>
    </TTGlyph>
    <TTGlyph name="n" xMin="130" yMin="0" xMax="1404" yMax="1020">
      <contour>
        <pt x="851" y="1020" on="1"/>
        <pt x="941" y="1020" on="1"/>
        <pt x="1309" y="1020" on="0"/>
        <pt x="1380" y="770" on="1"/>
        <pt x="1404" y="689" on="0"/>
        <pt x="1404" y="583" on="1"/>
        <pt x="1404" y="0" on="1"/>
        <pt x="851" y="0" on="1"/>
      </contour>
      <contour>
        <pt x="130" y="1020" on="1"/>
        <pt x="686" y="1020" on="1"/>
        <pt x="686" y="0" on="1"/>
        <pt x="130" y="0" on="1"/>
      </contour>
    </TTGlyph>
    <TTGlyph name="nacute" xMin="130" yMin="0" xMax="1404" yMax="1886">
      <component glyphName="n" x="0" y="0" flags="0x1204"/>
      <component glyphName="acute" x="431" y="0" flags="0x1004"/>
    </TTGlyph>
    <TTGlyph name="ncaron" xMin="130" yMin="0" xMax="1404" yMax="1824">
      <component glyphName="n" x="0" y="0" flags="0x1204"/>
      <component glyphName="caron" x="91" y="0" flags="0x1004"/>
    </TTGlyph>
    <TTGlyph name="ncommaaccent" xMin="130" yMin="-560" xMax="1404" yMax="1020">
      <component glyphName="n" x="0" y="0" flags="0x1204"/>
      <component glyphName="commaaccent" x="262" y="0" flags="0x1004"/>
    </TTGlyph>
    <TTGlyph name="nine" xMin="240" yMin="0" xMax="1674" yMax="1361">
      <contour>
        <pt x="1058" y="1361" on="1"/>
        <pt x="1136" y="1361" on="1"/>
        <pt x="1547" y="1361" on="0"/>
        <pt x="1642" y="978" on="1"/>
        <pt x="1674" y="848" on="0"/>
        <pt x="1674" y="671" on="1"/>
        <pt x="1674" y="343" on="0"/>
        <pt x="1405" y="0" on="0"/>
        <pt x="1136" y="0" on="1"/>
        <pt x="1058" y="0" on="1"/>
      </contour>
      <contour>
        <pt x="310" y="707" on="0"/>
        <pt x="240" y="835" on="0"/>
        <pt x="240" y="1060" on="0"/>
        <pt x="305" y="1221" on="0"/>
        <pt x="375" y="1270" on="1"/>
        <pt x="505" y="1361" on="0"/>
        <pt x="819" y="1361" on="1"/>
        <pt x="893" y="1361" on="1"/>
        <pt x="893" y="619" on="1"/>
        <pt x="791" y="619" on="1"/>
        <pt x="493" y="619" on="0"/>
        <pt x="380" y="674" on="1"/>
      </contour>
      <contour>
        <pt x="288" y="467" on="1"/>
        <pt x="893" y="467" on="1"/>
        <pt x="893" y="0" on="1"/>
        <pt x="828" y="0" on="1"/>
        <pt x="541" y="0" on="0"/>
        <pt x="414" y="92" on="1"/>
        <pt x="288" y="183" on="0"/>
        <pt x="288" y="395" on="1"/>
      </contour>
    </TTGlyph>
    <TTGlyph name="notequal" xMin="33" yMin="-60" xMax="985" yMax="1246">
      <contour>
        <pt x="282" y="267" on="1"/>
        <pt x="33" y="267" on="1"/>
        <pt x="33" y="461" on="1"/>
        <pt x="359" y="461" on="1"/>
        <pt x="443" y="670" on="1"/>
        <pt x="33" y="670" on="1"/>
        <pt x="33" y="861" on="1"/>
        <pt x="519" y="861" on="1"/>
        <pt x="673" y="1246" on="1"/>
        <pt x="850" y="1190" on="1"/>
        <pt x="718" y="861" on="1"/>
        <pt x="985" y="861" on="1"/>
        <pt x="985" y="670" on="1"/>
        <pt x="642" y="670" on="1"/>
        <pt x="559" y="461" on="1"/>
        <pt x="985" y="461" on="1"/>
        <pt x="985" y="267" on="1"/>
        <pt x="481" y="267" on="1"/>
        <pt x="351" y="-60" on="1"/>
        <pt x="174" y="-3" on="1"/>
      </contour>
    </TTGlyph>
    <TTGlyph name="ntilde" xMin="130" yMin="0" xMax="1404" yMax="1870">
      <component glyphName="n" x="0" y="0" flags="0x1204"/>
      <component glyphName="tilde" x="91" y="340" flags="0x1004"/>
    </TTGlyph>
    <TTGlyph name="numbersign" xMin="346" yMin="0" xMax="1527" yMax="1588">
      <contour>
        <pt x="564" y="469" on="1"/>
        <pt x="346" y="469" on="1"/>
        <pt x="365" y="660" on="1"/>
        <pt x="586" y="660" on="1"/>
        <pt x="617" y="923" on="1"/>
        <pt x="388" y="923" on="1"/>
        <pt x="407" y="1117" on="1"/>
        <pt x="640" y="1117" on="1"/>
        <pt x="696" y="1588" on="1"/>
        <pt x="887" y="1588" on="1"/>
        <pt x="831" y="1117" on="1"/>
        <pt x="1127" y="1116" on="1"/>
        <pt x="1183" y="1588" on="1"/>
        <pt x="1375" y="1588" on="1"/>
        <pt x="1319" y="1116" on="1"/>
        <pt x="1527" y="1116" on="1"/>
        <pt x="1509" y="923" on="1"/>
        <pt x="1296" y="923" on="1"/>
        <pt x="1265" y="660" on="1"/>
        <pt x="1484" y="660" on="1"/>
        <pt x="1467" y="469" on="1"/>
        <pt x="1243" y="469" on="1"/>
        <pt x="1188" y="0" on="1"/>
        <pt x="995" y="0" on="1"/>
        <pt x="1050" y="469" on="1"/>
        <pt x="756" y="469" on="1"/>
        <pt x="701" y="0" on="1"/>
        <pt x="509" y="0" on="1"/>
      </contour>
      <contour>
        <pt x="1073" y="660" on="1"/>
        <pt x="1104" y="923" on="1"/>
        <pt x="809" y="923" on="1"/>
        <pt x="778" y="660" on="1"/>
      </contour>
    </TTGlyph>
    <TTGlyph name="o" xMin="112" yMin="0" xMax="1422" yMax="1020">
      <contour>
        <pt x="848" y="1020" on="1"/>
        <pt x="925" y="1020" on="1"/>
        <pt x="1171" y="1020" on="0"/>
        <pt x="1303" y="868" on="1"/>
        <pt x="1422" y="730" on="0"/>
        <pt x="1422" y="502" on="1"/>
        <pt x="1422" y="270" on="0"/>
        <pt x="1290" y="138" on="1"/>
        <pt x="1152" y="0" on="0"/>
        <pt x="900" y="0" on="1"/>
        <pt x="848" y="0" on="1"/>
      </contour>
      <contour>
        <pt x="112" y="498" on="1"/>
        <pt x="112" y="608" on="0"/>
        <pt x="170" y="797" on="0"/>
        <pt x="231" y="868" on="1"/>
        <pt x="363" y="1020" on="0"/>
        <pt x="609" y="1020" on="1"/>
        <pt x="686" y="1020" on="1"/>
        <pt x="686" y="0" on="1"/>
        <pt x="634" y="0" on="1"/>
        <pt x="382" y="0" on="0"/>
        <pt x="244" y="138" on="1"/>
        <pt x="112" y="270" on="0"/>
      </contour>
    </TTGlyph>
    <TTGlyph name="oacute" xMin="112" yMin="0" xMax="1422" yMax="1886">
      <component glyphName="o" x="0" y="0" flags="0x1204"/>
      <component glyphName="acute" x="422" y="0" flags="0x1004"/>
    </TTGlyph>
    <TTGlyph name="obreve" xMin="112" yMin="0" xMax="1422" yMax="1699">
      <component glyphName="o" x="0" y="0" flags="0x1204"/>
      <component glyphName="breve" x="82" y="0" flags="0x1004"/>
    </TTGlyph>
    <TTGlyph name="ocircumflex" xMin="112" yMin="0" xMax="1422" yMax="1884">
      <component glyphName="o" x="0" y="0" flags="0x1204"/>
      <component glyphName="circumflex" x="82" y="0" flags="0x1004"/>
    </TTGlyph>
    <TTGlyph name="odieresis" xMin="112" yMin="0" xMax="1422" yMax="1706">
      <component glyphName="o" x="0" y="0" flags="0x1204"/>
      <component glyphName="dieresis" x="82" y="0" flags="0x1004"/>
    </TTGlyph>
    <TTGlyph name="oe" xMin="112" yMin="0" xMax="2127" yMax="1020">
      <contour>
        <pt x="1573" y="1020" on="1"/>
        <pt x="1639" y="1020" on="1"/>
        <pt x="2017" y="1020" on="0"/>
        <pt x="2100" y="764" on="1"/>
        <pt x="2127" y="679" on="0"/>
        <pt x="2127" y="567" on="1"/>
        <pt x="2127" y="457" on="1"/>
        <pt x="1573" y="457" on="1"/>
      </contour>
      <contour>
        <pt x="848" y="1020" on="1"/>
        <pt x="925" y="1020" on="1"/>
        <pt x="982" y="1020" on="0"/>
        <pt x="1068" y="986" on="0"/>
        <pt x="1106" y="968" on="1"/>
        <pt x="1137" y="953" on="1"/>
        <pt x="1142" y="955" on="0"/>
        <pt x="1157" y="964" on="0"/>
        <pt x="1180" y="975" on="1"/>
        <pt x="1272" y="1020" on="0"/>
        <pt x="1348" y="1020" on="1"/>
        <pt x="1425" y="1020" on="1"/>
        <pt x="1425" y="0" on="1"/>
        <pt x="1373" y="0" on="1"/>
        <pt x="1308" y="0" on="0"/>
        <pt x="1203" y="39" on="0"/>
        <pt x="1152" y="62" on="0"/>
        <pt x="1142" y="68" on="0"/>
        <pt x="1137" y="70" on="1"/>
        <pt x="1112" y="59" on="1"/>
        <pt x="1068" y="39" on="0"/>
        <pt x="964" y="0" on="0"/>
        <pt x="900" y="0" on="1"/>
        <pt x="848" y="0" on="1"/>
      </contour>
      <contour>
        <pt x="112" y="498" on="1"/>
        <pt x="112" y="608" on="0"/>
        <pt x="170" y="797" on="0"/>
        <pt x="231" y="868" on="1"/>
        <pt x="363" y="1020" on="0"/>
        <pt x="609" y="1020" on="1"/>
        <pt x="686" y="1020" on="1"/>
        <pt x="686" y="0" on="1"/>
        <pt x="634" y="0" on="1"/>
        <pt x="382" y="0" on="0"/>
        <pt x="244" y="138" on="1"/>
        <pt x="112" y="270" on="0"/>
      </contour>
      <contour>
        <pt x="1573" y="261" on="1"/>
        <pt x="2073" y="261" on="1"/>
        <pt x="2073" y="233" on="1"/>
        <pt x="2073" y="140" on="0"/>
        <pt x="2006" y="76" on="1"/>
        <pt x="1924" y="0" on="0"/>
        <pt x="1773" y="0" on="1"/>
        <pt x="1573" y="0" on="1"/>
      </contour>
    </TTGlyph>
    <TTGlyph name="ogonek" xMin="145" yMin="-560" xMax="705" yMax="52">
      <contour>
        <pt x="145" y="-262" on="1"/>
        <pt x="145" y="-191" on="0"/>
        <pt x="190" y="-75" on="0"/>
        <pt x="230" y="-34" on="1"/>
        <pt x="315" y="52" on="0"/>
        <pt x="450" y="52" on="1"/>
        <pt x="450" y="-28" on="1"/>
        <pt x="450" y="-140" on="0"/>
        <pt x="494" y="-208" on="0"/>
        <pt x="543" y="-230" on="0"/>
        <pt x="579" y="-230" on="1"/>
        <pt x="705" y="-230" on="1"/>
        <pt x="705" y="-560" on="1"/>
        <pt x="489" y="-560" on="1"/>
        <pt x="348" y="-560" on="0"/>
        <pt x="251" y="-483" on="1"/>
        <pt x="145" y="-399" on="0"/>
      </contour>
    </TTGlyph>
    <TTGlyph name="ograve" xMin="112" yMin="0" xMax="1422" yMax="1886">
      <component glyphName="o" x="0" y="0" flags="0x1204"/>
      <component glyphName="grave" x="82" y="0" flags="0x1004"/>
    </TTGlyph>
    <TTGlyph name="ohungarumlaut" xMin="112" yMin="0" xMax="1533" yMax="1886">
      <component glyphName="o" x="0" y="0" flags="0x1204"/>
      <component glyphName="hungarumlaut" x="165" y="0" flags="0x1004"/>
    </TTGlyph>
    <TTGlyph name="omacron" xMin="112" yMin="0" xMax="1422" yMax="1587">
      <component glyphName="o" x="0" y="0" flags="0x1204"/>
      <component glyphName="macron" x="252" y="170" flags="0x1004"/>
    </TTGlyph>
    <TTGlyph name="one" xMin="301" yMin="0" xMax="891" yMax="1405">
      <contour>
        <pt x="301" y="1241" on="1"/>
        <pt x="891" y="1405" on="1"/>
        <pt x="891" y="0" on="1"/>
        <pt x="301" y="0" on="1"/>
      </contour>
    </TTGlyph>
    <TTGlyph name="onehalf" xMin="466" yMin="-510" xMax="1572" yMax="1962">
      <contour>
        <pt x="737" y="1819" on="1"/>
        <pt x="1296" y="1962" on="1"/>
        <pt x="1296" y="850" on="1"/>
        <pt x="737" y="850" on="1"/>
      </contour>
      <contour>
        <pt x="1091" y="510" on="1"/>
        <pt x="1253" y="510" on="1"/>
        <pt x="1500" y="510" on="0"/>
        <pt x="1554" y="332" on="1"/>
        <pt x="1572" y="272" on="0"/>
        <pt x="1572" y="193" on="1"/>
        <pt x="1572" y="50" on="0"/>
        <pt x="1419" y="-101" on="0"/>
        <pt x="1268" y="-101" on="1"/>
        <pt x="1091" y="-101" on="1"/>
      </contour>
      <contour>
        <pt x="466" y="240" on="1"/>
        <pt x="466" y="363" on="0"/>
        <pt x="547" y="438" on="1"/>
        <pt x="624" y="510" on="0"/>
        <pt x="733" y="510" on="1"/>
        <pt x="940" y="510" on="1"/>
        <pt x="940" y="90" on="1"/>
        <pt x="466" y="90" on="1"/>
      </contour>
      <contour>
        <pt x="471" y="-341" on="1"/>
        <pt x="468" y="-123" on="0"/>
        <pt x="643" y="-60" on="1"/>
        <pt x="700" y="-40" on="0"/>
        <pt x="775" y="-40" on="1"/>
        <pt x="940" y="-40" on="1"/>
        <pt x="940" y="-510" on="1"/>
        <pt x="472" y="-510" on="1"/>
      </contour>
      <contour>
        <pt x="1539" y="-254" on="1"/>
        <pt x="1539" y="-510" on="1"/>
        <pt x="1091" y="-510" on="1"/>
        <pt x="1091" y="-254" on="1"/>
      </contour>
    </TTGlyph>
    <TTGlyph name="onequarter" xMin="421" yMin="-510" xMax="1617" yMax="1962">
      <contour>
        <pt x="731" y="1819" on="1"/>
        <pt x="1290" y="1962" on="1"/>
        <pt x="1290" y="850" on="1"/>
        <pt x="731" y="850" on="1"/>
      </contour>
      <contour>
        <pt x="421" y="127" on="1"/>
        <pt x="421" y="251" on="0"/>
        <pt x="465" y="368" on="0"/>
        <pt x="521" y="437" on="0"/>
        <pt x="566" y="460" on="1"/>
        <pt x="662" y="510" on="0"/>
        <pt x="829" y="510" on="1"/>
        <pt x="943" y="510" on="1"/>
        <pt x="943" y="-255" on="1"/>
        <pt x="421" y="-255" on="1"/>
      </contour>
      <contour>
        <pt x="1617" y="252" on="1"/>
        <pt x="1617" y="-510" on="1"/>
        <pt x="1098" y="-510" on="1"/>
        <pt x="1098" y="252" on="1"/>
      </contour>
    </TTGlyph>
    <TTGlyph name="onesuperior" xMin="318" yMin="850" xMax="877" yMax="1962">
      <contour>
        <pt x="318" y="1819" on="1"/>
        <pt x="877" y="1962" on="1"/>
        <pt x="877" y="850" on="1"/>
        <pt x="318" y="850" on="1"/>
      </contour>
    </TTGlyph>
    <TTGlyph name="ordfeminine" xMin="340" yMin="734" xMax="1699" yMax="1487">
      <contour>
        <pt x="1104" y="1487" on="1"/>
        <pt x="1699" y="1487" on="1"/>
        <pt x="1699" y="736" on="1"/>
        <pt x="1600" y="734" on="1"/>
        <pt x="1366" y="734" on="0"/>
        <pt x="1228" y="852" on="1"/>
        <pt x="1104" y="958" on="0"/>
        <pt x="1104" y="1111" on="1"/>
      </contour>
      <contour>
        <pt x="834" y="734" on="1"/>
        <pt x="600" y="734" on="0"/>
        <pt x="464" y="852" on="1"/>
        <pt x="340" y="958" on="0"/>
        <pt x="340" y="1111" on="1"/>
        <pt x="340" y="1276" on="0"/>
        <pt x="466" y="1378" on="1"/>
        <pt x="599" y="1487" on="0"/>
        <pt x="839" y="1487" on="1"/>
        <pt x="936" y="1487" on="1"/>
        <pt x="936" y="736" on="1"/>
      </contour>
    </TTGlyph>
    <TTGlyph name="ordmasculine" xMin="341" yMin="734" xMax="1700" yMax="1487">
      <contour>
        <pt x="1105" y="1487" on="1"/>
        <pt x="1202" y="1487" on="1"/>
        <pt x="1442" y="1487" on="0"/>
        <pt x="1575" y="1378" on="1"/>
        <pt x="1700" y="1275" on="0"/>
        <pt x="1700" y="1111" on="1"/>
        <pt x="1700" y="958" on="0"/>
        <pt x="1576" y="852" on="1"/>
        <pt x="1440" y="734" on="0"/>
        <pt x="1207" y="734" on="1"/>
        <pt x="1105" y="736" on="1"/>
      </contour>
      <contour>
        <pt x="835" y="734" on="1"/>
        <pt x="601" y="734" on="0"/>
        <pt x="464" y="852" on="1"/>
        <pt x="341" y="958" on="0"/>
        <pt x="341" y="1111" on="1"/>
        <pt x="341" y="1276" on="0"/>
        <pt x="466" y="1378" on="1"/>
        <pt x="600" y="1487" on="0"/>
        <pt x="840" y="1487" on="1"/>
        <pt x="937" y="1487" on="1"/>
        <pt x="937" y="736" on="1"/>
      </contour>
    </TTGlyph>
    <TTGlyph name="oslash" xMin="-18" yMin="-188" xMax="1548" yMax="1208">
      <contour>
        <pt x="1332" y="830" on="1"/>
        <pt x="1422" y="689" on="0"/>
        <pt x="1422" y="502" on="1"/>
        <pt x="1422" y="270" on="0"/>
        <pt x="1290" y="138" on="1"/>
        <pt x="1152" y="0" on="0"/>
        <pt x="900" y="0" on="1"/>
        <pt x="848" y="0" on="1"/>
        <pt x="848" y="1020" on="1"/>
        <pt x="925" y="1020" on="1"/>
        <pt x="1070" y="1020" on="0"/>
        <pt x="1164" y="972" on="1"/>
        <pt x="1393" y="1208" on="1"/>
        <pt x="1548" y="1054" on="1"/>
        <pt x="1329" y="830" on="1"/>
      </contour>
      <contour>
        <pt x="634" y="0" on="1"/>
        <pt x="487" y="0" on="0"/>
        <pt x="374" y="50" on="1"/>
        <pt x="136" y="-188" on="1"/>
        <pt x="-18" y="-34" on="1"/>
        <pt x="204" y="188" on="1"/>
        <pt x="201" y="188" on="1"/>
        <pt x="112" y="319" on="0"/>
        <pt x="112" y="502" on="1"/>
        <pt x="112" y="730" on="0"/>
        <pt x="231" y="868" on="1"/>
        <pt x="363" y="1020" on="0"/>
        <pt x="609" y="1020" on="1"/>
        <pt x="686" y="1020" on="1"/>
        <pt x="686" y="0" on="1"/>
      </contour>
    </TTGlyph>
    <TTGlyph name="otilde" xMin="112" yMin="0" xMax="1422" yMax="1870">
      <component glyphName="o" x="0" y="0" flags="0x1204"/>
      <component glyphName="tilde" x="82" y="340" flags="0x1004"/>
    </TTGlyph>
    <TTGlyph name="p" xMin="130" yMin="-340" xMax="1404" yMax="1020">
      <contour>
        <pt x="830" y="1020" on="1"/>
        <pt x="907" y="1020" on="1"/>
        <pt x="1153" y="1020" on="0"/>
        <pt x="1285" y="868" on="1"/>
        <pt x="1404" y="730" on="0"/>
        <pt x="1404" y="502" on="1"/>
        <pt x="1404" y="270" on="0"/>
        <pt x="1272" y="138" on="1"/>
        <pt x="1134" y="0" on="0"/>
        <pt x="882" y="0" on="1"/>
        <pt x="830" y="0" on="1"/>
      </contour>
      <contour>
        <pt x="130" y="1020" on="1"/>
        <pt x="668" y="1020" on="1"/>
        <pt x="668" y="-340" on="1"/>
        <pt x="130" y="-340" on="1"/>
      </contour>
    </TTGlyph>
    <TTGlyph name="paragraph" xMin="338" yMin="-171" xMax="1709" yMax="1530">
      <contour>
        <pt x="1171" y="1530" on="1"/>
        <pt x="1709" y="1530" on="1"/>
        <pt x="1709" y="-171" on="1"/>
        <pt x="1171" y="-171" on="1"/>
      </contour>
      <contour>
        <pt x="889" y="340" on="1"/>
        <pt x="633" y="340" on="0"/>
        <pt x="478" y="532" on="1"/>
        <pt x="338" y="705" on="0"/>
        <pt x="338" y="929" on="1"/>
        <pt x="338" y="1176" on="0"/>
        <pt x="473" y="1343" on="1"/>
        <pt x="624" y="1530" on="0"/>
        <pt x="917" y="1530" on="1"/>
        <pt x="991" y="1530" on="1"/>
        <pt x="991" y="340" on="1"/>
      </contour>
    </TTGlyph>
    <TTGlyph name="parenleft" xMin="162" yMin="-350" xMax="958" yMax="1534">
      <contour>
        <pt x="162" y="592" on="1"/>
        <pt x="162" y="1104" on="0"/>
        <pt x="472" y="1357" on="1"/>
        <pt x="638" y="1494" on="0"/>
        <pt x="856" y="1526" on="1"/>
        <pt x="914" y="1534" on="0"/>
        <pt x="958" y="1534" on="1"/>
        <pt x="958" y="1360" on="1"/>
        <pt x="774" y="1360" on="0"/>
        <pt x="605" y="1228" on="1"/>
        <pt x="458" y="1113" on="0"/>
        <pt x="392" y="882" on="1"/>
        <pt x="358" y="760" on="0"/>
        <pt x="358" y="592" on="1"/>
        <pt x="358" y="286" on="0"/>
        <pt x="482" y="94" on="1"/>
        <pt x="577" y="-55" on="0"/>
        <pt x="740" y="-126" on="1"/>
        <pt x="851" y="-176" on="0"/>
        <pt x="958" y="-176" on="1"/>
        <pt x="958" y="-350" on="1"/>
        <pt x="781" y="-350" on="0"/>
        <pt x="602" y="-259" on="1"/>
        <pt x="459" y="-187" on="0"/>
        <pt x="352" y="-51" on="1"/>
        <pt x="162" y="187" on="0"/>
      </contour>
    </TTGlyph>
    <TTGlyph name="parenright" xMin="224" yMin="-350" xMax="1020" yMax="1534">
      <contour>
        <pt x="224" y="-176" on="1"/>
        <pt x="407" y="-176" on="0"/>
        <pt x="577" y="-44" on="1"/>
        <pt x="724" y="69" on="0"/>
        <pt x="790" y="302" on="1"/>
        <pt x="824" y="424" on="0"/>
        <pt x="824" y="592" on="1"/>
        <pt x="824" y="897" on="0"/>
        <pt x="700" y="1090" on="1"/>
        <pt x="604" y="1239" on="0"/>
        <pt x="442" y="1310" on="1"/>
        <pt x="331" y="1360" on="0"/>
        <pt x="224" y="1360" on="1"/>
        <pt x="224" y="1534" on="1"/>
        <pt x="401" y="1534" on="0"/>
        <pt x="580" y="1443" on="1"/>
        <pt x="721" y="1372" on="0"/>
        <pt x="830" y="1234" on="1"/>
        <pt x="1020" y="998" on="0"/>
        <pt x="1020" y="592" on="1"/>
        <pt x="1020" y="78" on="0"/>
        <pt x="710" y="-174" on="1"/>
        <pt x="542" y="-310" on="0"/>
        <pt x="326" y="-342" on="1"/>
        <pt x="268" y="-350" on="0"/>
        <pt x="224" y="-350" on="1"/>
      </contour>
    </TTGlyph>
    <TTGlyph name="partialdiff" xMin="305" yMin="0" xMax="1634" yMax="1771">
      <contour>
        <pt x="1018" y="1771" on="1"/>
        <pt x="1096" y="1771" on="1"/>
        <pt x="1286" y="1771" on="0"/>
        <pt x="1418" y="1622" on="1"/>
        <pt x="1581" y="1439" on="0"/>
        <pt x="1622" y="1094" on="1"/>
        <pt x="1634" y="999" on="0"/>
        <pt x="1634" y="829" on="0"/>
        <pt x="1611" y="624" on="0"/>
        <pt x="1560" y="420" on="0"/>
        <pt x="1478" y="232" on="0"/>
        <pt x="1418" y="160" on="1"/>
        <pt x="1286" y="0" on="0"/>
        <pt x="1096" y="0" on="1"/>
        <pt x="1018" y="0" on="1"/>
      </contour>
      <contour>
        <pt x="305" y="498" on="1"/>
        <pt x="305" y="608" on="0"/>
        <pt x="363" y="797" on="0"/>
        <pt x="424" y="868" on="1"/>
        <pt x="556" y="1020" on="0"/>
        <pt x="802" y="1020" on="1"/>
        <pt x="879" y="1020" on="1"/>
        <pt x="879" y="0" on="1"/>
        <pt x="827" y="0" on="1"/>
        <pt x="575" y="0" on="0"/>
        <pt x="437" y="138" on="1"/>
        <pt x="305" y="270" on="0"/>
      </contour>
    </TTGlyph>
    <TTGlyph name="percent" xMin="264" yMin="-340" xMax="2474" yMax="1709">
      <contour>
        <pt x="1579" y="1709" on="1"/>
        <pt x="1817" y="1644" on="1"/>
        <pt x="1160" y="-340" on="1"/>
        <pt x="922" y="-274" on="1"/>
      </contour>
      <contour>
        <pt x="747" y="1330" on="1"/>
        <pt x="786" y="1330" on="1"/>
        <pt x="982" y="1330" on="0"/>
        <pt x="1034" y="1193" on="1"/>
        <pt x="1051" y="1150" on="0"/>
        <pt x="1051" y="1096" on="1"/>
        <pt x="1051" y="732" on="1"/>
        <pt x="1052" y="623" on="0"/>
        <pt x="918" y="497" on="0"/>
        <pt x="786" y="497" on="1"/>
        <pt x="747" y="497" on="1"/>
      </contour>
      <contour>
        <pt x="531" y="497" on="1"/>
        <pt x="398" y="497" on="0"/>
        <pt x="264" y="623" on="0"/>
        <pt x="265" y="732" on="1"/>
        <pt x="265" y="1096" on="1"/>
        <pt x="265" y="1264" on="0"/>
        <pt x="415" y="1314" on="1"/>
        <pt x="465" y="1330" on="0"/>
        <pt x="531" y="1330" on="1"/>
        <pt x="570" y="1330" on="1"/>
        <pt x="570" y="497" on="1"/>
      </contour>
      <contour>
        <pt x="2169" y="827" on="1"/>
        <pt x="2210" y="827" on="1"/>
        <pt x="2405" y="827" on="0"/>
        <pt x="2458" y="690" on="1"/>
        <pt x="2474" y="647" on="0"/>
        <pt x="2474" y="593" on="1"/>
        <pt x="2474" y="222" on="1"/>
        <pt x="2474" y="54" on="0"/>
        <pt x="2324" y="4" on="1"/>
        <pt x="2275" y="-12" on="0"/>
        <pt x="2210" y="-12" on="1"/>
        <pt x="2169" y="-12" on="1"/>
      </contour>
      <contour>
        <pt x="1688" y="593" on="1"/>
        <pt x="1687" y="701" on="0"/>
        <pt x="1822" y="827" on="0"/>
        <pt x="1953" y="827" on="1"/>
        <pt x="1992" y="827" on="1"/>
        <pt x="1992" y="-12" on="1"/>
        <pt x="1953" y="-12" on="1"/>
        <pt x="1822" y="-12" on="0"/>
        <pt x="1687" y="114" on="0"/>
        <pt x="1688" y="222" on="1"/>
      </contour>
    </TTGlyph>
    <TTGlyph name="period" xMin="109" yMin="0" xMax="745" yMax="406">
      <contour>
        <pt x="440" y="0" on="1"/>
        <pt x="109" y="0" on="0"/>
        <pt x="109" y="207" on="1"/>
        <pt x="109" y="313" on="0"/>
        <pt x="267" y="406" on="0"/>
        <pt x="591" y="406" on="0"/>
        <pt x="745" y="313" on="0"/>
        <pt x="745" y="100" on="0"/>
        <pt x="602" y="0" on="0"/>
      </contour>
    </TTGlyph>
    <TTGlyph name="periodcentered" xMin="109" yMin="444" xMax="745" yMax="850">
      <contour>
        <pt x="440" y="444" on="1"/>
        <pt x="109" y="444" on="0"/>
        <pt x="109" y="651" on="1"/>
        <pt x="109" y="757" on="0"/>
        <pt x="267" y="850" on="0"/>
        <pt x="591" y="850" on="0"/>
        <pt x="745" y="757" on="0"/>
        <pt x="745" y="544" on="0"/>
        <pt x="602" y="444" on="0"/>
      </contour>
    </TTGlyph>
    <TTGlyph name="perthousand" xMin="264" yMin="-340" xMax="3506" yMax="1709">
      <contour>
        <pt x="1579" y="1709" on="1"/>
        <pt x="1817" y="1644" on="1"/>
        <pt x="1160" y="-340" on="1"/>
        <pt x="922" y="-274" on="1"/>
      </contour>
      <contour>
        <pt x="747" y="1330" on="1"/>
        <pt x="786" y="1330" on="1"/>
        <pt x="982" y="1330" on="0"/>
        <pt x="1034" y="1193" on="1"/>
        <pt x="1051" y="1150" on="0"/>
        <pt x="1051" y="1096" on="1"/>
        <pt x="1051" y="732" on="1"/>
        <pt x="1052" y="623" on="0"/>
        <pt x="918" y="497" on="0"/>
        <pt x="786" y="497" on="1"/>
        <pt x="747" y="497" on="1"/>
      </contour>
      <contour>
        <pt x="531" y="497" on="1"/>
        <pt x="398" y="497" on="0"/>
        <pt x="264" y="623" on="0"/>
        <pt x="265" y="732" on="1"/>
        <pt x="265" y="1096" on="1"/>
        <pt x="265" y="1264" on="0"/>
        <pt x="415" y="1314" on="1"/>
        <pt x="465" y="1330" on="0"/>
        <pt x="531" y="1330" on="1"/>
        <pt x="570" y="1330" on="1"/>
        <pt x="570" y="497" on="1"/>
      </contour>
      <contour>
        <pt x="3201" y="827" on="1"/>
        <pt x="3242" y="827" on="1"/>
        <pt x="3437" y="827" on="0"/>
        <pt x="3490" y="690" on="1"/>
        <pt x="3506" y="647" on="0"/>
        <pt x="3506" y="593" on="1"/>
        <pt x="3506" y="222" on="1"/>
        <pt x="3506" y="54" on="0"/>
        <pt x="3356" y="4" on="1"/>
        <pt x="3307" y="-12" on="0"/>
        <pt x="3242" y="-12" on="1"/>
        <pt x="3201" y="-12" on="1"/>
      </contour>
      <contour>
        <pt x="2720" y="593" on="1"/>
        <pt x="2719" y="701" on="0"/>
        <pt x="2854" y="827" on="0"/>
        <pt x="2985" y="827" on="1"/>
        <pt x="3024" y="827" on="1"/>
        <pt x="3024" y="-12" on="1"/>
        <pt x="2985" y="-12" on="1"/>
        <pt x="2854" y="-12" on="0"/>
        <pt x="2719" y="114" on="0"/>
        <pt x="2720" y="222" on="1"/>
      </contour>
      <contour>
        <pt x="2169" y="827" on="1"/>
        <pt x="2210" y="827" on="1"/>
        <pt x="2405" y="827" on="0"/>
        <pt x="2458" y="690" on="1"/>
        <pt x="2474" y="647" on="0"/>
        <pt x="2474" y="593" on="1"/>
        <pt x="2474" y="222" on="1"/>
        <pt x="2474" y="54" on="0"/>
        <pt x="2324" y="4" on="1"/>
        <pt x="2275" y="-12" on="0"/>
        <pt x="2210" y="-12" on="1"/>
        <pt x="2169" y="-12" on="1"/>
      </contour>
      <contour>
        <pt x="1688" y="593" on="1"/>
        <pt x="1687" y="701" on="0"/>
        <pt x="1822" y="827" on="0"/>
        <pt x="1953" y="827" on="1"/>
        <pt x="1992" y="827" on="1"/>
        <pt x="1992" y="-12" on="1"/>
        <pt x="1953" y="-12" on="1"/>
        <pt x="1822" y="-12" on="0"/>
        <pt x="1687" y="114" on="0"/>
        <pt x="1688" y="222" on="1"/>
      </contour>
    </TTGlyph>
    <TTGlyph name="pi" xMin="232" yMin="0" xMax="1642" yMax="1190">
      <contour>
        <pt x="232" y="1190" on="1"/>
        <pt x="1642" y="1190" on="1"/>
        <pt x="1642" y="850" on="1"/>
        <pt x="232" y="850" on="1"/>
      </contour>
      <contour>
        <pt x="1081" y="680" on="1"/>
        <pt x="1471" y="680" on="1"/>
        <pt x="1471" y="0" on="1"/>
        <pt x="1381" y="0" on="1"/>
        <pt x="1178" y="0" on="0"/>
        <pt x="1120" y="112" on="1"/>
        <pt x="1092" y="168" on="0"/>
        <pt x="1081" y="331" on="0"/>
        <pt x="1081" y="437" on="1"/>
      </contour>
      <contour>
        <pt x="402" y="680" on="1"/>
        <pt x="791" y="680" on="1"/>
        <pt x="791" y="0" on="1"/>
        <pt x="402" y="0" on="1"/>
      </contour>
    </TTGlyph>
    <TTGlyph name="plus" xMin="259" yMin="50" xMax="1279" yMax="1109">
      <contour>
        <pt x="259" y="650" on="1"/>
        <pt x="685" y="650" on="1"/>
        <pt x="685" y="1109" on="1"/>
        <pt x="855" y="1109" on="1"/>
        <pt x="855" y="650" on="1"/>
        <pt x="1279" y="650" on="1"/>
        <pt x="1279" y="479" on="1"/>
        <pt x="855" y="479" on="1"/>
        <pt x="855" y="50" on="1"/>
        <pt x="685" y="50" on="1"/>
        <pt x="685" y="479" on="1"/>
        <pt x="259" y="479" on="1"/>
      </contour>
    </TTGlyph>
    <TTGlyph name="plusminus" xMin="258" yMin="-1" xMax="1279" yMax="1298">
      <contour>
        <pt x="259" y="840" on="1"/>
        <pt x="684" y="840" on="1"/>
        <pt x="684" y="1298" on="1"/>
        <pt x="854" y="1298" on="1"/>
        <pt x="854" y="840" on="1"/>
        <pt x="1279" y="840" on="1"/>
        <pt x="1279" y="669" on="1"/>
        <pt x="854" y="669" on="1"/>
        <pt x="854" y="358" on="1"/>
        <pt x="684" y="358" on="1"/>
        <pt x="684" y="669" on="1"/>
        <pt x="259" y="669" on="1"/>
      </contour>
      <contour>
        <pt x="258" y="171" on="1"/>
        <pt x="1279" y="171" on="1"/>
        <pt x="1279" y="-1" on="1"/>
        <pt x="258" y="-1" on="1"/>
      </contour>
    </TTGlyph>
    <TTGlyph name="product" xMin="232" yMin="0" xMax="1642" yMax="1530">
      <contour>
        <pt x="232" y="1530" on="1"/>
        <pt x="1642" y="1530" on="1"/>
        <pt x="1642" y="1196" on="1"/>
        <pt x="232" y="1196" on="1"/>
      </contour>
      <contour>
        <pt x="1082" y="1020" on="1"/>
        <pt x="1472" y="1020" on="1"/>
        <pt x="1472" y="0" on="1"/>
        <pt x="1082" y="0" on="1"/>
      </contour>
      <contour>
        <pt x="402" y="1020" on="1"/>
        <pt x="792" y="1020" on="1"/>
        <pt x="792" y="0" on="1"/>
        <pt x="402" y="0" on="1"/>
      </contour>
    </TTGlyph>
    <TTGlyph name="q" xMin="130" yMin="-340" xMax="1404" yMax="1020">
      <contour>
        <pt x="866" y="1020" on="1"/>
        <pt x="1404" y="1020" on="1"/>
        <pt x="1404" y="-340" on="1"/>
        <pt x="866" y="-340" on="1"/>
      </contour>
      <contour>
        <pt x="130" y="498" on="1"/>
        <pt x="130" y="608" on="0"/>
        <pt x="188" y="797" on="0"/>
        <pt x="249" y="868" on="1"/>
        <pt x="381" y="1020" on="0"/>
        <pt x="627" y="1020" on="1"/>
        <pt x="704" y="1020" on="1"/>
        <pt x="704" y="0" on="1"/>
        <pt x="652" y="0" on="1"/>
        <pt x="400" y="0" on="0"/>
        <pt x="262" y="138" on="1"/>
        <pt x="130" y="270" on="0"/>
      </contour>
    </TTGlyph>
    <TTGlyph name="question" xMin="299" yMin="-38" xMax="1575" yMax="1869">
      <contour>
        <pt x="1001" y="1869" on="1"/>
        <pt x="1078" y="1869" on="1"/>
        <pt x="1324" y="1869" on="0"/>
        <pt x="1456" y="1716" on="1"/>
        <pt x="1575" y="1579" on="0"/>
        <pt x="1575" y="1351" on="1"/>
        <pt x="1575" y="1119" on="0"/>
        <pt x="1443" y="987" on="1"/>
        <pt x="1305" y="849" on="0"/>
        <pt x="1053" y="849" on="1"/>
        <pt x="1001" y="849" on="1"/>
      </contour>
      <contour>
        <pt x="299" y="1416" on="1"/>
        <pt x="299" y="1759" on="0"/>
        <pt x="564" y="1840" on="1"/>
        <pt x="657" y="1869" on="0"/>
        <pt x="787" y="1869" on="1"/>
        <pt x="853" y="1869" on="1"/>
        <pt x="853" y="1306" on="1"/>
        <pt x="299" y="1306" on="1"/>
      </contour>
      <contour>
        <pt x="631" y="147" on="1"/>
        <pt x="631" y="233" on="0"/>
        <pt x="718" y="282" on="1"/>
        <pt x="803" y="331" on="0"/>
        <pt x="936" y="331" on="1"/>
        <pt x="1071" y="331" on="0"/>
        <pt x="1162" y="282" on="1"/>
        <pt x="1257" y="232" on="0"/>
        <pt x="1257" y="147" on="1"/>
        <pt x="1257" y="62" on="0"/>
        <pt x="1170" y="11" on="1"/>
        <pt x="1088" y="-38" on="0"/>
        <pt x="955" y="-38" on="1"/>
        <pt x="821" y="-38" on="0"/>
        <pt x="729" y="11" on="1"/>
        <pt x="631" y="63" on="0"/>
      </contour>
    </TTGlyph>
    <TTGlyph name="questiondown" xMin="299" yMin="-38" xMax="1575" yMax="1869">
      <contour>
        <pt x="938" y="1500" on="1"/>
        <pt x="803" y="1500" on="0"/>
        <pt x="712" y="1548" on="1"/>
        <pt x="617" y="1599" on="0"/>
        <pt x="617" y="1769" on="0"/>
        <pt x="704" y="1820" on="1"/>
        <pt x="786" y="1869" on="0"/>
        <pt x="919" y="1869" on="1"/>
        <pt x="1053" y="1869" on="0"/>
        <pt x="1145" y="1820" on="1"/>
        <pt x="1243" y="1768" on="0"/>
        <pt x="1243" y="1684" on="1"/>
        <pt x="1243" y="1598" on="0"/>
        <pt x="1156" y="1548" on="1"/>
        <pt x="1071" y="1500" on="0"/>
      </contour>
      <contour>
        <pt x="299" y="483" on="1"/>
        <pt x="299" y="592" on="0"/>
        <pt x="365" y="777" on="0"/>
        <pt x="431" y="843" on="1"/>
        <pt x="570" y="982" on="0"/>
        <pt x="821" y="982" on="1"/>
        <pt x="873" y="982" on="1"/>
        <pt x="873" y="-38" on="1"/>
        <pt x="796" y="-38" on="1"/>
        <pt x="550" y="-38" on="0"/>
        <pt x="418" y="114" on="1"/>
        <pt x="299" y="252" on="0"/>
      </contour>
      <contour>
        <pt x="1021" y="525" on="1"/>
        <pt x="1575" y="525" on="1"/>
        <pt x="1575" y="415" on="1"/>
        <pt x="1575" y="72" on="0"/>
        <pt x="1310" y="-10" on="1"/>
        <pt x="1217" y="-38" on="0"/>
        <pt x="1087" y="-38" on="1"/>
        <pt x="1021" y="-38" on="1"/>
      </contour>
    </TTGlyph>
</ttFont>
